<svg xmlns="http://www.w3.org/2000/svg" width="2560" height="2560" viewBox="0 0 2560 2560" version="1.1"><path d="M 893.719 1280.493 C 681.573 1704.815, 508 2052.215, 508 2052.493 C 508 2052.772, 855.625 2053, 1280.500 2053 L 2053 2053 1667 1281 C 1454.700 856.400, 1280.648 509, 1280.219 509 C 1279.789 509, 1105.864 856.172, 893.719 1280.493" stroke="none" fill="#040404" fill-rule="evenodd"/><path d="M 1229 0.606 C 1117.645 5.685, 1015.162 22.807, 912.500 53.486 C 791.959 89.507, 671.982 146.153, 567.717 216.273 C 467.367 283.760, 383.501 358.511, 304.928 450.500 C 130.647 654.540, 24.300 912.296, 3.534 1181 C -1.294 1243.462, -1.292 1316.307, 3.538 1379 C 16.542 1547.772, 64.363 1716.347, 141.661 1865.903 C 249.439 2074.429, 408.907 2246.661, 608.500 2370.106 C 712.774 2434.598, 835.782 2487.296, 954.500 2518.336 C 1034.690 2539.303, 1104.359 2550.611, 1197 2557.696 C 1230.868 2560.287, 1329.132 2560.287, 1363 2557.696 C 1457.033 2550.504, 1527.360 2538.987, 1608.500 2517.491 C 1803.918 2465.719, 1983.824 2368.251, 2137 2231.164 C 2173.480 2198.515, 2224.898 2145.398, 2258.161 2106 C 2415.415 1919.739, 2516.131 1692.669, 2548.907 1450.500 C 2553.587 1415.918, 2557.613 1371.338, 2558.681 1342.250 C 2559.030 1332.762, 2559.694 1325, 2560.157 1325 C 2560.621 1325, 2561 1304.498, 2561 1279.441 C 2561 1254.384, 2560.620 1234.117, 2560.156 1234.404 C 2559.692 1234.691, 2559.017 1227.103, 2558.656 1217.541 C 2557.535 1187.841, 2553.557 1143.781, 2548.899 1109.500 C 2515.490 863.587, 2413.041 634.801, 2252.458 447.500 C 2138.972 315.133, 2002.728 209.173, 1847.500 132.557 C 1755.679 87.237, 1664.573 54.679, 1566.500 32.138 C 1499.982 16.850, 1441.460 8.234, 1364.524 2.402 C 1345.779 0.981, 1248.917 -0.303, 1229 0.606 M 893.719 1280.493 C 681.573 1704.815, 508 2052.215, 508 2052.493 C 508 2052.772, 855.625 2053, 1280.500 2053 L 2053 2053 1667 1281 C 1454.700 856.400, 1280.648 509, 1280.219 509 C 1279.789 509, 1105.864 856.172, 893.719 1280.493 M 0.461 1280.500 C 0.461 1305.800, 0.591 1316.007, 0.749 1303.181 C 0.908 1290.356, 0.907 1269.656, 0.749 1257.181 C 0.590 1244.707, 0.461 1255.200, 0.461 1280.500" stroke="none" fill="#fbfbfb" fill-rule="evenodd"/></svg>
