<svg xmlns="http://www.w3.org/2000/svg" width="2560" height="510" viewBox="0 0 2560 510" version="1.1"><path d="M 1373.632 56.415 C 1357.778 63.055, 1347.866 79.287, 1349.237 96.365 C 1350.708 114.684, 1365.258 126.890, 1384.326 125.801 C 1397.136 125.070, 1408.036 119.036, 1414.680 109 C 1419.833 101.215, 1421.230 96.389, 1421.252 86.289 C 1421.270 78.312, 1420.915 76.347, 1418.603 71.620 C 1415.415 65.104, 1410.245 59.840, 1404.042 56.794 C 1400.457 55.034, 1397.393 54.500, 1389.500 54.261 C 1380.725 53.994, 1378.781 54.258, 1373.632 56.415 M 1377 56.925 C 1368.252 60.149, 1363.866 63.369, 1358.500 70.508 C 1352.426 78.591, 1351.578 81.313, 1351.548 92.851 C 1351.516 104.848, 1352.354 107.168, 1359.480 114.811 C 1364.067 119.730, 1366.918 121.245, 1375.827 123.496 C 1381.684 124.976, 1382.688 124.968, 1389.327 123.392 C 1393.272 122.455, 1398.230 120.828, 1400.345 119.776 C 1406.331 116.797, 1412.865 109.568, 1416.246 102.183 C 1418.921 96.341, 1419.311 94.367, 1419.347 86.500 C 1419.381 78.738, 1419.018 76.733, 1416.703 71.924 C 1413.041 64.315, 1409.406 61.223, 1398.716 56.627 C 1393.884 54.549, 1383.045 54.698, 1377 56.925 M 1240.340 74.769 C 1238.804 75.746, 1236.388 89.307, 1234.011 110.282 C 1233.526 114.562, 1232.681 120.412, 1232.133 123.282 C 1231.585 126.152, 1230.399 133.900, 1229.497 140.500 C 1228.596 147.100, 1227.252 156.550, 1226.510 161.500 C 1225.769 166.450, 1224.423 176.125, 1223.519 183 C 1222.616 189.875, 1221.229 199.100, 1220.437 203.500 C 1219.646 207.900, 1219.002 212.850, 1219.006 214.500 C 1219.010 216.150, 1218.356 221.325, 1217.554 226 C 1216.751 230.675, 1215.358 239.900, 1214.458 246.500 C 1213.558 253.100, 1212.186 262.325, 1211.409 267 C 1209.264 279.906, 1209.549 294.285, 1212.093 301.524 C 1214.795 309.211, 1215.548 310.614, 1219.794 315.866 C 1231.821 330.741, 1257.302 334.824, 1275.886 324.853 C 1288.172 318.261, 1298.766 303.275, 1301.408 288.750 C 1302.187 284.470, 1301.142 284.002, 1296.364 286.494 C 1294.789 287.315, 1292.067 287.990, 1290.315 287.994 C 1279.446 288.015, 1275.955 279.588, 1278.973 260.615 C 1279.508 257.252, 1280.651 249.100, 1281.513 242.500 C 1282.376 235.900, 1283.723 226.225, 1284.508 221 C 1285.292 215.775, 1286.655 206.325, 1287.535 200 C 1289.033 189.246, 1289.788 183.890, 1293.596 157 C 1294.414 151.225, 1295.715 142.225, 1296.486 137 C 1297.258 131.775, 1298.575 122.550, 1299.414 116.500 C 1300.253 110.450, 1301.603 100.775, 1302.413 95 C 1305.047 76.236, 1305.094 75.250, 1303.386 74.595 C 1301.133 73.730, 1241.715 73.894, 1240.340 74.769 M 1241.541 75.933 C 1240.492 77.630, 1238.922 86.368, 1238.025 95.500 C 1237.539 100.450, 1236.660 105.767, 1236.071 107.315 C 1235.482 108.863, 1235 112.481, 1235 115.355 C 1235 118.229, 1234.325 123.171, 1233.500 126.339 C 1232.675 129.506, 1232 134.231, 1232 136.839 C 1232 139.446, 1231.325 144.171, 1230.500 147.339 C 1229.675 150.506, 1228.995 155.213, 1228.988 157.799 C 1228.982 160.384, 1228.312 164.975, 1227.500 168 C 1226.688 171.025, 1226.002 175.750, 1225.976 178.500 C 1225.950 181.250, 1225.277 186.200, 1224.480 189.500 C 1223.683 192.800, 1223.024 197.528, 1223.016 200.007 C 1223.007 202.485, 1222.537 206.085, 1221.970 208.007 C 1221.404 209.928, 1220.513 215.325, 1219.991 220 C 1218.982 229.026, 1216.971 243.773, 1214.398 261 C 1211.841 278.120, 1211.508 293.305, 1213.547 299.788 C 1218.591 315.825, 1229.483 325.244, 1246.161 327.991 C 1255.452 329.521, 1264.138 328.193, 1273.666 323.787 C 1281.121 320.339, 1290.759 310.545, 1294.376 302.742 C 1301.779 286.771, 1301.779 286.756, 1294.316 289.388 C 1290.868 290.605, 1289.771 290.574, 1285.458 289.138 C 1278.631 286.866, 1276.016 282.229, 1276.076 272.500 C 1276.100 268.650, 1276.569 263.250, 1277.119 260.500 C 1277.669 257.750, 1278.528 251.404, 1279.028 246.397 C 1279.528 241.391, 1280.402 236.074, 1280.969 234.582 C 1281.536 233.090, 1282 229.271, 1282 226.094 C 1282 222.917, 1282.670 218.109, 1283.489 215.409 C 1284.308 212.709, 1284.983 207.984, 1284.989 204.909 C 1284.995 201.834, 1285.670 197.109, 1286.489 194.409 C 1287.308 191.709, 1287.989 187.025, 1288.001 184 C 1288.014 180.975, 1288.688 176.025, 1289.500 173 C 1290.312 169.975, 1290.987 165.250, 1291 162.500 C 1291.013 159.750, 1291.688 155.025, 1292.500 152 C 1293.312 148.975, 1293.986 144.250, 1293.999 141.500 C 1294.011 138.750, 1294.692 134.291, 1295.511 131.591 C 1296.330 128.891, 1297 124.083, 1297 120.906 C 1297 117.729, 1297.485 113.863, 1298.077 112.315 C 1298.670 110.767, 1299.528 105.675, 1299.985 101 C 1300.442 96.325, 1301.378 89.297, 1302.065 85.381 C 1302.752 81.466, 1303.033 77.528, 1302.689 76.631 C 1302.129 75.173, 1298.881 75, 1272.090 75 C 1254.618 75, 1241.878 75.389, 1241.541 75.933 M 913.500 87.954 C 893.931 91.570, 877.935 97.961, 862.645 108.272 C 853.330 114.554, 836.113 132.215, 829.766 142 C 805.327 179.678, 799.854 224.034, 814.773 263.500 C 823.359 286.211, 843.923 307.893, 867.253 318.833 C 870.967 320.575, 874.439 322, 874.969 322 C 875.499 322, 877.410 322.621, 879.216 323.380 C 890.103 327.955, 904.478 330.339, 921 330.310 C 956.570 330.247, 986.988 317.953, 1010.961 293.952 C 1029.214 275.678, 1041.511 252.385, 1047.626 224.500 C 1050.137 213.048, 1050.129 182.524, 1047.612 172 C 1039.523 138.183, 1021.835 114.795, 993 99.787 C 985.277 95.768, 981.650 94.316, 971 90.983 C 955.470 86.123, 930.523 84.808, 913.500 87.954 M 931 87.566 C 930.175 87.812, 924.325 88.657, 918 89.444 C 906.120 90.921, 899.788 92.314, 894.349 94.648 C 892.616 95.392, 890.697 96, 890.085 96 C 889.473 96, 888.191 96.415, 887.236 96.923 C 886.281 97.430, 882.125 99.525, 878 101.579 C 859.646 110.715, 840.949 127.448, 830.373 144.201 C 814.239 169.759, 806.024 202.590, 808.967 229.750 C 810.193 241.061, 813.562 256.840, 815.095 258.450 C 815.593 258.972, 816 260.062, 816 260.871 C 816 263.243, 822.016 274.954, 826.944 282.175 C 834.467 293.198, 844.218 302.716, 855.500 310.050 C 863.087 314.982, 875.103 321, 877.365 321 C 878.138 321, 880.060 321.672, 881.636 322.494 C 883.211 323.315, 885.542 323.990, 886.816 323.994 C 888.089 323.997, 890.036 324.484, 891.141 325.075 C 892.960 326.049, 897.134 326.666, 915.364 328.658 C 921.406 329.318, 941.421 327.629, 948.500 325.862 C 950.700 325.313, 954.390 324.462, 956.700 323.971 C 959.011 323.481, 961.711 322.657, 962.700 322.142 C 963.690 321.627, 966.525 320.427, 969 319.477 C 990.900 311.064, 1011.052 294.760, 1025.005 274.165 C 1029.501 267.529, 1039 249.187, 1039 247.142 C 1039 246.551, 1039.638 244.590, 1040.417 242.784 C 1045.060 232.028, 1047.500 216.427, 1047.500 197.500 C 1047.500 181.455, 1046.639 174.811, 1042.943 162.332 C 1038.904 148.696, 1028.891 131.437, 1019.135 121.293 C 1006.780 108.447, 984.411 95.569, 969.033 92.449 C 967.126 92.062, 964.876 91.398, 964.033 90.972 C 961.285 89.586, 933.744 86.746, 931 87.566 M 1471.975 94.565 C 1471.439 95.976, 1471 98.538, 1471 100.258 C 1471 101.978, 1470.352 107.461, 1469.559 112.442 C 1468.767 117.424, 1467.390 126.900, 1466.500 133.500 C 1465.609 140.100, 1464.208 150.225, 1463.386 156 C 1462.564 161.775, 1461.222 171.225, 1460.404 177 C 1459.586 182.775, 1458.285 191.775, 1457.514 197 C 1456.742 202.225, 1455.395 211.675, 1454.520 218 C 1453.644 224.325, 1452.481 232.425, 1451.933 236 C 1451.386 239.575, 1450.505 246.100, 1449.974 250.500 C 1449.443 254.900, 1448.318 263.225, 1447.473 269 C 1446.628 274.775, 1445.316 284, 1444.556 289.500 C 1439.886 323.320, 1439.887 323.312, 1441.214 324.153 C 1441.921 324.602, 1456.732 324.976, 1474.128 324.985 C 1499.064 324.997, 1505.986 324.722, 1506.847 323.684 C 1507.447 322.961, 1508.403 318.272, 1508.970 313.264 C 1509.537 308.257, 1510.209 303.561, 1510.462 302.830 C 1510.715 302.098, 1511.392 297.450, 1511.967 292.500 C 1512.542 287.550, 1513.658 279, 1514.447 273.500 C 1515.237 268, 1516.570 258.458, 1517.411 252.296 C 1519.241 238.877, 1519.956 235.736, 1521.404 234.765 C 1522.944 233.733, 1601.204 233.843, 1602.840 234.880 C 1604.208 235.747, 1603.603 244.432, 1601.055 260.500 C 1600.532 263.800, 1599.379 271.900, 1598.492 278.500 C 1596.276 295.003, 1594.106 310.354, 1592.985 317.455 C 1592.279 321.928, 1592.351 323.604, 1593.273 324.190 C 1594.963 325.264, 1657.169 325.179, 1658.871 324.101 C 1659.694 323.580, 1660.553 320.282, 1661.017 315.866 C 1661.443 311.815, 1662.309 305.125, 1662.942 301 C 1663.575 296.875, 1664.766 288.775, 1665.588 283 C 1666.411 277.225, 1667.715 268.225, 1668.486 263 C 1669.258 257.775, 1670.605 248.325, 1671.480 242 C 1672.356 235.675, 1673.521 227.575, 1674.069 224 C 1674.618 220.425, 1675.491 214.125, 1676.009 210 C 1676.528 205.875, 1677.646 197.775, 1678.493 192 C 1679.341 186.225, 1680.698 176.550, 1681.508 170.500 C 1682.319 164.450, 1683.688 154.550, 1684.552 148.500 C 1685.415 142.450, 1686.527 134.125, 1687.022 130 C 1687.516 125.875, 1688.383 119.800, 1688.947 116.500 C 1690.164 109.380, 1692 95.525, 1692 93.459 C 1692 92.210, 1687.271 92, 1659.122 92 C 1633.697 92, 1626.005 92.289, 1625.187 93.275 C 1624.605 93.976, 1623.849 97.014, 1623.506 100.025 C 1623.164 103.036, 1622.267 109.550, 1621.513 114.500 C 1620.759 119.450, 1619.400 128.900, 1618.493 135.500 C 1617.586 142.100, 1616.413 150.052, 1615.887 153.171 C 1615.361 156.290, 1614.517 162.468, 1614.011 166.901 C 1612.474 180.381, 1617.341 179.064, 1570.209 178.761 L 1529.500 178.500 1529.156 174 C 1528.967 171.525, 1529.524 164.887, 1530.395 159.248 C 1532.135 147.973, 1534.073 134.600, 1536.516 117 C 1537.394 110.675, 1538.526 102.851, 1539.031 99.613 C 1539.535 96.375, 1539.708 93.337, 1539.415 92.863 C 1539.122 92.388, 1524.047 92, 1505.916 92 L 1472.950 92 1471.975 94.565 M 1473.881 95.750 C 1473.294 97.263, 1472.425 102.550, 1471.951 107.500 C 1471.478 112.450, 1470.833 117.400, 1470.519 118.500 C 1470.205 119.600, 1469.535 124.100, 1469.030 128.500 C 1467.518 141.690, 1465.249 158.334, 1464.600 161 C 1464.264 162.375, 1463.559 167.100, 1463.032 171.500 C 1462.505 175.900, 1461.350 184.450, 1460.466 190.500 C 1457.475 210.974, 1456.027 221.471, 1455.020 230 C 1454.468 234.675, 1453.583 240.525, 1453.054 243 C 1452.050 247.701, 1450.577 258.579, 1448.993 273 C 1448.480 277.675, 1447.596 283.072, 1447.030 284.993 C 1446.463 286.915, 1446 290.426, 1446 292.796 C 1446 295.166, 1445.357 300.119, 1444.571 303.803 C 1443.785 307.486, 1442.928 313.313, 1442.666 316.750 L 1442.190 323 1473.517 323 L 1504.845 323 1505.833 319.750 C 1506.376 317.962, 1507.086 313.265, 1507.412 309.312 C 1507.737 305.358, 1508.452 300.942, 1509.001 299.497 C 1509.551 298.052, 1509.997 294.987, 1509.993 292.685 C 1509.990 290.383, 1510.639 284.675, 1511.435 280 C 1513.415 268.385, 1514.971 257.206, 1516.091 246.550 C 1516.608 241.628, 1517.710 236.565, 1518.539 235.300 L 1520.046 233 1561.773 233.015 C 1584.723 233.024, 1604.112 233.419, 1604.860 233.893 C 1605.817 234.499, 1606.062 236.052, 1605.685 239.127 C 1605.390 241.532, 1604.662 247.866, 1604.067 253.203 C 1603.473 258.539, 1602.540 264.081, 1601.993 265.518 C 1601.447 266.955, 1600.984 270.463, 1600.965 273.315 C 1600.946 276.167, 1600.286 281.425, 1599.500 285 C 1598.714 288.575, 1598.038 293.525, 1598 296 C 1597.961 298.475, 1597.277 303.200, 1596.480 306.500 C 1595.683 309.800, 1595.024 314.863, 1595.016 317.750 L 1595 323 1626.393 323 C 1662.630 323, 1658.738 324.445, 1660.054 310.500 C 1661.152 298.854, 1663.634 280.922, 1664.413 279 C 1664.747 278.175, 1665.475 273.450, 1666.030 268.500 C 1666.585 263.550, 1667.674 255, 1668.450 249.500 C 1669.225 244, 1670.586 234.325, 1671.473 228 C 1672.361 221.675, 1673.762 211.775, 1674.588 206 C 1675.414 200.225, 1676.733 191, 1677.520 185.500 C 1678.306 180, 1679.401 171.675, 1679.952 167 C 1680.503 162.325, 1681.388 156.700, 1681.919 154.500 C 1682.450 152.300, 1683.125 147.070, 1683.419 142.877 C 1683.713 138.684, 1684.414 134.042, 1684.977 132.562 C 1685.539 131.081, 1686 127.519, 1686 124.645 C 1686 121.771, 1686.620 116.963, 1687.378 113.960 C 1688.136 110.957, 1689.001 105.013, 1689.301 100.750 L 1689.846 93 1658.553 93 L 1627.260 93 1626.071 97.250 C 1625.418 99.588, 1624.485 104.875, 1623.999 109 C 1623.513 113.125, 1622.379 121.675, 1621.478 128 C 1617.840 153.535, 1616.976 159.882, 1615.962 168.500 C 1615.331 173.860, 1614.302 178.107, 1613.417 179 C 1612.155 180.273, 1605.958 180.543, 1572.483 180.783 C 1550.787 180.939, 1531.565 180.681, 1529.768 180.210 C 1526.838 179.442, 1526.514 178.999, 1526.639 175.927 C 1526.871 170.200, 1528.882 154.749, 1529.948 150.500 C 1530.501 148.300, 1530.968 144.475, 1530.988 142 C 1531.008 139.525, 1531.688 135.025, 1532.500 132 C 1533.312 128.975, 1533.982 124.247, 1533.988 121.493 C 1533.995 118.740, 1534.454 114.915, 1535.008 112.993 C 1535.562 111.072, 1536.304 105.787, 1536.655 101.250 L 1537.295 93 1506.123 93 L 1474.950 93 1473.881 95.750 M 2138.697 115.750 C 2137.851 117.259, 2136.980 122.049, 2135.498 133.355 C 2133.140 151.340, 2134.659 149.894, 2117.785 150.222 L 2103.500 150.500 2102.298 157 C 2100.527 166.573, 2097.091 190.851, 2096.816 195.738 C 2096.684 198.070, 2097.018 200.418, 2097.557 200.957 C 2098.096 201.496, 2104.379 202.064, 2111.518 202.218 L 2124.500 202.500 2124.270 209 C 2124.052 215.179, 2123.131 222.463, 2119.401 247.500 C 2117.150 262.608, 2117.213 282.115, 2119.536 289.108 C 2124.844 305.090, 2134.219 315.898, 2148.500 322.500 C 2168.914 331.939, 2197.471 333.046, 2218.500 325.214 C 2228.892 321.344, 2229.522 320.832, 2229.287 316.457 C 2229.170 314.281, 2228.391 310.250, 2227.555 307.500 C 2225.733 301.508, 2220.923 282.588, 2220.263 278.817 C 2219.630 275.207, 2218.225 274.869, 2211.349 276.672 C 2200.485 279.522, 2188.596 276.111, 2185.108 269.145 C 2182.115 263.166, 2181.887 260.487, 2183.457 249.746 C 2184.281 244.111, 2185.664 234.325, 2186.531 228 C 2187.398 221.675, 2188.514 213.614, 2189.010 210.086 C 2189.507 206.558, 2190.495 203.303, 2191.206 202.851 C 2191.918 202.400, 2201.107 202.024, 2211.628 202.015 C 2227.045 202.003, 2230.987 201.721, 2231.951 200.560 C 2232.608 199.767, 2233.574 195.830, 2234.098 191.810 C 2234.622 187.789, 2235.712 180.225, 2236.521 175 C 2237.330 169.775, 2238.106 162.125, 2238.246 158 L 2238.500 150.500 2218.500 150 L 2198.500 149.500 2198.580 146.500 C 2198.625 144.850, 2199.220 139.225, 2199.905 134 C 2200.589 128.775, 2201.397 122.362, 2201.701 119.750 L 2202.254 115 2170.686 115 C 2153.324 115, 2138.929 115.338, 2138.697 115.750 M 2140.472 117.250 C 2139.414 120.092, 2137.861 129.053, 2136.978 137.404 C 2135.785 148.695, 2135.374 149.907, 2132.349 151.057 C 2130.986 151.576, 2124.294 152, 2117.480 152 L 2105.091 152 2104.505 155.750 C 2104.183 157.813, 2103.487 161.127, 2102.959 163.116 C 2102.432 165.105, 2102 168.948, 2102 171.656 C 2102 174.364, 2101.325 179.171, 2100.500 182.339 C 2099.675 185.506, 2099 190.776, 2099 194.049 L 2099 200 2110.435 200 C 2126.611 200, 2128.747 201.120, 2126.884 208.629 C 2126.355 210.758, 2125.515 216.325, 2125.016 221 C 2123.862 231.823, 2122.256 243.578, 2120.711 252.500 C 2118.917 262.870, 2119.184 282.467, 2121.195 288 C 2126.246 301.895, 2131.773 309.735, 2140.871 315.911 C 2145.791 319.250, 2149.081 320.846, 2159.877 325.130 C 2161.185 325.649, 2167.902 326.794, 2174.805 327.675 C 2185.459 329.035, 2188.875 329.090, 2197.427 328.041 C 2209.356 326.577, 2222.635 322.773, 2226.837 319.616 C 2228.259 318.547, 2228.019 314.706, 2226.206 309.500 C 2224.866 305.651, 2223.074 298.610, 2222.126 293.463 C 2221.717 291.243, 2221.030 288.858, 2220.601 288.163 C 2220.171 287.468, 2219.510 284.785, 2219.130 282.200 C 2218.363 276.972, 2218.160 276.901, 2210 279.012 C 2200.156 281.559, 2189.792 278.398, 2184.293 271.172 C 2181.151 267.042, 2181.001 266.448, 2181.016 258.172 C 2181.024 253.403, 2181.683 246.800, 2182.480 243.500 C 2183.277 240.200, 2183.945 235.209, 2183.964 232.409 C 2183.984 229.609, 2184.670 225.109, 2185.489 222.409 C 2186.308 219.709, 2186.989 215.025, 2187.003 212 C 2187.034 205.069, 2187.758 202.354, 2189.849 201.327 C 2190.757 200.880, 2200.257 200.287, 2210.961 200.007 L 2230.421 199.500 2231.256 196 C 2231.715 194.075, 2232.746 187.550, 2233.548 181.500 C 2234.349 175.450, 2235.421 168.025, 2235.929 165 C 2236.438 161.975, 2236.887 157.813, 2236.927 155.750 L 2237 152 2219.250 151.900 C 2196.402 151.772, 2196.463 151.789, 2196.632 145.449 C 2196.704 142.727, 2197.485 135.384, 2198.366 129.130 C 2199.248 122.877, 2199.725 117.364, 2199.426 116.880 C 2199.127 116.396, 2185.844 116, 2169.910 116 C 2147.646 116, 2140.830 116.289, 2140.472 117.250 M 924 142.409 C 914.197 144.297, 906.478 148.544, 898.385 156.500 C 890.964 163.796, 885.669 171.344, 882.601 179 C 881.610 181.475, 880.169 184.978, 879.399 186.784 C 878.630 188.590, 878 191.348, 878 192.912 C 878 194.476, 877.325 197.371, 876.500 199.346 C 875.400 201.979, 875 206.816, 875 217.500 C 875 228.184, 875.400 233.021, 876.500 235.654 C 877.325 237.629, 878 240.088, 878 241.119 C 878 244.841, 884.093 255.775, 889.241 261.293 C 896.195 268.746, 903.880 272.696, 915.215 274.643 C 922.202 275.844, 925.166 275.944, 928.543 275.093 C 930.931 274.492, 933.924 273.997, 935.193 273.994 C 936.462 273.990, 938.789 273.315, 940.364 272.494 C 941.940 271.672, 943.613 271, 944.083 271 C 944.553 271, 947.701 269.103, 951.079 266.785 C 963.053 258.568, 971.684 246.438, 977.373 229.832 C 978.818 225.615, 980 221.024, 980 219.631 C 980 218.238, 980.675 214.506, 981.500 211.339 C 983.236 204.675, 983.424 193.279, 981.893 187.500 C 981.310 185.300, 980.498 181.475, 980.088 179 C 978.052 166.714, 967.225 151.910, 956.328 146.515 C 947.411 142.100, 934.268 140.431, 924 142.409 M 925 143.947 C 918.696 145.034, 914.350 146.782, 908.108 150.738 C 890.439 161.940, 878.873 184.547, 876.511 212.500 C 875.948 219.160, 876.766 227.807, 878.947 238.247 C 881.589 250.896, 891.133 263.284, 902.714 269.095 C 909.141 272.320, 910.142 272.517, 921.652 272.829 C 933.185 273.142, 934.155 273.011, 940.709 270.258 C 953.326 264.956, 962.009 256.779, 969.650 243 C 980.507 223.423, 983.579 194.578, 976.922 174.725 C 970.556 155.740, 956.887 144.859, 937.937 143.691 C 933.297 143.404, 927.475 143.520, 925 143.947 M 1798 147.574 C 1796.625 147.811, 1792.125 148.493, 1788 149.091 C 1751.105 154.432, 1719.840 178.686, 1707.914 211.220 C 1703.182 224.128, 1702.499 228.784, 1702.520 248 C 1702.538 265.483, 1702.687 266.920, 1705.225 274.143 C 1712.591 295.108, 1728.243 312.300, 1748.276 321.429 C 1752.389 323.304, 1760.647 326.072, 1766.627 327.580 C 1802.056 336.515, 1844.749 324.430, 1868.543 298.731 C 1882.371 283.795, 1889.259 270.252, 1893.070 250.502 C 1900.946 209.694, 1885.028 174.674, 1851 157.945 C 1842.522 153.777, 1837.284 152.055, 1825.019 149.407 C 1818.173 147.929, 1802.216 146.846, 1798 147.574 M 1992 147.989 C 1964.362 150.951, 1944.909 160.178, 1935.111 174.974 C 1929.830 182.950, 1928.288 186.805, 1926.442 196.658 C 1922.261 218.974, 1931.957 238.567, 1952.176 248.655 C 1962.200 253.657, 1967.425 255.359, 1985.500 259.509 C 1999.507 262.725, 2003.392 264.192, 2006.721 267.521 C 2010.390 271.190, 2010.992 275.138, 2008.439 278.783 C 2004.686 284.142, 1992.673 286.724, 1979.654 284.971 C 1966.689 283.224, 1963.265 282.013, 1947 273.423 C 1945.625 272.697, 1942.101 270.054, 1939.168 267.551 C 1936.236 265.048, 1933.302 263, 1932.649 263 C 1931.574 263, 1924.168 270.295, 1907.619 287.654 C 1900.770 294.839, 1900.664 294.347, 1911 303.370 C 1931.038 320.863, 1958.320 330.492, 1987.500 330.369 C 2001.449 330.311, 2009.993 328.955, 2022.500 324.816 C 2044.710 317.466, 2058.009 305.325, 2064.472 286.500 C 2071.122 267.130, 2067.646 248.077, 2055.153 235.408 C 2046.142 226.272, 2034.387 221.317, 2008 215.535 C 1993.749 212.413, 1988.831 210.677, 1985.883 207.729 C 1982.418 204.265, 1982.141 200.362, 1985.092 196.610 C 1988.596 192.156, 1993.267 190.830, 2005.329 190.868 C 2020.072 190.913, 2030.761 194.281, 2046.236 203.755 C 2051.242 206.820, 2052.185 207.091, 2053.641 205.884 C 2056.411 203.586, 2080.002 173.761, 2079.976 172.589 C 2079.954 171.579, 2065.676 162.807, 2060 160.317 C 2051.895 156.761, 2041.717 153.018, 2036.500 151.675 C 2022.818 148.153, 2004.575 146.642, 1992 147.989 M 1796.777 149.557 C 1796.470 149.863, 1792.683 150.521, 1788.360 151.019 C 1764.150 153.808, 1739.897 167.136, 1724.749 185.977 C 1721.036 190.595, 1717.076 196.202, 1715.950 198.437 C 1714.823 200.672, 1713.544 203.175, 1713.106 204 C 1710.836 208.282, 1710.143 210.069, 1708.264 216.500 C 1707.139 220.350, 1705.606 226.200, 1704.859 229.500 C 1703.090 237.311, 1703.089 258.971, 1704.858 265.500 C 1707.456 275.091, 1710.041 282.105, 1712.335 285.789 C 1713.606 287.830, 1714.909 290.175, 1715.229 291 C 1716.728 294.855, 1728.861 307.409, 1735.322 311.791 C 1743.906 317.612, 1754.987 323.028, 1760.500 324.095 C 1762.700 324.521, 1766.300 325.323, 1768.500 325.876 C 1786.225 330.337, 1799.446 329.889, 1823 324.028 C 1838.255 320.233, 1854.466 310.450, 1866.732 297.636 C 1873.730 290.325, 1883.694 275.727, 1885.254 270.500 C 1885.582 269.400, 1886.958 265.350, 1888.312 261.500 C 1891.595 252.161, 1892.416 245.994, 1892.436 230.500 C 1892.459 212.420, 1891.525 207.503, 1885.789 195.500 C 1880.436 184.299, 1872.788 174.841, 1863.320 167.711 C 1855.360 161.718, 1840.254 154, 1836.483 154 C 1835.540 154, 1832.683 153.352, 1830.134 152.559 C 1821.188 149.777, 1798.590 147.743, 1796.777 149.557 M 1987.500 150.437 C 1962.545 153.600, 1945.217 162.613, 1935.757 177.347 C 1931.369 184.183, 1930.071 187.858, 1928.463 198 C 1925.511 216.616, 1931.240 231.856, 1945.071 242.186 C 1949.913 245.802, 1957.965 250.149, 1961.500 251.055 C 1963.150 251.478, 1965.850 252.285, 1967.500 252.849 C 1972.521 254.563, 1981.078 256.794, 1989.500 258.585 C 1993.900 259.520, 1998.918 260.896, 2000.651 261.643 C 2002.384 262.389, 2004.257 263, 2004.812 263 C 2005.368 263, 2006.987 264.385, 2008.411 266.077 C 2010.981 269.131, 2011.922 275.433, 2010.401 279.398 C 2008.903 283.301, 1996.738 287.966, 1988 287.987 C 1977.433 288.013, 1961.039 283.502, 1951.551 277.958 C 1947.826 275.781, 1944.491 273.988, 1944.139 273.973 C 1943.788 273.958, 1941.250 271.937, 1938.500 269.482 C 1935.750 267.027, 1933.241 265.014, 1932.924 265.009 C 1931.588 264.988, 1905.473 292.211, 1905.195 293.915 C 1904.450 298.468, 1937.330 321, 1944.719 321 C 1945.754 321, 1947.046 321.446, 1947.591 321.991 C 1948.136 322.536, 1950.589 323.412, 1953.041 323.937 C 1955.494 324.462, 1959.300 325.352, 1961.500 325.914 C 1971.080 328.362, 1985.954 329.366, 1994.932 328.171 C 1999.769 327.527, 2005.086 327, 2006.749 327 C 2009.707 327, 2017.030 325.087, 2024 322.492 C 2025.925 321.776, 2028.909 320.664, 2030.631 320.023 C 2042.585 315.568, 2057.474 300.774, 2061.852 289 C 2063.918 283.444, 2066 272.903, 2066 268 C 2066 261.576, 2063.645 251.184, 2061.025 246.050 C 2055.428 235.078, 2039.242 224.269, 2023.500 220.991 C 2021.300 220.533, 2017.700 219.707, 2015.500 219.155 C 2013.300 218.603, 2007.900 217.408, 2003.500 216.500 C 1993.609 214.459, 1988.318 212.379, 1984.750 209.130 C 1982.463 207.048, 1982 205.799, 1982 201.714 C 1982 197.514, 1982.448 196.384, 1985.091 193.915 C 1986.790 192.327, 1990.053 190.520, 1992.341 189.898 C 1997.571 188.477, 2020.609 189.209, 2022.248 190.848 C 2022.882 191.482, 2024.355 192, 2025.523 192 C 2027.712 192, 2043.175 199.322, 2048.519 202.889 C 2050.179 203.997, 2051.979 204.588, 2052.519 204.202 C 2053.739 203.329, 2062.048 193.478, 2068.292 185.500 C 2070.874 182.200, 2074.181 178.028, 2075.639 176.228 C 2077.097 174.429, 2078.112 172.808, 2077.895 172.627 C 2075.346 170.503, 2060.724 162.655, 2054.500 160.070 C 2050.100 158.243, 2045.082 156.130, 2043.349 155.374 C 2041.616 154.618, 2039.224 154, 2038.033 154 C 2036.843 154, 2034.947 153.507, 2033.821 152.904 C 2028.694 150.160, 2001.223 148.697, 1987.500 150.437 M 1142.785 152.028 C 1113.043 158.440, 1090.088 180.625, 1078.660 214 C 1072.086 233.199, 1071.173 260.647, 1076.450 280.459 C 1077.908 285.937, 1079.474 290.887, 1079.929 291.459 C 1080.383 292.032, 1081.097 293.625, 1081.515 295 C 1082.860 299.427, 1091.938 312.688, 1096.507 316.899 C 1107.691 327.209, 1120.885 332.715, 1136.685 333.667 C 1150.732 334.514, 1161.420 331.444, 1174 322.951 C 1180.694 318.431, 1184.666 314.140, 1190.366 305.266 C 1196.825 295.212, 1203.630 276.297, 1201.541 274.208 C 1201.181 273.848, 1199.675 274.323, 1198.193 275.263 C 1188.560 281.377, 1182.543 283.488, 1173.729 283.845 C 1163.908 284.243, 1159.203 282.913, 1152.970 277.976 C 1140.669 268.234, 1137.875 242.489, 1147.043 223.369 C 1158.039 200.437, 1182.576 193.357, 1203.364 207.118 C 1212.007 212.839, 1212.295 212.671, 1211.698 202.250 C 1211.060 191.117, 1209.809 185.636, 1206.115 177.788 C 1199.835 164.449, 1186.596 155.060, 1169.230 151.632 C 1158.860 149.586, 1153.759 149.662, 1142.785 152.028 M 1344.187 151.275 C 1343.605 151.976, 1342.849 155.014, 1342.507 158.025 C 1341.926 163.133, 1341.316 167.455, 1337.497 193.500 C 1336.691 199, 1335.338 208.675, 1334.491 215 C 1333.644 221.325, 1332.524 228.975, 1332.001 232 C 1331.479 235.025, 1330.773 240.200, 1330.434 243.500 C 1330.094 246.800, 1329.217 253.100, 1328.483 257.500 C 1325.184 277.292, 1324.633 287.042, 1326.348 295.281 C 1331.053 317.874, 1345.998 330.294, 1368.500 330.311 C 1391.215 330.328, 1408.292 316.517, 1415.940 291.946 C 1417.579 286.680, 1417.633 285.796, 1416.348 285.303 C 1415.532 284.990, 1413.752 285.330, 1412.393 286.058 C 1411.033 286.785, 1407.637 287.346, 1404.847 287.304 C 1400.906 287.245, 1399.244 286.698, 1397.402 284.856 C 1392.709 280.164, 1392.733 271.576, 1397.530 239 C 1398.380 233.225, 1399.506 224.900, 1400.033 220.500 C 1400.559 216.100, 1401.260 211.375, 1401.589 210 C 1401.918 208.625, 1402.825 202.888, 1403.605 197.251 C 1404.384 191.615, 1405.723 182.165, 1406.581 176.251 C 1409.390 156.864, 1409.762 152.553, 1408.738 151.250 C 1407.299 149.420, 1345.707 149.444, 1344.187 151.275 M 1146.500 153.127 C 1133.025 155.763, 1122.200 160.452, 1112.500 167.854 C 1104.566 173.909, 1102.428 176.104, 1095.808 185 C 1090.791 191.741, 1080 212.354, 1080 215.195 C 1080 215.816, 1079.348 218.614, 1078.551 221.412 C 1077.754 224.210, 1076.347 232.047, 1075.423 238.826 C 1074.043 248.950, 1073.946 252.432, 1074.883 258.326 C 1075.510 262.272, 1076.426 268.425, 1076.919 272 C 1078.221 281.451, 1080.313 288.039, 1085.044 297.589 C 1089.775 307.139, 1100.283 319.235, 1106.643 322.450 C 1108.764 323.523, 1111.175 324.894, 1112 325.496 C 1116.968 329.122, 1132.547 332.301, 1142.500 331.719 C 1158.784 330.767, 1168.788 326.322, 1180.026 315.050 C 1187.951 307.101, 1193.434 297.709, 1198.047 284.184 C 1200.302 277.572, 1200.058 275.728, 1197.202 277.815 C 1196.266 278.499, 1192.575 280.498, 1189 282.258 C 1183.016 285.202, 1181.705 285.458, 1172.500 285.478 C 1160.864 285.504, 1156.983 284.140, 1150.173 277.634 C 1144.879 272.576, 1142.380 267.650, 1140.466 258.500 C 1138.608 249.620, 1138.627 246.580, 1140.604 236.600 C 1143.665 221.148, 1152.548 208.131, 1163.500 203.049 C 1166.250 201.772, 1169.581 200.227, 1170.901 199.614 C 1178.616 196.035, 1200.963 200.431, 1206.017 206.521 C 1206.692 207.334, 1207.923 208, 1208.751 208 C 1210.037 208, 1210.152 206.647, 1209.538 198.792 C 1208.023 179.435, 1198.990 165.293, 1183.437 157.930 C 1173.548 153.248, 1156.927 151.087, 1146.500 153.127 M 1345.495 153.250 C 1344.318 156.578, 1343.046 163.915, 1343.024 167.500 C 1343.011 169.701, 1342.333 174.651, 1341.517 178.500 C 1340.702 182.350, 1340.027 187.391, 1340.017 189.701 C 1340.008 192.012, 1339.325 196.494, 1338.500 199.661 C 1337.675 202.829, 1336.997 207.463, 1336.994 209.960 C 1336.991 212.457, 1336.564 216.075, 1336.045 218 C 1335.178 221.217, 1334.475 226.211, 1331.966 247 C 1331.468 251.125, 1330.591 256.975, 1330.016 260 C 1326.944 276.156, 1327.193 296.440, 1330.554 303.962 C 1333.964 311.593, 1334.652 312.653, 1339.113 317.160 C 1344.912 323.019, 1350.347 325.685, 1360.500 327.650 C 1370.486 329.584, 1379.380 328.350, 1389 323.697 C 1400.608 318.083, 1411.834 303.844, 1414.002 291.986 L 1414.652 288.436 1406.437 288.468 C 1399.820 288.494, 1397.823 288.140, 1396.173 286.651 C 1393.195 283.963, 1390.651 275.059, 1391.368 269.828 C 1391.694 267.447, 1392.408 261.528, 1392.955 256.672 C 1393.501 251.817, 1394.408 246.192, 1394.969 244.172 C 1395.530 242.153, 1395.991 238.457, 1395.994 235.960 C 1395.997 233.463, 1396.675 228.829, 1397.500 225.661 C 1398.325 222.494, 1399 217.769, 1399 215.161 C 1399 212.554, 1399.619 207.963, 1400.376 204.960 C 1401.133 201.957, 1402.022 196.070, 1402.352 191.877 C 1402.683 187.684, 1403.414 183.042, 1403.977 181.562 C 1404.539 180.081, 1405.007 176.762, 1405.016 174.185 C 1405.024 171.608, 1405.683 166.800, 1406.480 163.500 C 1407.277 160.200, 1407.945 156.262, 1407.964 154.750 L 1408 152 1376.969 152 C 1353.046 152, 1345.836 152.286, 1345.495 153.250 M 1795.500 200.950 C 1785.793 202.379, 1777.900 207.807, 1771.816 217.238 C 1766.250 225.865, 1764.769 231.562, 1764.769 244.343 C 1764.769 253.756, 1765.124 256.382, 1766.932 260.352 C 1769.842 266.738, 1774.824 272.053, 1780.670 275.005 C 1784.836 277.109, 1786.818 277.434, 1795.087 277.368 C 1803.955 277.297, 1805.142 277.041, 1810.908 273.968 C 1825.021 266.446, 1832.446 252.235, 1832.314 233 C 1832.255 224.406, 1831.842 221.623, 1830.037 217.666 C 1827.455 212.006, 1821.647 205.877, 1816.291 203.160 C 1811.835 200.900, 1802.550 199.913, 1795.500 200.950 M 1788.427 204.908 C 1778.653 209.851, 1772.408 217.178, 1768.322 228.500 C 1766.988 232.196, 1766.523 236.369, 1766.538 244.500 C 1766.563 257.359, 1768.175 262.029, 1774.804 268.445 C 1780.400 273.860, 1785.855 275.876, 1795.090 275.944 C 1801.603 275.992, 1803.540 275.570, 1808.738 272.973 C 1834.682 260.009, 1838.945 216.992, 1815.500 204.733 C 1812.640 203.238, 1809.079 202.527, 1803 202.240 C 1795.089 201.865, 1794.079 202.050, 1788.427 204.908" stroke="none" fill="#2a2a2a" fill-rule="evenodd"/><path d="M 1377 56.925 C 1368.252 60.149, 1363.866 63.369, 1358.500 70.508 C 1352.426 78.591, 1351.578 81.313, 1351.548 92.851 C 1351.516 104.848, 1352.354 107.168, 1359.480 114.811 C 1364.067 119.730, 1366.918 121.245, 1375.827 123.496 C 1381.684 124.976, 1382.688 124.968, 1389.327 123.392 C 1393.272 122.455, 1398.230 120.828, 1400.345 119.776 C 1406.331 116.797, 1412.865 109.568, 1416.246 102.183 C 1418.921 96.341, 1419.311 94.367, 1419.347 86.500 C 1419.381 78.738, 1419.018 76.733, 1416.703 71.924 C 1413.041 64.315, 1409.406 61.223, 1398.716 56.627 C 1393.884 54.549, 1383.045 54.698, 1377 56.925 M 1241.541 75.933 C 1240.492 77.630, 1238.922 86.368, 1238.025 95.500 C 1237.539 100.450, 1236.660 105.767, 1236.071 107.315 C 1235.482 108.863, 1235 112.481, 1235 115.355 C 1235 118.229, 1234.325 123.171, 1233.500 126.339 C 1232.675 129.506, 1232 134.231, 1232 136.839 C 1232 139.446, 1231.325 144.171, 1230.500 147.339 C 1229.675 150.506, 1228.995 155.213, 1228.988 157.799 C 1228.982 160.384, 1228.312 164.975, 1227.500 168 C 1226.688 171.025, 1226.002 175.750, 1225.976 178.500 C 1225.950 181.250, 1225.277 186.200, 1224.480 189.500 C 1223.683 192.800, 1223.024 197.528, 1223.016 200.007 C 1223.007 202.485, 1222.537 206.085, 1221.970 208.007 C 1221.404 209.928, 1220.513 215.325, 1219.991 220 C 1218.982 229.026, 1216.971 243.773, 1214.398 261 C 1211.841 278.120, 1211.508 293.305, 1213.547 299.788 C 1218.591 315.825, 1229.483 325.244, 1246.161 327.991 C 1255.452 329.521, 1264.138 328.193, 1273.666 323.787 C 1281.121 320.339, 1290.759 310.545, 1294.376 302.742 C 1301.779 286.771, 1301.779 286.756, 1294.316 289.388 C 1290.868 290.605, 1289.771 290.574, 1285.458 289.138 C 1278.631 286.866, 1276.016 282.229, 1276.076 272.500 C 1276.100 268.650, 1276.569 263.250, 1277.119 260.500 C 1277.669 257.750, 1278.528 251.404, 1279.028 246.397 C 1279.528 241.391, 1280.402 236.074, 1280.969 234.582 C 1281.536 233.090, 1282 229.271, 1282 226.094 C 1282 222.917, 1282.670 218.109, 1283.489 215.409 C 1284.308 212.709, 1284.983 207.984, 1284.989 204.909 C 1284.995 201.834, 1285.670 197.109, 1286.489 194.409 C 1287.308 191.709, 1287.989 187.025, 1288.001 184 C 1288.014 180.975, 1288.688 176.025, 1289.500 173 C 1290.312 169.975, 1290.987 165.250, 1291 162.500 C 1291.013 159.750, 1291.688 155.025, 1292.500 152 C 1293.312 148.975, 1293.986 144.250, 1293.999 141.500 C 1294.011 138.750, 1294.692 134.291, 1295.511 131.591 C 1296.330 128.891, 1297 124.083, 1297 120.906 C 1297 117.729, 1297.485 113.863, 1298.077 112.315 C 1298.670 110.767, 1299.528 105.675, 1299.985 101 C 1300.442 96.325, 1301.378 89.297, 1302.065 85.381 C 1302.752 81.466, 1303.033 77.528, 1302.689 76.631 C 1302.129 75.173, 1298.881 75, 1272.090 75 C 1254.618 75, 1241.878 75.389, 1241.541 75.933 M 931 87.566 C 930.175 87.812, 924.325 88.657, 918 89.444 C 906.120 90.921, 899.788 92.314, 894.349 94.648 C 892.616 95.392, 890.697 96, 890.085 96 C 889.473 96, 888.191 96.415, 887.236 96.923 C 886.281 97.430, 882.125 99.525, 878 101.579 C 859.646 110.715, 840.949 127.448, 830.373 144.201 C 814.239 169.759, 806.024 202.590, 808.967 229.750 C 810.193 241.061, 813.562 256.840, 815.095 258.450 C 815.593 258.972, 816 260.062, 816 260.871 C 816 263.243, 822.016 274.954, 826.944 282.175 C 834.467 293.198, 844.218 302.716, 855.500 310.050 C 863.087 314.982, 875.103 321, 877.365 321 C 878.138 321, 880.060 321.672, 881.636 322.494 C 883.211 323.315, 885.542 323.990, 886.816 323.994 C 888.089 323.997, 890.036 324.484, 891.141 325.075 C 892.960 326.049, 897.134 326.666, 915.364 328.658 C 921.406 329.318, 941.421 327.629, 948.500 325.862 C 950.700 325.313, 954.390 324.462, 956.700 323.971 C 959.011 323.481, 961.711 322.657, 962.700 322.142 C 963.690 321.627, 966.525 320.427, 969 319.477 C 990.900 311.064, 1011.052 294.760, 1025.005 274.165 C 1029.501 267.529, 1039 249.187, 1039 247.142 C 1039 246.551, 1039.638 244.590, 1040.417 242.784 C 1045.060 232.028, 1047.500 216.427, 1047.500 197.500 C 1047.500 181.455, 1046.639 174.811, 1042.943 162.332 C 1038.904 148.696, 1028.891 131.437, 1019.135 121.293 C 1006.780 108.447, 984.411 95.569, 969.033 92.449 C 967.126 92.062, 964.876 91.398, 964.033 90.972 C 961.285 89.586, 933.744 86.746, 931 87.566 M 1473.881 95.750 C 1473.294 97.263, 1472.425 102.550, 1471.951 107.500 C 1471.478 112.450, 1470.833 117.400, 1470.519 118.500 C 1470.205 119.600, 1469.535 124.100, 1469.030 128.500 C 1467.518 141.690, 1465.249 158.334, 1464.600 161 C 1464.264 162.375, 1463.559 167.100, 1463.032 171.500 C 1462.505 175.900, 1461.350 184.450, 1460.466 190.500 C 1457.475 210.974, 1456.027 221.471, 1455.020 230 C 1454.468 234.675, 1453.583 240.525, 1453.054 243 C 1452.050 247.701, 1450.577 258.579, 1448.993 273 C 1448.480 277.675, 1447.596 283.072, 1447.030 284.993 C 1446.463 286.915, 1446 290.426, 1446 292.796 C 1446 295.166, 1445.357 300.119, 1444.571 303.803 C 1443.785 307.486, 1442.928 313.313, 1442.666 316.750 L 1442.190 323 1473.517 323 L 1504.845 323 1505.833 319.750 C 1506.376 317.962, 1507.086 313.265, 1507.412 309.312 C 1507.737 305.358, 1508.452 300.942, 1509.001 299.497 C 1509.551 298.052, 1509.997 294.987, 1509.993 292.685 C 1509.990 290.383, 1510.639 284.675, 1511.435 280 C 1513.415 268.385, 1514.971 257.206, 1516.091 246.550 C 1516.608 241.628, 1517.710 236.565, 1518.539 235.300 L 1520.046 233 1561.773 233.015 C 1584.723 233.024, 1604.112 233.419, 1604.860 233.893 C 1605.817 234.499, 1606.062 236.052, 1605.685 239.127 C 1605.390 241.532, 1604.662 247.866, 1604.067 253.203 C 1603.473 258.539, 1602.540 264.081, 1601.993 265.518 C 1601.447 266.955, 1600.984 270.463, 1600.965 273.315 C 1600.946 276.167, 1600.286 281.425, 1599.500 285 C 1598.714 288.575, 1598.038 293.525, 1598 296 C 1597.961 298.475, 1597.277 303.200, 1596.480 306.500 C 1595.683 309.800, 1595.024 314.863, 1595.016 317.750 L 1595 323 1626.393 323 C 1662.630 323, 1658.738 324.445, 1660.054 310.500 C 1661.152 298.854, 1663.634 280.922, 1664.413 279 C 1664.747 278.175, 1665.475 273.450, 1666.030 268.500 C 1666.585 263.550, 1667.674 255, 1668.450 249.500 C 1669.225 244, 1670.586 234.325, 1671.473 228 C 1672.361 221.675, 1673.762 211.775, 1674.588 206 C 1675.414 200.225, 1676.733 191, 1677.520 185.500 C 1678.306 180, 1679.401 171.675, 1679.952 167 C 1680.503 162.325, 1681.388 156.700, 1681.919 154.500 C 1682.450 152.300, 1683.125 147.070, 1683.419 142.877 C 1683.713 138.684, 1684.414 134.042, 1684.977 132.562 C 1685.539 131.081, 1686 127.519, 1686 124.645 C 1686 121.771, 1686.620 116.963, 1687.378 113.960 C 1688.136 110.957, 1689.001 105.013, 1689.301 100.750 L 1689.846 93 1658.553 93 L 1627.260 93 1626.071 97.250 C 1625.418 99.588, 1624.485 104.875, 1623.999 109 C 1623.513 113.125, 1622.379 121.675, 1621.478 128 C 1617.840 153.535, 1616.976 159.882, 1615.962 168.500 C 1615.331 173.860, 1614.302 178.107, 1613.417 179 C 1612.155 180.273, 1605.958 180.543, 1572.483 180.783 C 1550.787 180.939, 1531.565 180.681, 1529.768 180.210 C 1526.838 179.442, 1526.514 178.999, 1526.639 175.927 C 1526.871 170.200, 1528.882 154.749, 1529.948 150.500 C 1530.501 148.300, 1530.968 144.475, 1530.988 142 C 1531.008 139.525, 1531.688 135.025, 1532.500 132 C 1533.312 128.975, 1533.982 124.247, 1533.988 121.493 C 1533.995 118.740, 1534.454 114.915, 1535.008 112.993 C 1535.562 111.072, 1536.304 105.787, 1536.655 101.250 L 1537.295 93 1506.123 93 L 1474.950 93 1473.881 95.750 M 2140.472 117.250 C 2139.414 120.092, 2137.861 129.053, 2136.978 137.404 C 2135.785 148.695, 2135.374 149.907, 2132.349 151.057 C 2130.986 151.576, 2124.294 152, 2117.480 152 L 2105.091 152 2104.505 155.750 C 2104.183 157.813, 2103.487 161.127, 2102.959 163.116 C 2102.432 165.105, 2102 168.948, 2102 171.656 C 2102 174.364, 2101.325 179.171, 2100.500 182.339 C 2099.675 185.506, 2099 190.776, 2099 194.049 L 2099 200 2110.435 200 C 2126.611 200, 2128.747 201.120, 2126.884 208.629 C 2126.355 210.758, 2125.515 216.325, 2125.016 221 C 2123.862 231.823, 2122.256 243.578, 2120.711 252.500 C 2118.917 262.870, 2119.184 282.467, 2121.195 288 C 2126.246 301.895, 2131.773 309.735, 2140.871 315.911 C 2145.791 319.250, 2149.081 320.846, 2159.877 325.130 C 2161.185 325.649, 2167.902 326.794, 2174.805 327.675 C 2185.459 329.035, 2188.875 329.090, 2197.427 328.041 C 2209.356 326.577, 2222.635 322.773, 2226.837 319.616 C 2228.259 318.547, 2228.019 314.706, 2226.206 309.500 C 2224.866 305.651, 2223.074 298.610, 2222.126 293.463 C 2221.717 291.243, 2221.030 288.858, 2220.601 288.163 C 2220.171 287.468, 2219.510 284.785, 2219.130 282.200 C 2218.363 276.972, 2218.160 276.901, 2210 279.012 C 2200.156 281.559, 2189.792 278.398, 2184.293 271.172 C 2181.151 267.042, 2181.001 266.448, 2181.016 258.172 C 2181.024 253.403, 2181.683 246.800, 2182.480 243.500 C 2183.277 240.200, 2183.945 235.209, 2183.964 232.409 C 2183.984 229.609, 2184.670 225.109, 2185.489 222.409 C 2186.308 219.709, 2186.989 215.025, 2187.003 212 C 2187.034 205.069, 2187.758 202.354, 2189.849 201.327 C 2190.757 200.880, 2200.257 200.287, 2210.961 200.007 L 2230.421 199.500 2231.256 196 C 2231.715 194.075, 2232.746 187.550, 2233.548 181.500 C 2234.349 175.450, 2235.421 168.025, 2235.929 165 C 2236.438 161.975, 2236.887 157.813, 2236.927 155.750 L 2237 152 2219.250 151.900 C 2196.402 151.772, 2196.463 151.789, 2196.632 145.449 C 2196.704 142.727, 2197.485 135.384, 2198.366 129.130 C 2199.248 122.877, 2199.725 117.364, 2199.426 116.880 C 2199.127 116.396, 2185.844 116, 2169.910 116 C 2147.646 116, 2140.830 116.289, 2140.472 117.250 M 924 142.409 C 914.197 144.297, 906.478 148.544, 898.385 156.500 C 890.964 163.796, 885.669 171.344, 882.601 179 C 881.610 181.475, 880.169 184.978, 879.399 186.784 C 878.630 188.590, 878 191.348, 878 192.912 C 878 194.476, 877.325 197.371, 876.500 199.346 C 875.400 201.979, 875 206.816, 875 217.500 C 875 228.184, 875.400 233.021, 876.500 235.654 C 877.325 237.629, 878 240.088, 878 241.119 C 878 244.841, 884.093 255.775, 889.241 261.293 C 896.195 268.746, 903.880 272.696, 915.215 274.643 C 922.202 275.844, 925.166 275.944, 928.543 275.093 C 930.931 274.492, 933.924 273.997, 935.193 273.994 C 936.462 273.990, 938.789 273.315, 940.364 272.494 C 941.940 271.672, 943.613 271, 944.083 271 C 944.553 271, 947.701 269.103, 951.079 266.785 C 963.053 258.568, 971.684 246.438, 977.373 229.832 C 978.818 225.615, 980 221.024, 980 219.631 C 980 218.238, 980.675 214.506, 981.500 211.339 C 983.236 204.675, 983.424 193.279, 981.893 187.500 C 981.310 185.300, 980.498 181.475, 980.088 179 C 978.052 166.714, 967.225 151.910, 956.328 146.515 C 947.411 142.100, 934.268 140.431, 924 142.409 M 1796.777 149.557 C 1796.470 149.863, 1792.683 150.521, 1788.360 151.019 C 1764.150 153.808, 1739.897 167.136, 1724.749 185.977 C 1721.036 190.595, 1717.076 196.202, 1715.950 198.437 C 1714.823 200.672, 1713.544 203.175, 1713.106 204 C 1710.836 208.282, 1710.143 210.069, 1708.264 216.500 C 1707.139 220.350, 1705.606 226.200, 1704.859 229.500 C 1703.090 237.311, 1703.089 258.971, 1704.858 265.500 C 1707.456 275.091, 1710.041 282.105, 1712.335 285.789 C 1713.606 287.830, 1714.909 290.175, 1715.229 291 C 1716.728 294.855, 1728.861 307.409, 1735.322 311.791 C 1743.906 317.612, 1754.987 323.028, 1760.500 324.095 C 1762.700 324.521, 1766.300 325.323, 1768.500 325.876 C 1786.225 330.337, 1799.446 329.889, 1823 324.028 C 1838.255 320.233, 1854.466 310.450, 1866.732 297.636 C 1873.730 290.325, 1883.694 275.727, 1885.254 270.500 C 1885.582 269.400, 1886.958 265.350, 1888.312 261.500 C 1891.595 252.161, 1892.416 245.994, 1892.436 230.500 C 1892.459 212.420, 1891.525 207.503, 1885.789 195.500 C 1880.436 184.299, 1872.788 174.841, 1863.320 167.711 C 1855.360 161.718, 1840.254 154, 1836.483 154 C 1835.540 154, 1832.683 153.352, 1830.134 152.559 C 1821.188 149.777, 1798.590 147.743, 1796.777 149.557 M 1987.500 150.437 C 1962.545 153.600, 1945.217 162.613, 1935.757 177.347 C 1931.369 184.183, 1930.071 187.858, 1928.463 198 C 1925.511 216.616, 1931.240 231.856, 1945.071 242.186 C 1949.913 245.802, 1957.965 250.149, 1961.500 251.055 C 1963.150 251.478, 1965.850 252.285, 1967.500 252.849 C 1972.521 254.563, 1981.078 256.794, 1989.500 258.585 C 1993.900 259.520, 1998.918 260.896, 2000.651 261.643 C 2002.384 262.389, 2004.257 263, 2004.812 263 C 2005.368 263, 2006.987 264.385, 2008.411 266.077 C 2010.981 269.131, 2011.922 275.433, 2010.401 279.398 C 2008.903 283.301, 1996.738 287.966, 1988 287.987 C 1977.433 288.013, 1961.039 283.502, 1951.551 277.958 C 1947.826 275.781, 1944.491 273.988, 1944.139 273.973 C 1943.788 273.958, 1941.250 271.937, 1938.500 269.482 C 1935.750 267.027, 1933.241 265.014, 1932.924 265.009 C 1931.588 264.988, 1905.473 292.211, 1905.195 293.915 C 1904.450 298.468, 1937.330 321, 1944.719 321 C 1945.754 321, 1947.046 321.446, 1947.591 321.991 C 1948.136 322.536, 1950.589 323.412, 1953.041 323.937 C 1955.494 324.462, 1959.300 325.352, 1961.500 325.914 C 1971.080 328.362, 1985.954 329.366, 1994.932 328.171 C 1999.769 327.527, 2005.086 327, 2006.749 327 C 2009.707 327, 2017.030 325.087, 2024 322.492 C 2025.925 321.776, 2028.909 320.664, 2030.631 320.023 C 2042.585 315.568, 2057.474 300.774, 2061.852 289 C 2063.918 283.444, 2066 272.903, 2066 268 C 2066 261.576, 2063.645 251.184, 2061.025 246.050 C 2055.428 235.078, 2039.242 224.269, 2023.500 220.991 C 2021.300 220.533, 2017.700 219.707, 2015.500 219.155 C 2013.300 218.603, 2007.900 217.408, 2003.500 216.500 C 1993.609 214.459, 1988.318 212.379, 1984.750 209.130 C 1982.463 207.048, 1982 205.799, 1982 201.714 C 1982 197.514, 1982.448 196.384, 1985.091 193.915 C 1986.790 192.327, 1990.053 190.520, 1992.341 189.898 C 1997.571 188.477, 2020.609 189.209, 2022.248 190.848 C 2022.882 191.482, 2024.355 192, 2025.523 192 C 2027.712 192, 2043.175 199.322, 2048.519 202.889 C 2050.179 203.997, 2051.979 204.588, 2052.519 204.202 C 2053.739 203.329, 2062.048 193.478, 2068.292 185.500 C 2070.874 182.200, 2074.181 178.028, 2075.639 176.228 C 2077.097 174.429, 2078.112 172.808, 2077.895 172.627 C 2075.346 170.503, 2060.724 162.655, 2054.500 160.070 C 2050.100 158.243, 2045.082 156.130, 2043.349 155.374 C 2041.616 154.618, 2039.224 154, 2038.033 154 C 2036.843 154, 2034.947 153.507, 2033.821 152.904 C 2028.694 150.160, 2001.223 148.697, 1987.500 150.437 M 1146.500 153.127 C 1133.025 155.763, 1122.200 160.452, 1112.500 167.854 C 1104.566 173.909, 1102.428 176.104, 1095.808 185 C 1090.791 191.741, 1080 212.354, 1080 215.195 C 1080 215.816, 1079.348 218.614, 1078.551 221.412 C 1077.754 224.210, 1076.347 232.047, 1075.423 238.826 C 1074.043 248.950, 1073.946 252.432, 1074.883 258.326 C 1075.510 262.272, 1076.426 268.425, 1076.919 272 C 1078.221 281.451, 1080.313 288.039, 1085.044 297.589 C 1089.775 307.139, 1100.283 319.235, 1106.643 322.450 C 1108.764 323.523, 1111.175 324.894, 1112 325.496 C 1116.968 329.122, 1132.547 332.301, 1142.500 331.719 C 1158.784 330.767, 1168.788 326.322, 1180.026 315.050 C 1187.951 307.101, 1193.434 297.709, 1198.047 284.184 C 1200.302 277.572, 1200.058 275.728, 1197.202 277.815 C 1196.266 278.499, 1192.575 280.498, 1189 282.258 C 1183.016 285.202, 1181.705 285.458, 1172.500 285.478 C 1160.864 285.504, 1156.983 284.140, 1150.173 277.634 C 1144.879 272.576, 1142.380 267.650, 1140.466 258.500 C 1138.608 249.620, 1138.627 246.580, 1140.604 236.600 C 1143.665 221.148, 1152.548 208.131, 1163.500 203.049 C 1166.250 201.772, 1169.581 200.227, 1170.901 199.614 C 1178.616 196.035, 1200.963 200.431, 1206.017 206.521 C 1206.692 207.334, 1207.923 208, 1208.751 208 C 1210.037 208, 1210.152 206.647, 1209.538 198.792 C 1208.023 179.435, 1198.990 165.293, 1183.437 157.930 C 1173.548 153.248, 1156.927 151.087, 1146.500 153.127 M 1345.495 153.250 C 1344.318 156.578, 1343.046 163.915, 1343.024 167.500 C 1343.011 169.701, 1342.333 174.651, 1341.517 178.500 C 1340.702 182.350, 1340.027 187.391, 1340.017 189.701 C 1340.008 192.012, 1339.325 196.494, 1338.500 199.661 C 1337.675 202.829, 1336.997 207.463, 1336.994 209.960 C 1336.991 212.457, 1336.564 216.075, 1336.045 218 C 1335.178 221.217, 1334.475 226.211, 1331.966 247 C 1331.468 251.125, 1330.591 256.975, 1330.016 260 C 1326.944 276.156, 1327.193 296.440, 1330.554 303.962 C 1333.964 311.593, 1334.652 312.653, 1339.113 317.160 C 1344.912 323.019, 1350.347 325.685, 1360.500 327.650 C 1370.486 329.584, 1379.380 328.350, 1389 323.697 C 1400.608 318.083, 1411.834 303.844, 1414.002 291.986 L 1414.652 288.436 1406.437 288.468 C 1399.820 288.494, 1397.823 288.140, 1396.173 286.651 C 1393.195 283.963, 1390.651 275.059, 1391.368 269.828 C 1391.694 267.447, 1392.408 261.528, 1392.955 256.672 C 1393.501 251.817, 1394.408 246.192, 1394.969 244.172 C 1395.530 242.153, 1395.991 238.457, 1395.994 235.960 C 1395.997 233.463, 1396.675 228.829, 1397.500 225.661 C 1398.325 222.494, 1399 217.769, 1399 215.161 C 1399 212.554, 1399.619 207.963, 1400.376 204.960 C 1401.133 201.957, 1402.022 196.070, 1402.352 191.877 C 1402.683 187.684, 1403.414 183.042, 1403.977 181.562 C 1404.539 180.081, 1405.007 176.762, 1405.016 174.185 C 1405.024 171.608, 1405.683 166.800, 1406.480 163.500 C 1407.277 160.200, 1407.945 156.262, 1407.964 154.750 L 1408 152 1376.969 152 C 1353.046 152, 1345.836 152.286, 1345.495 153.250 M 1795.500 200.950 C 1785.793 202.379, 1777.900 207.807, 1771.816 217.238 C 1766.250 225.865, 1764.769 231.562, 1764.769 244.343 C 1764.769 253.756, 1765.124 256.382, 1766.932 260.352 C 1769.842 266.738, 1774.824 272.053, 1780.670 275.005 C 1784.836 277.109, 1786.818 277.434, 1795.087 277.368 C 1803.955 277.297, 1805.142 277.041, 1810.908 273.968 C 1825.021 266.446, 1832.446 252.235, 1832.314 233 C 1832.255 224.406, 1831.842 221.623, 1830.037 217.666 C 1827.455 212.006, 1821.647 205.877, 1816.291 203.160 C 1811.835 200.900, 1802.550 199.913, 1795.500 200.950 M 2121.006 377.990 C 2118.588 382.508, 2115.585 382.999, 2090.300 383.015 C 2065.826 383.030, 2062.989 383.429, 2060.640 387.192 C 2059.797 388.542, 2060.119 389.305, 2062.232 390.968 C 2063.690 392.114, 2065.146 393.885, 2065.469 394.903 C 2066.314 397.564, 2054.369 462.788, 2052.521 465.609 C 2051.674 466.901, 2049.635 468.654, 2047.991 469.505 C 2044.461 471.330, 2044.296 472.296, 2047.046 475.046 C 2049.020 477.020, 2050.020 477.081, 2075.871 476.796 C 2102.560 476.501, 2102.664 476.491, 2106.342 474 C 2111.763 470.328, 2115.213 464.836, 2115.775 458.987 C 2116.586 450.554, 2113.089 448.643, 2107.565 454.500 L 2104.264 458 2091.132 458 C 2081.233 458, 2078 457.690, 2078 456.739 C 2078 456.046, 2080.025 443.863, 2082.500 429.666 C 2084.975 415.469, 2087 403.436, 2087 402.926 C 2087 402.408, 2092.409 402, 2099.277 402 C 2111.983 402, 2116 403.102, 2116 406.588 C 2116 408.633, 2118.442 409.369, 2120.888 408.060 C 2123.199 406.823, 2124.112 403.819, 2126.590 389.301 C 2128.016 380.944, 2128.098 378.823, 2127.043 377.551 C 2125.255 375.397, 2122.277 375.613, 2121.006 377.990 M 2009.645 381.584 C 1983.892 387.818, 1965.906 413.445, 1967.242 442 C 1967.799 453.905, 1970.738 460.781, 1978.098 467.399 C 1990.367 478.429, 2012.298 479.999, 2029.750 471.095 C 2039.294 466.226, 2038.626 467.594, 2042.489 445 C 2044.416 433.725, 2045.995 423.938, 2045.996 423.250 C 2045.999 422.336, 2043.377 421.996, 2036.250 421.985 C 2025.441 421.969, 2022.203 420.907, 2020.195 416.721 C 2017.348 410.783, 2011.834 415.388, 2010.139 425.120 C 2008.003 437.388, 2007.635 443.856, 2008.982 445.479 C 2010.726 447.580, 2013.280 447.382, 2014.748 445.031 C 2015.892 443.201, 2021.847 439.451, 2022.459 440.176 C 2022.610 440.354, 2022.274 443.800, 2021.714 447.833 C 2020.496 456.604, 2019.387 457.358, 2008.496 456.827 C 2000.179 456.422, 1996.081 454.040, 1992.868 447.741 C 1991.061 444.199, 1990.842 442.369, 1991.234 434.076 C 1991.793 422.249, 1994.393 415.004, 2000.524 408.184 C 2007.316 400.630, 2012.136 398.985, 2026.643 399.268 C 2038.112 399.492, 2038.675 399.403, 2043.833 396.546 C 2049.170 393.590, 2054.013 388.879, 2053.985 386.673 C 2053.944 383.537, 2052.373 382.808, 2048.292 384.031 C 2044.747 385.093, 2043.463 384.935, 2036.734 382.613 C 2028.061 379.619, 2019.158 379.281, 2009.645 381.584 M 2163.929 382.313 C 2144.398 387.813, 2132.700 407.420, 2139.979 422.456 C 2142.733 428.145, 2146.217 430.700, 2160.248 437.318 C 2173.792 443.707, 2175.906 445.897, 2173.676 451.233 C 2171.749 455.846, 2167.861 457.331, 2159.021 456.831 C 2150.616 456.356, 2148.850 455, 2148.646 448.860 C 2148.520 445.110, 2148.175 444.454, 2146.177 444.171 C 2144.356 443.913, 2141.382 446.280, 2132.427 455.116 C 2124.595 462.843, 2121 467.096, 2121 468.636 C 2121 471.777, 2122.203 472.205, 2127.244 470.857 C 2131.234 469.790, 2132.145 469.920, 2137.334 472.295 C 2157.142 481.364, 2180.191 476.397, 2191.833 460.551 C 2195.496 455.565, 2195.500 455.546, 2195.832 443.862 L 2196.164 432.164 2192.329 428.332 C 2189.684 425.689, 2184.708 422.832, 2176.288 419.123 C 2163.390 413.442, 2161 411.720, 2161 408.106 C 2161 402.678, 2165.939 399, 2173.228 399 C 2178.815 399, 2182.223 401.313, 2181.852 404.853 C 2181.184 411.221, 2185.255 411.650, 2191.522 405.873 L 2196 401.745 2196 393.524 L 2196 385.303 2191.750 383.523 C 2186.261 381.224, 2170.267 380.528, 2163.929 382.313 M 1796.567 385.525 L 1793.843 388.050 1796.921 390.926 C 1798.983 392.852, 1800 394.755, 1800 396.686 C 1800 399.429, 1791.169 449.809, 1788.941 459.778 C 1787.884 464.506, 1783.784 470, 1781.313 470 C 1779.497 470, 1779.664 473.522, 1781.571 475.429 C 1782.853 476.711, 1785.776 477, 1797.437 477 C 1810.383 477, 1811.979 476.805, 1814.365 474.927 C 1817.529 472.439, 1817.689 470.911, 1814.963 469.209 C 1810.751 466.579, 1810.817 464.486, 1816.043 434.776 C 1818.778 419.224, 1821.273 405.262, 1821.588 403.750 C 1822.153 401.028, 1822.240 401, 1830.129 401 C 1843.368 401, 1847.232 404.814, 1844.533 415.218 C 1843.002 421.121, 1837.615 427, 1833.737 427 C 1830.886 427, 1827 424.372, 1827 422.443 C 1827 420.457, 1823.666 420.631, 1821.114 422.750 C 1819.569 424.034, 1818.695 426.544, 1817.837 432.171 C 1816.808 438.914, 1816.867 440.148, 1818.325 442.374 C 1820.470 445.647, 1824.731 446.407, 1833.273 445.039 C 1840.857 443.824, 1849.254 440.434, 1854.403 436.506 C 1866.743 427.094, 1872.039 404.631, 1864.461 393.848 C 1861.016 388.947, 1854.872 385.462, 1847.114 384.009 C 1844.151 383.454, 1832.179 383, 1820.510 383 L 1799.292 383 1796.567 385.525 M 1908.500 383.719 C 1907.400 383.987, 1905.713 384.905, 1904.750 385.758 C 1902.883 387.413, 1902.385 390, 1903.933 390 C 1904.446 390, 1905.156 390.918, 1905.512 392.039 C 1905.975 393.498, 1901.197 404.123, 1888.719 429.382 C 1874.398 458.370, 1870.655 465.162, 1867.795 467.343 C 1865.879 468.804, 1863.791 470, 1863.156 470 C 1861.214 470, 1861.847 474.848, 1863.934 475.965 C 1864.998 476.534, 1871.888 477, 1879.246 477 C 1891.326 477, 1892.835 476.802, 1894.811 474.961 C 1897.374 472.574, 1897.587 470.732, 1895.500 469 C 1894.675 468.315, 1894 467.127, 1894 466.360 C 1894 465.593, 1899.110 453.160, 1905.355 438.732 C 1911.601 424.305, 1917.563 410.250, 1918.605 407.500 C 1920.793 401.727, 1920.494 400.537, 1922.304 422.250 L 1923.533 437 1920.679 437 C 1918.428 437, 1917.588 436.368, 1916.694 434 C 1915.434 430.663, 1915.227 430.583, 1911.517 431.994 C 1908.264 433.230, 1905.606 439.184, 1906.326 443.622 C 1907.484 450.756, 1912.897 455, 1920.839 455 L 1924.742 455 1925.406 460.001 C 1926.128 465.447, 1925.145 468.317, 1921.977 470.012 C 1919.509 471.333, 1919.457 473.199, 1921.829 475.345 C 1923.350 476.722, 1926.049 477, 1937.874 477 C 1951.860 477, 1952.133 476.958, 1954.697 474.394 L 1957.303 471.788 1954.145 469.317 C 1952.409 467.957, 1950.523 465.977, 1949.955 464.915 C 1948.990 463.114, 1940.019 400.247, 1940.006 395.202 C 1940.003 393.938, 1941.132 391.856, 1942.515 390.574 C 1945.443 387.860, 1944.979 385.323, 1941.299 383.923 C 1938.839 382.988, 1912.182 382.822, 1908.500 383.719 M 2109.045 413.916 C 2107.254 417.263, 2103.983 418.398, 2094.500 418.963 L 2085.500 419.500 2085.197 424.198 C 2085.017 426.995, 2085.505 430.076, 2086.403 431.813 C 2088.064 435.024, 2093.354 438, 2097.401 438 C 2099.962 438, 2102.505 439.951, 2104.537 443.473 C 2106.048 446.095, 2109.882 444.538, 2111.480 440.654 C 2113.773 435.084, 2116.555 416.105, 2115.359 414.197 C 2113.776 411.671, 2110.328 411.518, 2109.045 413.916" stroke="none" fill="#000000" fill-rule="evenodd"/><path d="M 511.492 16.977 C 466.353 20.947, 425.880 40.630, 392.941 74.632 C 377.486 90.586, 365.858 107.978, 357.259 128 C 352.096 140.021, 350.700 144.251, 346.200 161.500 L 342.548 175.500 342.547 202 C 342.547 224.081, 342.851 229.834, 344.374 236.500 C 351.425 267.368, 361.538 291.063, 376.694 312.228 C 384.084 322.547, 405.098 343.929, 415.521 351.735 C 441.139 370.919, 471.504 383.678, 500.628 387.496 C 513.855 389.230, 542.247 389.479, 553.678 387.962 C 602.660 381.459, 647.054 355.399, 677.968 315 C 692.803 295.613, 703.301 273.890, 710.344 248 C 713.061 238.014, 714.132 227.672, 713.814 214.500 L 713.500 201.500 667.115 201.240 C 636.985 201.071, 620.303 201.334, 619.513 201.989 C 618.844 202.545, 618.019 206.487, 617.679 210.749 C 616.113 230.421, 606.947 251.031, 593.634 264.817 C 583.510 275.301, 565.963 285.518, 551 289.642 C 541.900 292.150, 515.202 292.188, 506.312 289.705 C 490.288 285.231, 473.421 275.503, 463.738 265.151 C 454.185 254.939, 445.522 239.123, 441.391 224.354 C 440.446 220.975, 439.548 212.965, 439.266 205.408 C 438.856 194.425, 439.106 191.019, 440.815 184.258 C 445.365 166.266, 454.190 149.951, 465.420 138.772 C 479.258 124.996, 500.687 115.107, 520.500 113.354 C 531.917 112.344, 531.002 116.599, 530.985 64.595 C 530.976 39.793, 530.582 18.888, 530.108 18.141 C 528.993 16.381, 522.729 15.989, 511.492 16.977 M 575 16.895 L 572.500 17.590 572.243 86.934 C 572.056 137.327, 572.295 156.650, 573.116 157.639 C 574.677 159.521, 710.923 159.677, 712.800 157.800 C 713.710 156.890, 714 139.861, 714 87.275 L 714 17.950 711.435 16.975 C 708.500 15.859, 578.997 15.783, 575 16.895 M 1384.135 50.527 C 1382.285 51.337, 1379.262 52, 1377.419 52 C 1373.373 52, 1367.886 54.386, 1362.537 58.473 C 1357.420 62.381, 1352.220 67.970, 1351.389 70.453 C 1351.030 71.528, 1350.121 73.022, 1349.368 73.775 C 1348.616 74.527, 1347.986 76.123, 1347.968 77.321 C 1347.951 78.520, 1347.276 80.374, 1346.468 81.441 C 1344.050 84.638, 1344.496 99.500, 1347.225 106.661 C 1350.005 113.955, 1359.219 123.592, 1366.573 126.896 C 1371.125 128.942, 1372.869 129.140, 1383.573 128.828 C 1394.291 128.515, 1396.097 128.188, 1401.386 125.603 C 1407.739 122.498, 1420 110.858, 1420 107.931 C 1420 107.004, 1420.675 105.685, 1421.500 105 C 1422.325 104.315, 1423 102.663, 1423 101.328 C 1423 99.993, 1423.709 97.530, 1424.576 95.854 C 1427.439 90.317, 1425.968 78.580, 1421.094 68.058 C 1417.527 60.357, 1405.969 52, 1398.884 52 C 1396.968 52, 1394.973 51.597, 1394.450 51.105 C 1392.584 49.348, 1387.482 49.062, 1384.135 50.527 M 1373.632 56.415 C 1357.778 63.055, 1347.866 79.287, 1349.237 96.365 C 1350.708 114.684, 1365.258 126.890, 1384.326 125.801 C 1397.136 125.070, 1408.036 119.036, 1414.680 109 C 1419.833 101.215, 1421.230 96.389, 1421.252 86.289 C 1421.270 78.312, 1420.915 76.347, 1418.603 71.620 C 1415.415 65.104, 1410.245 59.840, 1404.042 56.794 C 1400.457 55.034, 1397.393 54.500, 1389.500 54.261 C 1380.725 53.994, 1378.781 54.258, 1373.632 56.415 M 1235.571 73.571 C 1234.465 74.677, 1234 77.067, 1234 81.637 C 1234 85.209, 1233.543 88.986, 1232.983 90.031 C 1232.424 91.076, 1231.568 96.109, 1231.080 101.215 C 1230.592 106.322, 1229.710 112.300, 1229.120 114.500 C 1228.530 116.700, 1228.037 121.223, 1228.024 124.550 C 1228.011 127.878, 1227.503 131.097, 1226.895 131.705 C 1226.288 132.312, 1225.566 136.790, 1225.291 141.655 C 1225.017 146.520, 1224.164 152.428, 1223.396 154.785 C 1222.628 157.142, 1222 161.784, 1222 165.101 C 1222 168.418, 1221.511 172.045, 1220.913 173.162 C 1220.316 174.278, 1219.431 179.311, 1218.948 184.346 C 1218.465 189.381, 1217.700 195.750, 1217.250 198.500 L 1216.430 203.500 1215.825 197.500 C 1214.694 186.276, 1211.032 176.880, 1204.134 167.500 C 1199.935 161.790, 1190.372 154, 1187.560 154 C 1186.837 154, 1185.685 153.325, 1185 152.500 C 1184.315 151.675, 1182.888 151, 1181.828 151 C 1180.768 151, 1178.558 150.305, 1176.916 149.457 C 1173.025 147.444, 1140.498 147.789, 1135 149.901 C 1124.617 153.889, 1114.745 158.638, 1111.996 160.967 C 1111.001 161.810, 1109.132 163.175, 1107.843 164 C 1103.971 166.479, 1093.776 177.299, 1089.378 183.597 C 1084.763 190.206, 1079 200.671, 1079 202.441 C 1079 203.078, 1078.492 204.108, 1077.870 204.730 C 1076.249 206.351, 1073.077 215.965, 1072.997 219.500 C 1072.960 221.150, 1072.286 223.625, 1071.500 225 C 1070.373 226.972, 1070.071 232.462, 1070.071 251 C 1070.071 269.538, 1070.373 275.028, 1071.500 277 C 1072.286 278.375, 1072.945 280.947, 1072.965 282.716 C 1072.998 285.756, 1074.526 290.159, 1077.627 296.154 C 1078.382 297.614, 1079 299.256, 1079 299.804 C 1079 303.455, 1097.914 325.203, 1102.300 326.595 C 1103.338 326.925, 1106.123 328.501, 1108.489 330.097 C 1110.855 331.694, 1113.872 333, 1115.195 333 C 1116.518 333, 1118.162 333.562, 1118.849 334.250 C 1120.122 335.524, 1131.863 337.113, 1140 337.113 C 1147.176 337.113, 1159.320 335.549, 1161.500 334.344 C 1162.600 333.736, 1165.525 332.306, 1168 331.167 C 1176.583 327.218, 1191.734 312.860, 1195.085 305.500 C 1195.585 304.400, 1196.397 302.825, 1196.888 302 C 1197.378 301.175, 1198.573 298.700, 1199.542 296.500 C 1200.511 294.300, 1201.910 291.306, 1202.652 289.846 C 1203.393 288.386, 1204.060 285.911, 1204.134 284.346 C 1204.230 282.303, 1204.481 282.770, 1205.025 286 C 1207.842 302.739, 1208.271 304.246, 1212.144 311 C 1212.618 311.825, 1213.454 313.542, 1214.002 314.815 C 1215.271 317.758, 1224.707 327, 1226.444 327 C 1227.165 327, 1228.315 327.675, 1229 328.500 C 1229.685 329.325, 1231.202 330.014, 1232.372 330.032 C 1233.543 330.049, 1235.374 330.724, 1236.441 331.532 C 1237.937 332.664, 1241.654 333, 1252.657 333 C 1267.255 333, 1268.061 332.843, 1277.799 328.105 C 1285.296 324.458, 1300 308.501, 1300 304.012 C 1300 303.040, 1300.675 301.685, 1301.500 301 C 1302.325 300.315, 1303 298.444, 1303 296.842 C 1303 295.240, 1303.706 292.852, 1304.569 291.536 C 1305.438 290.209, 1305.995 287.669, 1305.819 285.839 C 1305.350 280.984, 1301.361 279.783, 1295.687 282.788 C 1290.064 285.766, 1286.650 285.642, 1284.073 282.365 C 1280.527 277.858, 1281.034 270.822, 1288.603 219.500 C 1289.415 214, 1290.420 205.450, 1290.837 200.500 C 1291.254 195.550, 1292.136 190.517, 1292.798 189.316 C 1293.459 188.114, 1294 183.705, 1294 179.516 C 1294 175.060, 1294.567 170.780, 1295.367 169.200 C 1296.119 167.715, 1296.964 162.634, 1297.246 157.910 C 1297.528 153.185, 1298.263 148.377, 1298.879 147.225 C 1299.496 146.074, 1300.016 141.614, 1300.035 137.316 C 1300.058 132.434, 1300.607 128.562, 1301.500 127 C 1302.390 125.444, 1302.956 121.481, 1303 116.500 C 1303.044 111.519, 1303.610 107.556, 1304.500 106 C 1305.384 104.454, 1305.943 100.591, 1305.965 95.872 C 1305.985 91.433, 1306.627 86.743, 1307.500 84.654 C 1309.305 80.334, 1309.449 74.849, 1307.800 73.200 C 1306.913 72.313, 1297.549 72, 1271.871 72 C 1241.633 72, 1236.940 72.203, 1235.571 73.571 M 1240.340 74.769 C 1238.804 75.746, 1236.388 89.307, 1234.011 110.282 C 1233.526 114.562, 1232.681 120.412, 1232.133 123.282 C 1231.585 126.152, 1230.399 133.900, 1229.497 140.500 C 1228.596 147.100, 1227.252 156.550, 1226.510 161.500 C 1225.769 166.450, 1224.423 176.125, 1223.519 183 C 1222.616 189.875, 1221.229 199.100, 1220.437 203.500 C 1219.646 207.900, 1219.002 212.850, 1219.006 214.500 C 1219.010 216.150, 1218.356 221.325, 1217.554 226 C 1216.751 230.675, 1215.358 239.900, 1214.458 246.500 C 1213.558 253.100, 1212.186 262.325, 1211.409 267 C 1209.264 279.906, 1209.549 294.285, 1212.093 301.524 C 1214.795 309.211, 1215.548 310.614, 1219.794 315.866 C 1231.821 330.741, 1257.302 334.824, 1275.886 324.853 C 1288.172 318.261, 1298.766 303.275, 1301.408 288.750 C 1302.187 284.470, 1301.142 284.002, 1296.364 286.494 C 1294.789 287.315, 1292.067 287.990, 1290.315 287.994 C 1279.446 288.015, 1275.955 279.588, 1278.973 260.615 C 1279.508 257.252, 1280.651 249.100, 1281.513 242.500 C 1282.376 235.900, 1283.723 226.225, 1284.508 221 C 1285.292 215.775, 1286.655 206.325, 1287.535 200 C 1289.033 189.246, 1289.788 183.890, 1293.596 157 C 1294.414 151.225, 1295.715 142.225, 1296.486 137 C 1297.258 131.775, 1298.575 122.550, 1299.414 116.500 C 1300.253 110.450, 1301.603 100.775, 1302.413 95 C 1305.047 76.236, 1305.094 75.250, 1303.386 74.595 C 1301.133 73.730, 1241.715 73.894, 1240.340 74.769 M 915.299 83.830 C 911.889 84.199, 908.536 85.063, 907.849 85.750 C 907.162 86.438, 904.495 87, 901.922 87 C 898.985 87, 896.782 87.558, 896 88.500 C 895.315 89.325, 893.454 90, 891.864 90 C 890.274 90, 888.191 90.395, 887.236 90.877 C 886.281 91.359, 881.675 93.645, 877 95.957 C 865.386 101.700, 862.523 103.432, 855 109.270 C 845.614 116.555, 833.874 129.061, 827.443 138.627 C 818.649 151.709, 810 169.526, 810 174.561 C 810 175.658, 809.385 177.443, 808.633 178.527 C 807.291 180.463, 805.724 187.084, 804.025 198 C 802.909 205.168, 802.900 233.080, 804.012 239.500 C 805.848 250.107, 807.215 255.470, 808.581 257.419 C 809.361 258.533, 810 260.264, 810 261.264 C 810 263.644, 815.456 275.334, 819.119 280.800 C 820.703 283.165, 822 285.369, 822 285.697 C 822 286.025, 823.674 288.365, 825.720 290.897 C 837.358 305.295, 856.364 319.246, 872.500 325.232 C 881.444 328.551, 883.702 329.242, 888.183 330.032 C 890.759 330.487, 893.767 331.340, 894.868 331.929 C 898.189 333.707, 943.769 333.345, 949 331.500 C 951.338 330.675, 954.268 330, 955.511 330 C 956.754 330, 959.060 329.328, 960.636 328.506 C 962.211 327.685, 964.486 327.010, 965.691 327.006 C 966.896 327.003, 968.139 326.585, 968.452 326.077 C 968.766 325.569, 970.367 324.859, 972.010 324.498 C 975.206 323.796, 985.302 318.667, 992.604 314.036 C 1000.362 309.116, 1005.205 304.968, 1016.114 293.899 C 1024.234 285.660, 1028.288 280.531, 1033.364 272.078 C 1037.014 266, 1040 260.608, 1040 260.095 C 1040 259.582, 1040.753 257.663, 1041.674 255.831 C 1042.594 253.999, 1043.944 251.306, 1044.674 249.846 C 1045.403 248.386, 1046 246.525, 1046 245.710 C 1046 244.895, 1046.672 242.940, 1047.494 241.364 C 1048.315 239.789, 1048.990 237.127, 1048.994 235.450 C 1048.997 233.772, 1049.442 231.958, 1049.983 231.417 C 1054.300 227.100, 1054.368 173.163, 1050.067 165.126 C 1049.480 164.029, 1048.997 162.314, 1048.994 161.316 C 1048.990 160.317, 1048.315 158.211, 1047.494 156.636 C 1046.672 155.060, 1046 152.978, 1046 152.008 C 1046 151.038, 1045.325 149.685, 1044.500 149 C 1043.675 148.315, 1043 147.134, 1043 146.374 C 1043 143.869, 1033.425 128, 1031.914 128 C 1031.411 128, 1031 127.279, 1031 126.397 C 1031 124.478, 1013.480 107, 1011.556 107 C 1010.818 107, 1009.982 106.396, 1009.699 105.658 C 1009.415 104.919, 1007.680 103.545, 1005.842 102.604 C 1004.004 101.663, 1000.700 99.830, 998.500 98.531 C 992.752 95.136, 985.968 92, 984.373 92 C 983.618 92, 983 91.550, 983 91 C 983 90.450, 981.393 90, 979.429 90 C 977.464 90, 975.182 89.325, 974.357 88.500 C 973.528 87.671, 971.083 87, 968.893 87 C 966.713 87, 963.841 86.287, 962.510 85.415 C 960.564 84.140, 956.313 83.764, 940.795 83.495 C 930.183 83.311, 918.710 83.462, 915.299 83.830 M 913.500 87.954 C 893.931 91.570, 877.935 97.961, 862.645 108.272 C 853.330 114.554, 836.113 132.215, 829.766 142 C 805.327 179.678, 799.854 224.034, 814.773 263.500 C 823.359 286.211, 843.923 307.893, 867.253 318.833 C 870.967 320.575, 874.439 322, 874.969 322 C 875.499 322, 877.410 322.621, 879.216 323.380 C 890.103 327.955, 904.478 330.339, 921 330.310 C 956.570 330.247, 986.988 317.953, 1010.961 293.952 C 1029.214 275.678, 1041.511 252.385, 1047.626 224.500 C 1050.137 213.048, 1050.129 182.524, 1047.612 172 C 1039.523 138.183, 1021.835 114.795, 993 99.787 C 985.277 95.768, 981.650 94.316, 971 90.983 C 955.470 86.123, 930.523 84.808, 913.500 87.954 M 1468.667 90.667 C 1468.300 91.033, 1468 93.313, 1468 95.732 C 1468 98.152, 1467.543 100.986, 1466.983 102.031 C 1466.424 103.076, 1465.551 108.109, 1465.043 113.215 C 1464.534 118.322, 1463.669 124.750, 1463.119 127.500 C 1462.569 130.250, 1462.092 134.667, 1462.060 137.316 C 1462.027 139.964, 1461.565 142.944, 1461.034 143.936 C 1460.503 144.929, 1459.792 149.512, 1459.454 154.120 C 1459.116 158.729, 1458.427 163.625, 1457.922 165 C 1457.418 166.375, 1456.568 171.550, 1456.034 176.500 C 1454.159 193.883, 1452.982 202.537, 1451.954 206.500 C 1450.857 210.734, 1449.403 222.605, 1448.157 237.500 C 1447.743 242.450, 1446.864 247.483, 1446.202 248.684 C 1445.541 249.886, 1445 254.063, 1445 257.966 C 1445 262.013, 1444.355 266.607, 1443.500 268.654 C 1442.609 270.788, 1442 275.360, 1442 279.922 C 1442 284.481, 1441.521 288.079, 1440.822 288.778 C 1440.166 289.434, 1439.473 293.845, 1439.259 298.728 C 1439.048 303.553, 1438.341 308.579, 1437.688 309.898 C 1437.034 311.217, 1436.500 315.492, 1436.500 319.398 L 1436.500 326.500 1473.500 326.500 L 1510.500 326.500 1511.119 321.429 C 1511.459 318.640, 1512.247 315.407, 1512.869 314.245 C 1513.491 313.082, 1514.016 308.614, 1514.035 304.316 C 1514.058 299.434, 1514.607 295.562, 1515.500 294 C 1516.367 292.483, 1516.943 288.636, 1516.965 284.218 C 1516.985 280.088, 1517.649 275.382, 1518.500 273.346 C 1519.325 271.371, 1520 266.915, 1520 263.443 C 1520 259.971, 1520.514 255.863, 1521.141 254.315 C 1521.769 252.767, 1522.557 248.350, 1522.891 244.500 L 1523.500 237.500 1561.750 237.238 L 1600 236.976 1600 242.288 C 1600 245.210, 1599.487 248.113, 1598.859 248.741 C 1598.232 249.368, 1597.380 254.071, 1596.967 259.191 C 1596.554 264.311, 1595.728 270.300, 1595.132 272.500 C 1594.536 274.700, 1594.037 279.117, 1594.024 282.316 C 1594.011 285.514, 1593.511 289.045, 1592.913 290.162 C 1592.316 291.278, 1591.437 296.311, 1590.959 301.346 C 1590.482 306.381, 1589.658 313.412, 1589.129 316.971 C 1587.509 327.860, 1584.505 327.065, 1626.161 326.762 L 1662.238 326.500 1664.062 319.500 C 1665.064 315.650, 1665.911 309.433, 1665.942 305.684 C 1665.974 301.936, 1666.545 297.886, 1667.212 296.684 C 1668.514 294.335, 1670.701 279.074, 1671.823 264.500 C 1672.204 259.550, 1673.075 254.517, 1673.758 253.316 C 1674.441 252.114, 1675 247.782, 1675 243.688 C 1675 239.334, 1675.623 234.754, 1676.500 232.654 C 1677.342 230.638, 1678 226.034, 1678 222.154 C 1678 218.274, 1678.658 213.670, 1679.500 211.654 C 1680.325 209.680, 1681.005 205.237, 1681.011 201.782 C 1681.017 198.327, 1681.692 193.291, 1682.511 190.591 C 1683.330 187.891, 1684 182.884, 1684 179.463 C 1684 176.043, 1684.675 171.629, 1685.500 169.654 C 1686.355 167.607, 1687 163.013, 1687 158.966 C 1687 155.063, 1687.488 150.957, 1688.084 149.843 C 1688.680 148.729, 1689.377 144.371, 1689.633 140.159 C 1689.888 135.946, 1690.548 130.925, 1691.098 129 C 1691.649 127.075, 1692.506 121.675, 1693.003 117 C 1693.500 112.325, 1694.427 105.465, 1695.063 101.755 C 1695.699 98.045, 1695.936 93.882, 1695.591 92.505 L 1694.962 90 1658.540 90 C 1630.488 90, 1621.937 90.287, 1621.332 91.250 C 1620.517 92.545, 1619.797 97.155, 1618.013 112.500 C 1617.437 117.450, 1616.524 122.805, 1615.983 124.399 C 1615.442 125.994, 1615 130.171, 1615 133.681 C 1615 137.192, 1614.325 141.680, 1613.500 143.654 C 1612.634 145.727, 1612 150.314, 1612 154.508 C 1612 159.006, 1611.431 162.862, 1610.506 164.636 C 1609.685 166.211, 1609.010 168.963, 1609.006 170.750 L 1609 174 1570.500 174 C 1540.359 174, 1532.003 173.729, 1532.015 172.750 C 1532.023 172.063, 1532.679 169.700, 1533.471 167.500 C 1534.264 165.300, 1534.932 160.433, 1534.956 156.684 C 1534.980 152.936, 1535.496 148.941, 1536.103 147.807 C 1536.710 146.673, 1537.420 142.090, 1537.681 137.623 C 1537.942 133.155, 1538.622 128.270, 1539.192 126.767 C 1539.762 125.264, 1540.601 120.314, 1541.057 115.767 C 1541.512 111.220, 1542.418 104.720, 1543.069 101.322 C 1543.720 97.924, 1543.962 93.986, 1543.607 92.572 L 1542.962 90 1506.148 90 C 1485.900 90, 1469.033 90.300, 1468.667 90.667 M 1471.975 94.565 C 1471.439 95.976, 1471 98.538, 1471 100.258 C 1471 101.978, 1470.352 107.461, 1469.559 112.442 C 1468.767 117.424, 1467.390 126.900, 1466.500 133.500 C 1465.609 140.100, 1464.208 150.225, 1463.386 156 C 1462.564 161.775, 1461.222 171.225, 1460.404 177 C 1459.586 182.775, 1458.285 191.775, 1457.514 197 C 1456.742 202.225, 1455.395 211.675, 1454.520 218 C 1453.644 224.325, 1452.481 232.425, 1451.933 236 C 1451.386 239.575, 1450.505 246.100, 1449.974 250.500 C 1449.443 254.900, 1448.318 263.225, 1447.473 269 C 1446.628 274.775, 1445.316 284, 1444.556 289.500 C 1439.886 323.320, 1439.887 323.312, 1441.214 324.153 C 1441.921 324.602, 1456.732 324.976, 1474.128 324.985 C 1499.064 324.997, 1505.986 324.722, 1506.847 323.684 C 1507.447 322.961, 1508.403 318.272, 1508.970 313.264 C 1509.537 308.257, 1510.209 303.561, 1510.462 302.830 C 1510.715 302.098, 1511.392 297.450, 1511.967 292.500 C 1512.542 287.550, 1513.658 279, 1514.447 273.500 C 1515.237 268, 1516.570 258.458, 1517.411 252.296 C 1519.241 238.877, 1519.956 235.736, 1521.404 234.765 C 1522.944 233.733, 1601.204 233.843, 1602.840 234.880 C 1604.208 235.747, 1603.603 244.432, 1601.055 260.500 C 1600.532 263.800, 1599.379 271.900, 1598.492 278.500 C 1596.276 295.003, 1594.106 310.354, 1592.985 317.455 C 1592.279 321.928, 1592.351 323.604, 1593.273 324.190 C 1594.963 325.264, 1657.169 325.179, 1658.871 324.101 C 1659.694 323.580, 1660.553 320.282, 1661.017 315.866 C 1661.443 311.815, 1662.309 305.125, 1662.942 301 C 1663.575 296.875, 1664.766 288.775, 1665.588 283 C 1666.411 277.225, 1667.715 268.225, 1668.486 263 C 1669.258 257.775, 1670.605 248.325, 1671.480 242 C 1672.356 235.675, 1673.521 227.575, 1674.069 224 C 1674.618 220.425, 1675.491 214.125, 1676.009 210 C 1676.528 205.875, 1677.646 197.775, 1678.493 192 C 1679.341 186.225, 1680.698 176.550, 1681.508 170.500 C 1682.319 164.450, 1683.688 154.550, 1684.552 148.500 C 1685.415 142.450, 1686.527 134.125, 1687.022 130 C 1687.516 125.875, 1688.383 119.800, 1688.947 116.500 C 1690.164 109.380, 1692 95.525, 1692 93.459 C 1692 92.210, 1687.271 92, 1659.122 92 C 1633.697 92, 1626.005 92.289, 1625.187 93.275 C 1624.605 93.976, 1623.849 97.014, 1623.506 100.025 C 1623.164 103.036, 1622.267 109.550, 1621.513 114.500 C 1620.759 119.450, 1619.400 128.900, 1618.493 135.500 C 1617.586 142.100, 1616.413 150.052, 1615.887 153.171 C 1615.361 156.290, 1614.517 162.468, 1614.011 166.901 C 1612.474 180.381, 1617.341 179.064, 1570.209 178.761 L 1529.500 178.500 1529.156 174 C 1528.967 171.525, 1529.524 164.887, 1530.395 159.248 C 1532.135 147.973, 1534.073 134.600, 1536.516 117 C 1537.394 110.675, 1538.526 102.851, 1539.031 99.613 C 1539.535 96.375, 1539.708 93.337, 1539.415 92.863 C 1539.122 92.388, 1524.047 92, 1505.916 92 L 1472.950 92 1471.975 94.565 M 2135.646 113.452 C 2133.262 115.661, 2133 116.610, 2133 123.018 C 2133 126.930, 2132.469 131.114, 2131.819 132.316 C 2131.170 133.517, 2130.382 137.425, 2130.069 141 L 2129.500 147.500 2115.068 147.779 C 2106.509 147.944, 2100.100 148.502, 2099.318 149.151 C 2098.449 149.872, 2098 152.716, 2098 157.500 C 2098 161.687, 2097.366 166.274, 2096.500 168.346 C 2095.618 170.457, 2094.985 175.142, 2094.965 179.718 C 2094.942 184.570, 2094.391 188.441, 2093.500 190 C 2091.752 193.058, 2091.554 202.154, 2093.200 203.800 C 2094.013 204.613, 2098.689 205, 2107.700 205 L 2121 205 2121 209.941 C 2121 212.659, 2120.592 215.134, 2120.093 215.442 C 2119.594 215.751, 2118.865 220.390, 2118.473 225.751 C 2118.080 231.113, 2117.347 236.288, 2116.843 237.252 C 2114.325 242.070, 2112.741 278.046, 2114.652 287.026 C 2116.024 293.472, 2121.675 304.673, 2126.433 310.375 C 2134.196 319.679, 2146.305 327.147, 2160 331.077 C 2162.841 331.892, 2172.513 332.498, 2186.228 332.721 C 2204.314 333.015, 2208.454 332.817, 2210.928 331.537 C 2212.563 330.692, 2214.808 330, 2215.916 330 C 2217.824 330, 2219.660 329.302, 2229.750 324.742 C 2233.805 322.910, 2234 322.622, 2234 318.470 C 2234 316.076, 2233.609 313.877, 2233.132 313.581 C 2232.654 313.286, 2231.950 310.684, 2231.568 307.797 C 2231.185 304.911, 2230.513 302.089, 2230.074 301.525 C 2229.635 300.961, 2228.989 298.295, 2228.637 295.601 C 2228.285 292.906, 2227.609 290.206, 2227.135 289.601 C 2226.661 288.995, 2225.988 286.627, 2225.639 284.338 C 2225.290 282.049, 2224.099 278.063, 2222.991 275.480 C 2220.997 270.827, 2220.944 270.790, 2217.239 271.484 C 2215.183 271.868, 2209.309 272.399, 2204.186 272.662 C 2195.355 273.115, 2194.698 273.007, 2191.497 270.565 C 2188.885 268.574, 2187.990 267.029, 2187.540 263.745 C 2186.899 259.057, 2188.102 244.404, 2190.517 227.500 C 2191.381 221.450, 2192.406 214.025, 2192.794 211 L 2193.500 205.500 2214 205 C 2225.275 204.725, 2234.995 204.178, 2235.600 203.783 C 2236.206 203.389, 2236.989 199.654, 2237.342 195.484 C 2237.694 191.313, 2238.437 187.052, 2238.991 186.016 C 2239.546 184.980, 2240 180.480, 2240 176.016 C 2240 170.654, 2240.524 166.887, 2241.545 164.913 C 2242.602 162.868, 2242.997 159.808, 2242.795 155.213 L 2242.500 148.500 2222.500 148 L 2202.500 147.500 2202.856 141.535 C 2203.052 138.255, 2203.615 134.513, 2204.106 133.220 C 2205.456 129.670, 2205.222 113.622, 2203.800 112.200 C 2202.916 111.316, 2194.121 111, 2170.446 111 L 2138.292 111 2135.646 113.452 M 2138.697 115.750 C 2137.851 117.259, 2136.980 122.049, 2135.498 133.355 C 2133.140 151.340, 2134.659 149.894, 2117.785 150.222 L 2103.500 150.500 2102.298 157 C 2100.527 166.573, 2097.091 190.851, 2096.816 195.738 C 2096.684 198.070, 2097.018 200.418, 2097.557 200.957 C 2098.096 201.496, 2104.379 202.064, 2111.518 202.218 L 2124.500 202.500 2124.270 209 C 2124.052 215.179, 2123.131 222.463, 2119.401 247.500 C 2117.150 262.608, 2117.213 282.115, 2119.536 289.108 C 2124.844 305.090, 2134.219 315.898, 2148.500 322.500 C 2168.914 331.939, 2197.471 333.046, 2218.500 325.214 C 2228.892 321.344, 2229.522 320.832, 2229.287 316.457 C 2229.170 314.281, 2228.391 310.250, 2227.555 307.500 C 2225.733 301.508, 2220.923 282.588, 2220.263 278.817 C 2219.630 275.207, 2218.225 274.869, 2211.349 276.672 C 2200.485 279.522, 2188.596 276.111, 2185.108 269.145 C 2182.115 263.166, 2181.887 260.487, 2183.457 249.746 C 2184.281 244.111, 2185.664 234.325, 2186.531 228 C 2187.398 221.675, 2188.514 213.614, 2189.010 210.086 C 2189.507 206.558, 2190.495 203.303, 2191.206 202.851 C 2191.918 202.400, 2201.107 202.024, 2211.628 202.015 C 2227.045 202.003, 2230.987 201.721, 2231.951 200.560 C 2232.608 199.767, 2233.574 195.830, 2234.098 191.810 C 2234.622 187.789, 2235.712 180.225, 2236.521 175 C 2237.330 169.775, 2238.106 162.125, 2238.246 158 L 2238.500 150.500 2218.500 150 L 2198.500 149.500 2198.580 146.500 C 2198.625 144.850, 2199.220 139.225, 2199.905 134 C 2200.589 128.775, 2201.397 122.362, 2201.701 119.750 L 2202.254 115 2170.686 115 C 2153.324 115, 2138.929 115.338, 2138.697 115.750 M 925 143.947 C 918.696 145.034, 914.350 146.782, 908.108 150.738 C 890.439 161.940, 878.873 184.547, 876.511 212.500 C 875.948 219.160, 876.766 227.807, 878.947 238.247 C 881.589 250.896, 891.133 263.284, 902.714 269.095 C 909.141 272.320, 910.142 272.517, 921.652 272.829 C 933.185 273.142, 934.155 273.011, 940.709 270.258 C 953.326 264.956, 962.009 256.779, 969.650 243 C 980.507 223.423, 983.579 194.578, 976.922 174.725 C 970.556 155.740, 956.887 144.859, 937.937 143.691 C 933.297 143.404, 927.475 143.520, 925 143.947 M 1781 146.500 C 1779.625 147.286, 1777.053 147.945, 1775.284 147.965 C 1773.515 147.984, 1770.365 148.725, 1768.284 149.611 C 1766.203 150.497, 1763.150 151.783, 1761.500 152.469 C 1747.800 158.163, 1738.058 164.362, 1728.940 173.189 C 1721.591 180.303, 1715 188.158, 1715 189.803 C 1715 190.407, 1714.402 191.260, 1713.672 191.700 C 1712.942 192.140, 1710.862 195.650, 1709.051 199.500 C 1707.240 203.350, 1705.138 207.774, 1704.379 209.331 C 1703.621 210.888, 1702.986 213.363, 1702.968 214.831 C 1702.951 216.299, 1702.276 218.374, 1701.468 219.441 C 1700.661 220.509, 1700 223.490, 1700 226.065 C 1700 228.641, 1699.325 232.662, 1698.500 235 C 1696.701 240.099, 1696.486 255.622, 1698.159 259.685 C 1698.796 261.233, 1699.638 264.975, 1700.030 268 C 1702.147 284.367, 1715.140 304.502, 1730.789 315.669 C 1738.135 320.911, 1748.839 326.586, 1753.176 327.539 C 1754.717 327.877, 1756.234 328.569, 1756.548 329.077 C 1756.861 329.585, 1758.779 330.016, 1760.809 330.035 C 1762.839 330.055, 1765.625 330.714, 1767 331.500 C 1770.717 333.625, 1811.261 333.625, 1816.346 331.500 C 1818.320 330.675, 1821.024 330, 1822.354 330 C 1823.683 330, 1826.060 329.328, 1827.636 328.506 C 1829.211 327.685, 1831.228 327.010, 1832.118 327.006 C 1834.280 326.998, 1849.019 319.422, 1856.500 314.474 C 1867.223 307.382, 1886 286.321, 1886 281.386 C 1886 280.624, 1886.344 280, 1886.764 280 C 1887.784 280, 1891.480 271.828, 1893.550 265 C 1894.466 261.975, 1895.889 257.361, 1896.710 254.746 C 1898.944 247.637, 1898.883 212.994, 1896.628 207.628 C 1895.732 205.498, 1895 203.146, 1895 202.400 C 1895 201.188, 1890.209 190.824, 1886.441 183.887 C 1884.695 180.671, 1872.411 166.848, 1870.162 165.567 C 1869.261 165.054, 1867.652 163.822, 1866.587 162.830 C 1864.138 160.548, 1853.196 154, 1851.833 154 C 1851.269 154, 1849.614 153.382, 1848.154 152.627 C 1842.154 149.523, 1837.755 147.998, 1834.716 147.968 C 1832.947 147.951, 1830.626 147.276, 1829.559 146.468 C 1826.762 144.353, 1784.708 144.380, 1781 146.500 M 1977 146.500 C 1975.625 147.286, 1972.899 147.945, 1970.941 147.965 C 1968.984 147.984, 1966.509 148.661, 1965.441 149.468 C 1964.374 150.276, 1962.706 150.951, 1961.736 150.968 C 1959.116 151.015, 1946.270 158.270, 1941.293 162.513 C 1933.893 168.822, 1925.029 181.659, 1924.968 186.154 C 1924.951 187.444, 1924.276 189.374, 1923.468 190.441 C 1922.344 191.927, 1922 195.575, 1922 206 C 1922 216.425, 1922.344 220.073, 1923.468 221.559 C 1924.276 222.626, 1924.951 224.350, 1924.968 225.389 C 1925.008 227.780, 1930.283 236.405, 1934.376 240.773 C 1938.915 245.618, 1949.080 252.136, 1957 255.281 C 1965.023 258.467, 1967.702 259.295, 1971.500 259.760 C 1973.700 260.029, 1976.388 260.868, 1977.473 261.625 C 1978.557 262.381, 1981.482 263.016, 1983.973 263.035 C 1986.463 263.055, 1989.625 263.714, 1991 264.500 C 1992.375 265.286, 1994.502 265.945, 1995.726 265.965 C 1998.538 266.009, 2003.683 269.103, 2005.675 271.946 C 2007.053 273.914, 2007.035 274.304, 2005.479 276.023 C 2001.474 280.449, 1996.440 282.002, 1986.219 281.965 C 1979.685 281.941, 1975.681 281.461, 1974 280.500 C 1972.625 279.714, 1970.299 279.055, 1968.831 279.035 C 1967.363 279.016, 1964.663 278.247, 1962.831 277.326 C 1960.999 276.406, 1958.375 275.098, 1957 274.420 C 1950.411 271.172, 1947.331 269.248, 1944.057 266.331 C 1932.143 255.718, 1932.886 255.511, 1914.500 274.588 C 1899.427 290.228, 1897.492 292.823, 1898.509 296.029 C 1899.401 298.838, 1912.592 310.677, 1918.894 314.324 C 1920.877 315.472, 1922.734 316.739, 1923.019 317.141 C 1923.905 318.386, 1942.975 327, 1944.847 327 C 1945.821 327, 1947.491 327.661, 1948.559 328.468 C 1949.626 329.276, 1951.908 329.951, 1953.628 329.968 C 1955.348 329.986, 1958.371 330.675, 1960.346 331.500 C 1965.447 333.632, 2009.271 333.632, 2013 331.500 C 2014.375 330.714, 2017.075 330.041, 2019 330.004 C 2020.925 329.967, 2023.374 329.276, 2024.441 328.468 C 2025.509 327.661, 2027.129 327, 2028.042 327 C 2031.257 327, 2044.278 319.469, 2051.300 313.548 C 2055.771 309.778, 2064 299.142, 2064 297.134 C 2064 296.645, 2064.628 295.724, 2065.395 295.087 C 2066.163 294.450, 2067.080 292.389, 2067.433 290.507 C 2067.786 288.624, 2068.730 285.828, 2069.531 284.292 C 2071.506 280.506, 2071.596 255.666, 2069.648 251.933 C 2068.912 250.522, 2068.010 248.175, 2067.644 246.718 C 2066.586 242.502, 2061.348 235.451, 2055.706 230.648 C 2050.097 225.873, 2042.003 221, 2039.680 221 C 2038.891 221, 2037.685 220.325, 2037 219.500 C 2036.315 218.675, 2034.656 218, 2033.312 218 C 2031.968 218, 2029.918 217.491, 2028.755 216.869 C 2026.108 215.452, 2015.946 213.007, 2010 212.356 C 2007.525 212.085, 2004.082 211.219, 2002.349 210.432 C 2000.616 209.644, 1998.269 209, 1997.133 209 C 1995.997 209, 1993.478 208.242, 1991.534 207.315 C 1988.579 205.905, 1988 205.107, 1988 202.437 C 1988 198.587, 1989.514 197.207, 1996.314 194.857 C 2002.632 192.674, 2004.370 192.623, 2009.500 194.471 C 2011.700 195.264, 2015.611 195.932, 2018.191 195.956 C 2020.771 195.980, 2023.139 196.415, 2023.452 196.923 C 2023.766 197.431, 2025.374 198.143, 2027.025 198.506 C 2030.583 199.287, 2040.195 204.243, 2044.683 207.611 C 2046.800 209.200, 2049.205 210, 2051.861 210 C 2055.796 210, 2056.034 209.781, 2067.678 195.457 C 2081.402 178.575, 2085.287 172.911, 2084.518 170.907 C 2083.856 169.183, 2074.309 163.187, 2064.462 158.310 C 2063.383 157.776, 2061.001 156.587, 2059.169 155.669 C 2057.337 154.751, 2055.029 154, 2054.041 154 C 2053.053 154, 2051.685 153.325, 2051 152.500 C 2050.315 151.675, 2048.573 150.986, 2047.128 150.968 C 2045.682 150.951, 2043.626 150.276, 2042.559 149.468 C 2041.491 148.661, 2038.791 147.984, 2036.559 147.965 C 2034.326 147.945, 2031.375 147.286, 2030 146.500 C 2028.024 145.370, 2022.471 145.071, 2003.500 145.071 C 1984.529 145.071, 1978.976 145.370, 1977 146.500 M 925.441 147.468 C 924.374 148.276, 922.524 148.951, 921.332 148.968 C 917.033 149.031, 908.709 154.324, 901.377 161.655 C 897.265 165.767, 893.465 170.115, 892.933 171.316 C 892.402 172.517, 890.849 175.483, 889.483 177.907 C 888.117 180.331, 887 183.117, 887 184.098 C 887 185.079, 886.601 186.129, 886.113 186.430 C 885.626 186.731, 884.910 188.670, 884.524 190.739 C 884.137 192.808, 883.299 195.132, 882.661 195.904 C 881.869 196.860, 881.500 203.385, 881.500 216.404 C 881.500 232.951, 881.760 236.167, 883.448 240.500 C 889.520 256.087, 896.687 263.429, 910.487 268.201 C 916.876 270.411, 929.661 270.579, 933.636 268.506 C 935.211 267.685, 937.339 267.010, 938.366 267.006 C 941.193 266.997, 953.017 258.742, 957.922 253.353 C 962.529 248.291, 971 233.279, 971 230.177 C 971 229.163, 971.330 228.003, 971.734 227.599 C 974.672 224.662, 977.476 187.419, 975.127 182.530 C 974.591 181.413, 973.363 177.853, 972.398 174.617 C 970.421 167.991, 963.905 158.496, 958.864 154.896 C 953.903 151.353, 949.245 149, 947.195 149 C 946.198 149, 944.509 148.339, 943.441 147.532 C 940.777 145.517, 928.081 145.472, 925.441 147.468 M 1798 147.574 C 1796.625 147.811, 1792.125 148.493, 1788 149.091 C 1751.105 154.432, 1719.840 178.686, 1707.914 211.220 C 1703.182 224.128, 1702.499 228.784, 1702.520 248 C 1702.538 265.483, 1702.687 266.920, 1705.225 274.143 C 1712.591 295.108, 1728.243 312.300, 1748.276 321.429 C 1752.389 323.304, 1760.647 326.072, 1766.627 327.580 C 1802.056 336.515, 1844.749 324.430, 1868.543 298.731 C 1882.371 283.795, 1889.259 270.252, 1893.070 250.502 C 1900.946 209.694, 1885.028 174.674, 1851 157.945 C 1842.522 153.777, 1837.284 152.055, 1825.019 149.407 C 1818.173 147.929, 1802.216 146.846, 1798 147.574 M 1992 147.989 C 1964.362 150.951, 1944.909 160.178, 1935.111 174.974 C 1929.830 182.950, 1928.288 186.805, 1926.442 196.658 C 1922.261 218.974, 1931.957 238.567, 1952.176 248.655 C 1962.200 253.657, 1967.425 255.359, 1985.500 259.509 C 1999.507 262.725, 2003.392 264.192, 2006.721 267.521 C 2010.390 271.190, 2010.992 275.138, 2008.439 278.783 C 2004.686 284.142, 1992.673 286.724, 1979.654 284.971 C 1966.689 283.224, 1963.265 282.013, 1947 273.423 C 1945.625 272.697, 1942.101 270.054, 1939.168 267.551 C 1936.236 265.048, 1933.302 263, 1932.649 263 C 1931.574 263, 1924.168 270.295, 1907.619 287.654 C 1900.770 294.839, 1900.664 294.347, 1911 303.370 C 1931.038 320.863, 1958.320 330.492, 1987.500 330.369 C 2001.449 330.311, 2009.993 328.955, 2022.500 324.816 C 2044.710 317.466, 2058.009 305.325, 2064.472 286.500 C 2071.122 267.130, 2067.646 248.077, 2055.153 235.408 C 2046.142 226.272, 2034.387 221.317, 2008 215.535 C 1993.749 212.413, 1988.831 210.677, 1985.883 207.729 C 1982.418 204.265, 1982.141 200.362, 1985.092 196.610 C 1988.596 192.156, 1993.267 190.830, 2005.329 190.868 C 2020.072 190.913, 2030.761 194.281, 2046.236 203.755 C 2051.242 206.820, 2052.185 207.091, 2053.641 205.884 C 2056.411 203.586, 2080.002 173.761, 2079.976 172.589 C 2079.954 171.579, 2065.676 162.807, 2060 160.317 C 2051.895 156.761, 2041.717 153.018, 2036.500 151.675 C 2022.818 148.153, 2004.575 146.642, 1992 147.989 M 1340.438 149.100 C 1340.064 149.705, 1339.347 152.967, 1338.845 156.350 C 1335.969 175.697, 1334.836 184.442, 1334.160 192.500 C 1333.744 197.450, 1332.864 202.483, 1332.202 203.684 C 1331.541 204.886, 1331 209.295, 1331 213.484 C 1331 217.917, 1330.431 222.228, 1329.639 223.800 C 1328.891 225.285, 1328.011 230.129, 1327.685 234.565 C 1327.358 239.001, 1326.621 243.868, 1326.046 245.380 C 1325.471 246.893, 1325 251.054, 1325 254.627 C 1325 258.201, 1324.301 263.261, 1323.447 265.874 C 1321.463 271.939, 1321.822 297.603, 1323.966 303 C 1327.013 310.669, 1329.223 315, 1330.089 315 C 1330.590 315, 1331 315.502, 1331 316.116 C 1331 317.902, 1340.440 326.406, 1344.649 328.411 C 1346.767 329.419, 1349.774 330.865, 1351.331 331.622 C 1355.478 333.641, 1382.867 333.568, 1385.559 331.532 C 1386.626 330.724, 1388.486 330.049, 1389.691 330.032 C 1390.896 330.014, 1392.180 329.518, 1392.543 328.930 C 1392.907 328.341, 1394.037 327.552, 1395.055 327.176 C 1398.509 325.898, 1407.580 317.581, 1410.483 313.031 C 1416.303 303.908, 1419.673 295.945, 1420.510 289.337 C 1421.673 280.150, 1418.424 277.814, 1411 282.500 C 1405.793 285.787, 1404.029 285.657, 1400.196 281.702 C 1397.172 278.583, 1397 277.996, 1397 270.825 C 1397 266.349, 1397.614 261.774, 1398.500 259.654 C 1399.325 257.680, 1400.005 253.462, 1400.011 250.282 C 1400.017 247.102, 1400.692 242.291, 1401.511 239.591 C 1402.330 236.891, 1403 231.469, 1403 227.541 C 1403 223.446, 1403.496 219.904, 1404.163 219.237 C 1404.803 218.597, 1405.511 214.344, 1405.736 209.787 C 1405.961 205.229, 1406.788 199.803, 1407.573 197.730 C 1408.358 195.656, 1409 190.789, 1409 186.914 C 1409 183.039, 1409.474 178.983, 1410.053 177.902 C 1410.632 176.820, 1411.532 171.787, 1412.053 166.717 C 1412.574 161.648, 1413.281 155.761, 1413.623 153.635 C 1414.064 150.899, 1413.845 149.516, 1412.873 148.900 C 1410.762 147.563, 1341.270 147.755, 1340.438 149.100 M 1142.785 152.028 C 1113.043 158.440, 1090.088 180.625, 1078.660 214 C 1072.086 233.199, 1071.173 260.647, 1076.450 280.459 C 1077.908 285.937, 1079.474 290.887, 1079.929 291.459 C 1080.383 292.032, 1081.097 293.625, 1081.515 295 C 1082.860 299.427, 1091.938 312.688, 1096.507 316.899 C 1107.691 327.209, 1120.885 332.715, 1136.685 333.667 C 1150.732 334.514, 1161.420 331.444, 1174 322.951 C 1180.694 318.431, 1184.666 314.140, 1190.366 305.266 C 1196.825 295.212, 1203.630 276.297, 1201.541 274.208 C 1201.181 273.848, 1199.675 274.323, 1198.193 275.263 C 1188.560 281.377, 1182.543 283.488, 1173.729 283.845 C 1163.908 284.243, 1159.203 282.913, 1152.970 277.976 C 1140.669 268.234, 1137.875 242.489, 1147.043 223.369 C 1158.039 200.437, 1182.576 193.357, 1203.364 207.118 C 1212.007 212.839, 1212.295 212.671, 1211.698 202.250 C 1211.060 191.117, 1209.809 185.636, 1206.115 177.788 C 1199.835 164.449, 1186.596 155.060, 1169.230 151.632 C 1158.860 149.586, 1153.759 149.662, 1142.785 152.028 M 1344.187 151.275 C 1343.605 151.976, 1342.849 155.014, 1342.507 158.025 C 1341.926 163.133, 1341.316 167.455, 1337.497 193.500 C 1336.691 199, 1335.338 208.675, 1334.491 215 C 1333.644 221.325, 1332.524 228.975, 1332.001 232 C 1331.479 235.025, 1330.773 240.200, 1330.434 243.500 C 1330.094 246.800, 1329.217 253.100, 1328.483 257.500 C 1325.184 277.292, 1324.633 287.042, 1326.348 295.281 C 1331.053 317.874, 1345.998 330.294, 1368.500 330.311 C 1391.215 330.328, 1408.292 316.517, 1415.940 291.946 C 1417.579 286.680, 1417.633 285.796, 1416.348 285.303 C 1415.532 284.990, 1413.752 285.330, 1412.393 286.058 C 1411.033 286.785, 1407.637 287.346, 1404.847 287.304 C 1400.906 287.245, 1399.244 286.698, 1397.402 284.856 C 1392.709 280.164, 1392.733 271.576, 1397.530 239 C 1398.380 233.225, 1399.506 224.900, 1400.033 220.500 C 1400.559 216.100, 1401.260 211.375, 1401.589 210 C 1401.918 208.625, 1402.825 202.888, 1403.605 197.251 C 1404.384 191.615, 1405.723 182.165, 1406.581 176.251 C 1409.390 156.864, 1409.762 152.553, 1408.738 151.250 C 1407.299 149.420, 1345.707 149.444, 1344.187 151.275 M 1788.427 204.908 C 1778.653 209.851, 1772.408 217.178, 1768.322 228.500 C 1766.988 232.196, 1766.523 236.369, 1766.538 244.500 C 1766.563 257.359, 1768.175 262.029, 1774.804 268.445 C 1780.400 273.860, 1785.855 275.876, 1795.090 275.944 C 1801.603 275.992, 1803.540 275.570, 1808.738 272.973 C 1834.682 260.009, 1838.945 216.992, 1815.500 204.733 C 1812.640 203.238, 1809.079 202.527, 1803 202.240 C 1795.089 201.865, 1794.079 202.050, 1788.427 204.908 M 1176 205.037 C 1170.347 205.590, 1166.913 207.044, 1161.249 211.282 C 1157.375 214.181, 1151 222.289, 1151 224.318 C 1151 225.108, 1150.325 226.315, 1149.500 227 C 1148.675 227.685, 1148 229.344, 1148 230.688 C 1148 232.032, 1147.518 234.031, 1146.930 235.131 C 1145.558 237.695, 1145.493 258.142, 1146.850 260.620 C 1147.416 261.654, 1148.156 263.800, 1148.494 265.389 C 1148.842 267.027, 1151.422 270.538, 1154.450 273.494 C 1158.563 277.509, 1160.792 278.887, 1164.145 279.484 C 1176.082 281.611, 1183.811 279.814, 1195.276 272.250 C 1200.727 268.653, 1204.405 268.114, 1205.853 270.702 C 1206.573 271.989, 1206.958 270.953, 1207.429 266.452 C 1207.772 263.178, 1208.718 258.475, 1209.531 256 C 1210.344 253.525, 1211.014 248.575, 1211.020 245 C 1211.026 241.425, 1211.679 236.700, 1212.471 234.500 C 1213.264 232.300, 1213.932 227.090, 1213.956 222.923 L 1214 215.346 1211.196 215.758 C 1209.068 216.070, 1207.321 215.274, 1203.946 212.452 C 1201.501 210.407, 1198.375 208.240, 1197 207.637 C 1195.625 207.034, 1194.275 206.252, 1194 205.899 C 1193.257 204.947, 1182.296 204.421, 1176 205.037 M 1793.500 206.872 C 1783.281 211.124, 1779.746 214.342, 1775.234 223.500 C 1769.394 235.351, 1767.925 244.703, 1770.615 252.897 C 1773.964 263.101, 1778.804 268.909, 1785.320 270.544 C 1786.805 270.917, 1788.266 271.622, 1788.568 272.111 C 1789.488 273.599, 1797.926 273.106, 1803.296 271.250 C 1809.403 269.139, 1819.051 260.628, 1821.436 255.246 C 1822.350 253.186, 1823.610 250.600, 1824.236 249.500 C 1824.863 248.400, 1825.570 242.257, 1825.807 235.849 C 1826.201 225.248, 1826.035 223.789, 1823.972 219.658 C 1817.988 207.676, 1804.833 202.156, 1793.500 206.872" stroke="none" fill="#1363df" fill-rule="evenodd"/></svg>
