<svg xmlns="http://www.w3.org/2000/svg" width="512" height="512" viewBox="0 0 512 512" version="1.1"><path d="M 233 80.088 C 195.319 84.924, 160.729 101.751, 132.653 128.903 C 106.179 154.505, 89.163 185.731, 81.789 222.245 C 79.826 231.966, 79.516 236.567, 79.516 256 C 79.516 275.377, 79.829 280.048, 81.770 289.653 C 89.109 325.979, 106.111 357.327, 132.141 382.530 C 153.564 403.273, 173.815 415.661, 200.500 424.349 C 221.766 431.272, 229.650 432.419, 256 432.419 C 276.567 432.419, 280.811 432.138, 290 430.174 C 328.050 422.041, 358.486 405.189, 384.583 377.804 C 413.368 347.600, 430.483 308.534, 432.658 268.070 L 433.307 256 389.300 256 L 345.293 256 344.675 263.250 C 341.477 300.763, 315.228 332.061, 278.500 342.152 C 267.032 345.303, 244.991 345.307, 233.500 342.159 C 202.251 333.600, 178.446 309.793, 169.848 278.500 C 166.693 267.017, 166.693 244.983, 169.848 233.500 C 179.939 196.772, 211.237 170.523, 248.750 167.325 L 256 166.707 256 122.853 L 256 79 247.750 79.127 C 243.213 79.197, 236.575 79.629, 233 80.088 M 300.243 145.250 L 300.500 211.500 366.750 211.757 L 433 212.014 433 145.507 L 433 79 366.493 79 L 299.986 79 300.243 145.250" stroke="none" fill="#fafbfb" fill-rule="evenodd"/><path d="M 0 256.002 L 0 512.004 256.250 511.752 L 512.500 511.500 512.752 255.750 L 513.004 0 256.502 0 L 0 0 0 256.002 M 0.492 256.500 C 0.492 397.300, 0.608 454.751, 0.750 384.170 C 0.892 313.588, 0.892 198.388, 0.750 128.170 C 0.608 57.951, 0.492 115.700, 0.492 256.500 M 233 80.088 C 195.319 84.924, 160.729 101.751, 132.653 128.903 C 106.179 154.505, 89.163 185.731, 81.789 222.245 C 79.826 231.966, 79.516 236.567, 79.516 256 C 79.516 275.377, 79.829 280.048, 81.770 289.653 C 89.109 325.979, 106.111 357.327, 132.141 382.530 C 153.564 403.273, 173.815 415.661, 200.500 424.349 C 221.766 431.272, 229.650 432.419, 256 432.419 C 276.567 432.419, 280.811 432.138, 290 430.174 C 328.050 422.041, 358.486 405.189, 384.583 377.804 C 413.368 347.600, 430.483 308.534, 432.658 268.070 L 433.307 256 389.300 256 L 345.293 256 344.675 263.250 C 341.477 300.763, 315.228 332.061, 278.500 342.152 C 267.032 345.303, 244.991 345.307, 233.500 342.159 C 202.251 333.600, 178.446 309.793, 169.848 278.500 C 166.693 267.017, 166.693 244.983, 169.848 233.500 C 179.939 196.772, 211.237 170.523, 248.750 167.325 L 256 166.707 256 122.853 L 256 79 247.750 79.127 C 243.213 79.197, 236.575 79.629, 233 80.088 M 300.243 145.250 L 300.500 211.500 366.750 211.757 L 433 212.014 433 145.507 L 433 79 366.493 79 L 299.986 79 300.243 145.250" stroke="none" fill="#1464db" fill-rule="evenodd"/></svg>
