<svg xmlns="http://www.w3.org/2000/svg" width="2560" height="2560" viewBox="0 0 2560 2560" version="1.1"><path d="M 698.284 948.200 C 697.709 948.915, 677.335 989.325, 653.008 1038 C 628.681 1086.675, 553.930 1235.890, 486.894 1369.589 C 419.858 1503.287, 365.308 1612.975, 365.672 1613.339 C 366.531 1614.197, 1032.460 1614.207, 1033.319 1613.348 C 1033.988 1612.679, 702.712 950.544, 700.535 948.200 C 699.545 947.133, 699.141 947.133, 698.284 948.200 M 1038.500 1182.097 C 1023.994 1183.165, 1009.673 1186.890, 998.075 1192.611 C 990.387 1196.404, 987.161 1198.758, 980.575 1205.380 C 971.262 1214.745, 966.941 1221.578, 962.876 1233.373 C 954.312 1258.219, 955.380 1294.849, 965.322 1317.222 C 977.173 1343.890, 1001.566 1358.819, 1038.483 1361.999 C 1081.457 1365.699, 1115.392 1352.516, 1131.608 1325.822 C 1140.082 1311.872, 1144 1294.856, 1144 1272 C 1144 1243.756, 1138.354 1225.142, 1124.874 1208.944 C 1112.807 1194.444, 1089.969 1184.057, 1066.696 1182.484 C 1062.188 1182.179, 1056.475 1181.785, 1054 1181.608 C 1051.525 1181.431, 1044.550 1181.651, 1038.500 1182.097 M 1707.500 1182.095 C 1664.646 1185.346, 1639.085 1204.510, 1629.229 1240.776 C 1626.764 1249.844, 1626.583 1251.951, 1626.543 1272 C 1626.502 1292.404, 1626.639 1293.995, 1629.214 1303.203 C 1635.319 1325.032, 1646.462 1340.112, 1664.011 1350.293 C 1690.963 1365.929, 1742.078 1366.623, 1771.945 1351.759 C 1784.266 1345.627, 1797.061 1332.904, 1802.877 1321 C 1805.161 1316.325, 1808.225 1308, 1809.685 1302.500 C 1812.146 1293.228, 1812.339 1291.007, 1812.339 1272 C 1812.339 1252.958, 1812.150 1250.792, 1809.677 1241.552 C 1801.711 1211.785, 1782.770 1192.820, 1753.836 1185.637 C 1739.915 1182.182, 1723.199 1180.904, 1707.500 1182.095 M 1509.500 1183.116 C 1498.394 1184.729, 1487.621 1187.986, 1478.152 1192.592 C 1470.464 1196.332, 1467.237 1198.665, 1460.523 1205.335 C 1448.134 1217.643, 1441.863 1230.596, 1438.469 1250.892 C 1435.967 1265.858, 1436.812 1289.807, 1440.315 1303.182 C 1445.787 1324.079, 1456.618 1339.337, 1472.805 1348.953 C 1488.275 1358.144, 1506.267 1362.284, 1530.500 1362.228 C 1558.719 1362.164, 1579.719 1355.249, 1595.503 1340.823 C 1604.076 1332.988, 1614.639 1316.158, 1612.344 1313.991 C 1611.880 1313.552, 1602.050 1309.298, 1590.500 1304.537 L 1569.500 1295.881 1567.511 1298.690 C 1562.573 1305.665, 1554.277 1312.753, 1548.430 1314.994 C 1537.123 1319.326, 1520.706 1318.462, 1509.937 1312.968 C 1494.382 1305.033, 1487.027 1283.558, 1491.423 1258.916 C 1495.296 1237.206, 1508.386 1226.551, 1531 1226.701 C 1538.238 1226.749, 1541.866 1227.284, 1546.239 1228.950 C 1554.323 1232.029, 1560.822 1236.800, 1564.776 1242.558 C 1566.642 1245.276, 1568.603 1247.657, 1569.133 1247.850 C 1570.485 1248.340, 1613 1230.837, 1613 1229.790 C 1613 1229.319, 1611.921 1226.804, 1610.602 1224.202 C 1600 1203.280, 1577.774 1188.311, 1550.119 1183.468 C 1541.009 1181.872, 1519.350 1181.684, 1509.500 1183.116 M 1169.219 1185.237 C 1168.262 1186.389, 1168.046 1205.913, 1168.244 1273.109 L 1168.500 1359.500 1206 1359.796 C 1226.625 1359.958, 1249.125 1359.635, 1256 1359.078 C 1309.171 1354.765, 1333 1327.818, 1333 1272 C 1333 1220.591, 1313.073 1194.135, 1268.500 1186.367 C 1255.128 1184.037, 1171.009 1183.079, 1169.219 1185.237 M 1360.667 1184.667 C 1360.300 1185.033, 1360 1224.641, 1360 1272.683 L 1360 1360.033 1386.250 1359.767 L 1412.500 1359.500 1412.756 1272.562 C 1412.958 1203.674, 1412.750 1185.459, 1411.756 1184.828 C 1410.244 1183.868, 1361.618 1183.715, 1360.667 1184.667 M 1837.460 1185.250 C 1837.198 1185.938, 1837.100 1225.425, 1837.242 1273 L 1837.500 1359.500 1882 1359.500 C 1930.534 1359.500, 1936.672 1359.016, 1952.500 1353.937 C 1975.737 1346.480, 1990.596 1331.254, 1997.328 1308 C 2003.282 1287.432, 2003.540 1258.852, 1997.956 1238.211 C 1988.835 1204.491, 1965.676 1188.119, 1922.744 1185.041 C 1901.367 1183.508, 1838.066 1183.663, 1837.460 1185.250 M 2022.674 1184.660 C 2022.303 1185.030, 2022 1224.633, 2022 1272.667 L 2022 1360 2091.500 1360 L 2161 1360 2161 1338.500 L 2161 1317 2117.968 1317 L 2074.937 1317 2075.218 1305.250 L 2075.500 1293.500 2113.500 1293 L 2151.500 1292.500 2151.649 1273.069 C 2151.731 1262.382, 2151.570 1253.044, 2151.292 1252.319 C 2150.886 1251.261, 2143.613 1251, 2114.475 1251 C 2094.504 1251, 2077.452 1250.727, 2076.582 1250.393 C 2075.267 1249.889, 2075 1247.859, 2075 1238.393 L 2075 1227 2118.020 1227 L 2161.040 1227 2160.770 1205.750 L 2160.500 1184.500 2091.924 1184.243 C 2054.206 1184.102, 2023.044 1184.289, 2022.674 1184.660 M 1040 1227.362 C 1020.032 1231.700, 1011 1245.602, 1011 1272 C 1011 1299.807, 1021.097 1313.796, 1043.583 1317.140 C 1057.334 1319.185, 1070.674 1315.614, 1078.834 1307.702 C 1084.456 1302.252, 1087.788 1295.611, 1089.567 1286.313 C 1093.336 1266.614, 1089.210 1246.276, 1079.467 1236.533 C 1070.628 1227.695, 1055.090 1224.084, 1040 1227.362 M 1709.344 1226.975 C 1696.995 1229.616, 1687.102 1237.788, 1682.982 1248.753 C 1678.016 1261.966, 1678.016 1282.034, 1682.982 1295.247 C 1685.800 1302.746, 1693.348 1311.043, 1699.927 1313.873 C 1716.360 1320.942, 1738.634 1317.788, 1748.368 1307.014 C 1756.081 1298.477, 1759.106 1288.614, 1759.106 1272 C 1759.106 1248.779, 1751.621 1234.745, 1736.147 1228.953 C 1729.778 1226.569, 1715.998 1225.552, 1709.344 1226.975 M 1222 1272.122 L 1222 1317.243 1237.250 1316.772 C 1250.013 1316.377, 1253.469 1315.926, 1258.441 1314.007 C 1266.382 1310.941, 1272.987 1304.314, 1275.947 1296.441 C 1282.724 1278.417, 1280.265 1250.047, 1270.947 1238.749 C 1263.866 1230.164, 1254.331 1227.029, 1235.250 1227.012 L 1222 1227 1222 1272.122 M 1890.647 1228.478 C 1889.827 1230.614, 1889.789 1313.288, 1890.607 1315.418 C 1891.113 1316.737, 1893.180 1317, 1903.058 1317 C 1921.165 1317, 1930.237 1314.415, 1937.491 1307.190 C 1944.956 1299.755, 1948.077 1289.581, 1948.077 1272.686 C 1948.077 1253.782, 1944.777 1243.581, 1936.154 1235.828 C 1928.606 1229.042, 1924.266 1227.791, 1906.397 1227.250 C 1892.898 1226.842, 1891.225 1226.972, 1890.647 1228.478 M 1759.724 1386.527 C 1749.850 1390.152, 1742.215 1398.972, 1739.407 1410 C 1735.583 1425.013, 1742.835 1440.277, 1756.933 1446.889 C 1761.643 1449.098, 1763.886 1449.500, 1771.500 1449.500 C 1779.317 1449.500, 1781.244 1449.135, 1786.161 1446.720 C 1797.349 1441.226, 1804.246 1430.113, 1804.191 1417.667 C 1804.126 1403.021, 1796.575 1391.851, 1783.230 1386.661 C 1777.990 1384.623, 1765.111 1384.550, 1759.724 1386.527 M 1816.236 1417.169 L 1816.500 1448.500 1833.500 1448.500 C 1850.095 1448.500, 1850.636 1448.433, 1856.203 1445.700 C 1868.301 1439.758, 1874.736 1428.536, 1873.772 1415.059 C 1872.926 1403.230, 1866.800 1394.082, 1856.236 1388.871 C 1851.916 1386.740, 1849.938 1386.504, 1833.736 1386.186 L 1815.971 1385.838 1816.236 1417.169 M 1886 1417.546 L 1886 1449.091 1892.750 1448.796 L 1899.500 1448.500 1899.764 1417.250 L 1900.028 1386 1893.014 1386 L 1886 1386 1886 1417.546 M 1911.032 1386.750 C 1911.049 1387.162, 1916.592 1401.225, 1923.349 1418 L 1935.634 1448.500 1942.004 1448.500 L 1948.374 1448.500 1960.653 1418 C 1967.407 1401.225, 1972.948 1387.143, 1972.966 1386.706 C 1972.985 1386.270, 1969.747 1386.045, 1965.770 1386.206 L 1958.540 1386.500 1950.615 1407.713 C 1946.256 1419.380, 1942.389 1428.740, 1942.022 1428.513 C 1941.654 1428.286, 1937.828 1418.628, 1933.519 1407.050 L 1925.684 1386 1918.342 1386 C 1914.304 1386, 1911.014 1386.338, 1911.032 1386.750 M 1982 1417.482 L 1982 1449 2006 1449 L 2030 1449 2030 1443 L 2030 1437 2013 1437 L 1996 1437 1996 1430.500 L 1996 1424 2010.500 1424 L 2025 1424 2025 1417.500 L 2025 1411 2010.500 1411 L 1996 1411 1996 1404.524 L 1996 1398.048 2012.750 1397.774 L 2029.500 1397.500 2029.500 1392 L 2029.500 1386.500 2005.750 1386.232 L 1982 1385.964 1982 1417.482 M 2037.601 1387.250 C 2037.996 1387.938, 2042.559 1394.718, 2047.740 1402.318 C 2053.507 1410.775, 2056.936 1416.725, 2056.580 1417.653 C 2056.259 1418.488, 2051.797 1425.320, 2046.664 1432.835 C 2041.531 1440.351, 2037.005 1447.063, 2036.607 1447.750 C 2036.053 1448.706, 2037.720 1448.995, 2043.691 1448.980 L 2051.500 1448.961 2056.761 1440.578 C 2059.655 1435.967, 2062.871 1431.146, 2063.909 1429.864 L 2065.796 1427.534 2072.648 1438.248 L 2079.500 1448.962 2087.250 1448.981 C 2091.512 1448.991, 2095 1448.734, 2095 1448.409 C 2095 1448.083, 2090.219 1440.832, 2084.375 1432.294 L 2073.750 1416.771 2083.875 1401.942 C 2089.444 1393.786, 2094 1386.862, 2094 1386.556 C 2094 1386.250, 2090.648 1386, 2086.551 1386 L 2079.103 1386 2072.949 1395.500 C 2069.564 1400.725, 2066.374 1405, 2065.860 1405 C 2065.345 1405, 2062.189 1400.725, 2058.846 1395.500 L 2052.768 1386 2044.825 1386 C 2038.754 1386, 2037.051 1386.295, 2037.601 1387.250 M 1765.500 1398.064 C 1755.865 1400.901, 1750.173 1415.299, 1754.548 1425.768 C 1757.703 1433.321, 1763.539 1437.286, 1771.500 1437.286 C 1780.315 1437.286, 1786.633 1432.139, 1789.089 1422.957 C 1793.214 1407.536, 1780.150 1393.750, 1765.500 1398.064 M 1830.445 1399.284 C 1830.174 1399.990, 1830.075 1408.652, 1830.226 1418.534 L 1830.500 1436.500 1837.500 1436.435 C 1846.364 1436.352, 1849.088 1435.638, 1852.959 1432.381 C 1857.569 1428.502, 1859.346 1424.361, 1859.346 1417.500 C 1859.346 1408.568, 1855.654 1402.842, 1847.768 1399.548 C 1843.159 1397.622, 1831.153 1397.439, 1830.445 1399.284 M 1032 1402.733 C 1030.625 1402.991, 1029.169 1403.719, 1028.765 1404.351 C 1027.491 1406.344, 1027.869 1428.469, 1029.200 1429.800 C 1030.129 1430.729, 1108.340 1431, 1375.129 1431 C 1687.185 1431, 1720.006 1430.851, 1721.429 1429.429 C 1723.784 1427.073, 1723.716 1405.839, 1721.346 1403.872 C 1719.952 1402.716, 1665.879 1402.482, 1377.096 1402.383 C 1188.668 1402.318, 1033.375 1402.476, 1032 1402.733" stroke="none" fill="#060606" fill-rule="evenodd"/><path d="M -0 1280 L -0 2560.001 1280.250 2559.750 L 2560.500 2559.500 2560.750 1279.750 L 2561.001 0 1280.500 0 L 0 0 -0 1280 M 0.498 1280.500 C 0.498 1984.500, 0.612 2272.350, 0.750 1920.167 C 0.888 1567.984, 0.888 991.984, 0.750 640.167 C 0.612 288.350, 0.498 576.500, 0.498 1280.500 M 698.284 948.200 C 697.709 948.915, 677.335 989.325, 653.008 1038 C 628.681 1086.675, 553.930 1235.890, 486.894 1369.589 C 419.858 1503.287, 365.308 1612.975, 365.672 1613.339 C 366.531 1614.197, 1032.460 1614.207, 1033.319 1613.348 C 1033.988 1612.679, 702.712 950.544, 700.535 948.200 C 699.545 947.133, 699.141 947.133, 698.284 948.200 M 1038.500 1182.097 C 1023.994 1183.165, 1009.673 1186.890, 998.075 1192.611 C 990.387 1196.404, 987.161 1198.758, 980.575 1205.380 C 971.262 1214.745, 966.941 1221.578, 962.876 1233.373 C 954.312 1258.219, 955.380 1294.849, 965.322 1317.222 C 977.173 1343.890, 1001.566 1358.819, 1038.483 1361.999 C 1081.457 1365.699, 1115.392 1352.516, 1131.608 1325.822 C 1140.082 1311.872, 1144 1294.856, 1144 1272 C 1144 1243.756, 1138.354 1225.142, 1124.874 1208.944 C 1112.807 1194.444, 1089.969 1184.057, 1066.696 1182.484 C 1062.188 1182.179, 1056.475 1181.785, 1054 1181.608 C 1051.525 1181.431, 1044.550 1181.651, 1038.500 1182.097 M 1707.500 1182.095 C 1664.646 1185.346, 1639.085 1204.510, 1629.229 1240.776 C 1626.764 1249.844, 1626.583 1251.951, 1626.543 1272 C 1626.502 1292.404, 1626.639 1293.995, 1629.214 1303.203 C 1635.319 1325.032, 1646.462 1340.112, 1664.011 1350.293 C 1690.963 1365.929, 1742.078 1366.623, 1771.945 1351.759 C 1784.266 1345.627, 1797.061 1332.904, 1802.877 1321 C 1805.161 1316.325, 1808.225 1308, 1809.685 1302.500 C 1812.146 1293.228, 1812.339 1291.007, 1812.339 1272 C 1812.339 1252.958, 1812.150 1250.792, 1809.677 1241.552 C 1801.711 1211.785, 1782.770 1192.820, 1753.836 1185.637 C 1739.915 1182.182, 1723.199 1180.904, 1707.500 1182.095 M 1509.500 1183.116 C 1498.394 1184.729, 1487.621 1187.986, 1478.152 1192.592 C 1470.464 1196.332, 1467.237 1198.665, 1460.523 1205.335 C 1448.134 1217.643, 1441.863 1230.596, 1438.469 1250.892 C 1435.967 1265.858, 1436.812 1289.807, 1440.315 1303.182 C 1445.787 1324.079, 1456.618 1339.337, 1472.805 1348.953 C 1488.275 1358.144, 1506.267 1362.284, 1530.500 1362.228 C 1558.719 1362.164, 1579.719 1355.249, 1595.503 1340.823 C 1604.076 1332.988, 1614.639 1316.158, 1612.344 1313.991 C 1611.880 1313.552, 1602.050 1309.298, 1590.500 1304.537 L 1569.500 1295.881 1567.511 1298.690 C 1562.573 1305.665, 1554.277 1312.753, 1548.430 1314.994 C 1537.123 1319.326, 1520.706 1318.462, 1509.937 1312.968 C 1494.382 1305.033, 1487.027 1283.558, 1491.423 1258.916 C 1495.296 1237.206, 1508.386 1226.551, 1531 1226.701 C 1538.238 1226.749, 1541.866 1227.284, 1546.239 1228.950 C 1554.323 1232.029, 1560.822 1236.800, 1564.776 1242.558 C 1566.642 1245.276, 1568.603 1247.657, 1569.133 1247.850 C 1570.485 1248.340, 1613 1230.837, 1613 1229.790 C 1613 1229.319, 1611.921 1226.804, 1610.602 1224.202 C 1600 1203.280, 1577.774 1188.311, 1550.119 1183.468 C 1541.009 1181.872, 1519.350 1181.684, 1509.500 1183.116 M 1169.219 1185.237 C 1168.262 1186.389, 1168.046 1205.913, 1168.244 1273.109 L 1168.500 1359.500 1206 1359.796 C 1226.625 1359.958, 1249.125 1359.635, 1256 1359.078 C 1309.171 1354.765, 1333 1327.818, 1333 1272 C 1333 1220.591, 1313.073 1194.135, 1268.500 1186.367 C 1255.128 1184.037, 1171.009 1183.079, 1169.219 1185.237 M 1360.667 1184.667 C 1360.300 1185.033, 1360 1224.641, 1360 1272.683 L 1360 1360.033 1386.250 1359.767 L 1412.500 1359.500 1412.756 1272.562 C 1412.958 1203.674, 1412.750 1185.459, 1411.756 1184.828 C 1410.244 1183.868, 1361.618 1183.715, 1360.667 1184.667 M 1837.460 1185.250 C 1837.198 1185.938, 1837.100 1225.425, 1837.242 1273 L 1837.500 1359.500 1882 1359.500 C 1930.534 1359.500, 1936.672 1359.016, 1952.500 1353.937 C 1975.737 1346.480, 1990.596 1331.254, 1997.328 1308 C 2003.282 1287.432, 2003.540 1258.852, 1997.956 1238.211 C 1988.835 1204.491, 1965.676 1188.119, 1922.744 1185.041 C 1901.367 1183.508, 1838.066 1183.663, 1837.460 1185.250 M 2022.674 1184.660 C 2022.303 1185.030, 2022 1224.633, 2022 1272.667 L 2022 1360 2091.500 1360 L 2161 1360 2161 1338.500 L 2161 1317 2117.968 1317 L 2074.937 1317 2075.218 1305.250 L 2075.500 1293.500 2113.500 1293 L 2151.500 1292.500 2151.649 1273.069 C 2151.731 1262.382, 2151.570 1253.044, 2151.292 1252.319 C 2150.886 1251.261, 2143.613 1251, 2114.475 1251 C 2094.504 1251, 2077.452 1250.727, 2076.582 1250.393 C 2075.267 1249.889, 2075 1247.859, 2075 1238.393 L 2075 1227 2118.020 1227 L 2161.040 1227 2160.770 1205.750 L 2160.500 1184.500 2091.924 1184.243 C 2054.206 1184.102, 2023.044 1184.289, 2022.674 1184.660 M 1040 1227.362 C 1020.032 1231.700, 1011 1245.602, 1011 1272 C 1011 1299.807, 1021.097 1313.796, 1043.583 1317.140 C 1057.334 1319.185, 1070.674 1315.614, 1078.834 1307.702 C 1084.456 1302.252, 1087.788 1295.611, 1089.567 1286.313 C 1093.336 1266.614, 1089.210 1246.276, 1079.467 1236.533 C 1070.628 1227.695, 1055.090 1224.084, 1040 1227.362 M 1709.344 1226.975 C 1696.995 1229.616, 1687.102 1237.788, 1682.982 1248.753 C 1678.016 1261.966, 1678.016 1282.034, 1682.982 1295.247 C 1685.800 1302.746, 1693.348 1311.043, 1699.927 1313.873 C 1716.360 1320.942, 1738.634 1317.788, 1748.368 1307.014 C 1756.081 1298.477, 1759.106 1288.614, 1759.106 1272 C 1759.106 1248.779, 1751.621 1234.745, 1736.147 1228.953 C 1729.778 1226.569, 1715.998 1225.552, 1709.344 1226.975 M 1222 1272.122 L 1222 1317.243 1237.250 1316.772 C 1250.013 1316.377, 1253.469 1315.926, 1258.441 1314.007 C 1266.382 1310.941, 1272.987 1304.314, 1275.947 1296.441 C 1282.724 1278.417, 1280.265 1250.047, 1270.947 1238.749 C 1263.866 1230.164, 1254.331 1227.029, 1235.250 1227.012 L 1222 1227 1222 1272.122 M 1890.647 1228.478 C 1889.827 1230.614, 1889.789 1313.288, 1890.607 1315.418 C 1891.113 1316.737, 1893.180 1317, 1903.058 1317 C 1921.165 1317, 1930.237 1314.415, 1937.491 1307.190 C 1944.956 1299.755, 1948.077 1289.581, 1948.077 1272.686 C 1948.077 1253.782, 1944.777 1243.581, 1936.154 1235.828 C 1928.606 1229.042, 1924.266 1227.791, 1906.397 1227.250 C 1892.898 1226.842, 1891.225 1226.972, 1890.647 1228.478 M 1759.724 1386.527 C 1749.850 1390.152, 1742.215 1398.972, 1739.407 1410 C 1735.583 1425.013, 1742.835 1440.277, 1756.933 1446.889 C 1761.643 1449.098, 1763.886 1449.500, 1771.500 1449.500 C 1779.317 1449.500, 1781.244 1449.135, 1786.161 1446.720 C 1797.349 1441.226, 1804.246 1430.113, 1804.191 1417.667 C 1804.126 1403.021, 1796.575 1391.851, 1783.230 1386.661 C 1777.990 1384.623, 1765.111 1384.550, 1759.724 1386.527 M 1816.236 1417.169 L 1816.500 1448.500 1833.500 1448.500 C 1850.095 1448.500, 1850.636 1448.433, 1856.203 1445.700 C 1868.301 1439.758, 1874.736 1428.536, 1873.772 1415.059 C 1872.926 1403.230, 1866.800 1394.082, 1856.236 1388.871 C 1851.916 1386.740, 1849.938 1386.504, 1833.736 1386.186 L 1815.971 1385.838 1816.236 1417.169 M 1886 1417.546 L 1886 1449.091 1892.750 1448.796 L 1899.500 1448.500 1899.764 1417.250 L 1900.028 1386 1893.014 1386 L 1886 1386 1886 1417.546 M 1911.032 1386.750 C 1911.049 1387.162, 1916.592 1401.225, 1923.349 1418 L 1935.634 1448.500 1942.004 1448.500 L 1948.374 1448.500 1960.653 1418 C 1967.407 1401.225, 1972.948 1387.143, 1972.966 1386.706 C 1972.985 1386.270, 1969.747 1386.045, 1965.770 1386.206 L 1958.540 1386.500 1950.615 1407.713 C 1946.256 1419.380, 1942.389 1428.740, 1942.022 1428.513 C 1941.654 1428.286, 1937.828 1418.628, 1933.519 1407.050 L 1925.684 1386 1918.342 1386 C 1914.304 1386, 1911.014 1386.338, 1911.032 1386.750 M 1982 1417.482 L 1982 1449 2006 1449 L 2030 1449 2030 1443 L 2030 1437 2013 1437 L 1996 1437 1996 1430.500 L 1996 1424 2010.500 1424 L 2025 1424 2025 1417.500 L 2025 1411 2010.500 1411 L 1996 1411 1996 1404.524 L 1996 1398.048 2012.750 1397.774 L 2029.500 1397.500 2029.500 1392 L 2029.500 1386.500 2005.750 1386.232 L 1982 1385.964 1982 1417.482 M 2037.601 1387.250 C 2037.996 1387.938, 2042.559 1394.718, 2047.740 1402.318 C 2053.507 1410.775, 2056.936 1416.725, 2056.580 1417.653 C 2056.259 1418.488, 2051.797 1425.320, 2046.664 1432.835 C 2041.531 1440.351, 2037.005 1447.063, 2036.607 1447.750 C 2036.053 1448.706, 2037.720 1448.995, 2043.691 1448.980 L 2051.500 1448.961 2056.761 1440.578 C 2059.655 1435.967, 2062.871 1431.146, 2063.909 1429.864 L 2065.796 1427.534 2072.648 1438.248 L 2079.500 1448.962 2087.250 1448.981 C 2091.512 1448.991, 2095 1448.734, 2095 1448.409 C 2095 1448.083, 2090.219 1440.832, 2084.375 1432.294 L 2073.750 1416.771 2083.875 1401.942 C 2089.444 1393.786, 2094 1386.862, 2094 1386.556 C 2094 1386.250, 2090.648 1386, 2086.551 1386 L 2079.103 1386 2072.949 1395.500 C 2069.564 1400.725, 2066.374 1405, 2065.860 1405 C 2065.345 1405, 2062.189 1400.725, 2058.846 1395.500 L 2052.768 1386 2044.825 1386 C 2038.754 1386, 2037.051 1386.295, 2037.601 1387.250 M 1765.500 1398.064 C 1755.865 1400.901, 1750.173 1415.299, 1754.548 1425.768 C 1757.703 1433.321, 1763.539 1437.286, 1771.500 1437.286 C 1780.315 1437.286, 1786.633 1432.139, 1789.089 1422.957 C 1793.214 1407.536, 1780.150 1393.750, 1765.500 1398.064 M 1830.445 1399.284 C 1830.174 1399.990, 1830.075 1408.652, 1830.226 1418.534 L 1830.500 1436.500 1837.500 1436.435 C 1846.364 1436.352, 1849.088 1435.638, 1852.959 1432.381 C 1857.569 1428.502, 1859.346 1424.361, 1859.346 1417.500 C 1859.346 1408.568, 1855.654 1402.842, 1847.768 1399.548 C 1843.159 1397.622, 1831.153 1397.439, 1830.445 1399.284 M 1032 1402.733 C 1030.625 1402.991, 1029.169 1403.719, 1028.765 1404.351 C 1027.491 1406.344, 1027.869 1428.469, 1029.200 1429.800 C 1030.129 1430.729, 1108.340 1431, 1375.129 1431 C 1687.185 1431, 1720.006 1430.851, 1721.429 1429.429 C 1723.784 1427.073, 1723.716 1405.839, 1721.346 1403.872 C 1719.952 1402.716, 1665.879 1402.482, 1377.096 1402.383 C 1188.668 1402.318, 1033.375 1402.476, 1032 1402.733" stroke="none" fill="#fbfbfb" fill-rule="evenodd"/></svg>