<svg xmlns="http://www.w3.org/2000/svg" width="2560" height="2560" viewBox="0 0 2560 2560" version="1.1"><path d="M 1281.221 706.250 C 1279.897 707.867, 1259 743.031, 1259 743.642 C 1259 743.898, 1257.043 747.120, 1254.651 750.803 C 1252.259 754.486, 1249.061 759.750, 1247.544 762.500 C 1243.637 769.583, 1231.275 790.563, 1227.511 796.500 C 1222.876 803.812, 1215.374 816.371, 1205.110 834 C 1203.349 837.025, 1200.204 842.200, 1198.121 845.500 C 1196.038 848.800, 1192.836 854.200, 1191.006 857.500 C 1189.176 860.800, 1185.694 866.650, 1183.270 870.500 C 1180.845 874.350, 1173.913 886.050, 1167.864 896.500 C 1157.604 914.226, 1150.820 925.610, 1145.518 934 C 1144.301 935.925, 1137.545 947.400, 1130.504 959.500 C 1123.463 971.600, 1116.035 984.200, 1113.998 987.500 C 1109.599 994.624, 1105.406 1001.604, 1102.084 1007.333 C 1100.755 1009.625, 1096.480 1016.855, 1092.584 1023.399 C 1088.688 1029.944, 1084.819 1036.469, 1083.988 1037.899 C 1083.156 1039.330, 1079.511 1045.450, 1075.887 1051.500 C 1067.855 1064.911, 1057.274 1082.997, 1049.386 1096.800 C 1042.062 1109.616, 1042.742 1108.461, 1028.019 1133.053 C 1021.285 1144.299, 1013.960 1156.650, 1011.740 1160.500 C 1009.520 1164.350, 1006.195 1169.856, 1004.352 1172.735 C 998.499 1181.875, 1000.503 1183.886, 1010.799 1179.204 C 1014.484 1177.528, 1024.700 1172.948, 1033.500 1169.027 C 1042.300 1165.106, 1052.200 1160.505, 1055.500 1158.802 C 1058.800 1157.099, 1065.550 1154.015, 1070.500 1151.948 C 1075.450 1149.882, 1084.675 1145.867, 1091 1143.026 C 1097.325 1140.185, 1113.525 1133.338, 1127 1127.809 C 1140.475 1122.280, 1153.300 1116.944, 1155.500 1115.950 C 1160.750 1113.578, 1172.198 1108.989, 1184 1104.524 C 1201.754 1097.807, 1203.619 1096.550, 1209.254 1087.500 C 1210.623 1085.300, 1219.564 1073.021, 1229.122 1060.214 C 1238.680 1047.406, 1248.678 1033.906, 1251.339 1030.214 C 1264.750 1011.609, 1283.090 987.470, 1284.061 987.146 C 1284.664 986.945, 1285.910 987.808, 1286.829 989.063 C 1290.916 994.647, 1294.819 1000.159, 1298.888 1006.097 C 1301.302 1009.619, 1305.452 1015.425, 1308.111 1019 C 1314.890 1028.115, 1348.724 1074.635, 1356.584 1085.646 C 1360.174 1090.676, 1363.919 1095.522, 1364.905 1096.414 C 1365.891 1097.306, 1371.828 1100.076, 1378.099 1102.569 C 1409.564 1115.080, 1465.286 1138.494, 1481 1145.808 C 1484.575 1147.472, 1492.225 1150.856, 1498 1153.329 C 1509.731 1158.352, 1540.637 1172.745, 1551.725 1178.349 C 1559.595 1182.326, 1562.730 1182.867, 1563.673 1180.409 C 1564.517 1178.210, 1561.966 1173.391, 1544.867 1144.890 C 1540.118 1136.975, 1533.818 1126.350, 1530.867 1121.278 C 1523.639 1108.857, 1513.197 1091.298, 1510.484 1087 C 1509.269 1085.075, 1504.982 1077.650, 1500.959 1070.500 C 1493.813 1057.801, 1476.906 1028.976, 1472.513 1022 C 1471.300 1020.075, 1468.487 1015.125, 1466.260 1011 C 1462.701 1004.404, 1452.430 987.195, 1445.970 977 C 1444.750 975.075, 1437.675 962.925, 1430.247 950 C 1422.820 937.075, 1416.224 925.825, 1415.590 925 C 1414.955 924.175, 1413.353 921.475, 1412.028 919 C 1410.703 916.525, 1408.467 912.608, 1407.060 910.296 C 1405.652 907.984, 1400.941 900.109, 1396.592 892.796 C 1392.243 885.483, 1386.802 876.350, 1384.501 872.500 C 1382.201 868.650, 1374.101 854.925, 1366.502 842 C 1358.903 829.075, 1350.844 815.483, 1348.593 811.795 C 1346.342 808.108, 1342.700 801.898, 1340.500 797.996 C 1338.300 794.094, 1334.377 787.436, 1331.781 783.201 C 1329.186 778.965, 1324.497 771, 1321.362 765.500 C 1315.860 755.850, 1307.549 741.665, 1298.220 726 C 1295.763 721.875, 1292.394 716.025, 1290.732 713 C 1286.795 705.830, 1286.096 705, 1284 705 C 1283.035 705, 1281.784 705.563, 1281.221 706.250 M 1280.443 711.750 C 1278.173 715.103, 1261.545 743.034, 1241.003 778 C 1236.964 784.875, 1229.981 796.575, 1225.485 804 C 1214.832 821.594, 1171.486 894.470, 1138.943 949.500 C 1136.341 953.900, 1127.267 969.200, 1118.779 983.500 C 1110.291 997.800, 1100.708 1014, 1097.484 1019.500 C 1094.260 1025, 1085.708 1039.400, 1078.480 1051.500 C 1071.252 1063.600, 1060.822 1081.375, 1055.303 1091 C 1049.783 1100.625, 1039.967 1117.275, 1033.488 1128 C 1027.010 1138.725, 1020.042 1150.425, 1018.005 1154 C 1010.637 1166.931, 1007.349 1172.551, 1005.556 1175.281 C 1004.551 1176.811, 1004.001 1178.334, 1004.332 1178.666 C 1005.118 1179.451, 1007.267 1178.547, 1034 1166.177 C 1046.375 1160.452, 1060.550 1153.995, 1065.500 1151.829 C 1070.450 1149.663, 1081.475 1144.802, 1090 1141.026 C 1098.525 1137.250, 1112.862 1131.171, 1121.860 1127.517 C 1130.857 1123.862, 1140.532 1119.817, 1143.360 1118.527 C 1150.360 1115.332, 1168.925 1107.907, 1183.753 1102.371 C 1198.846 1096.736, 1201.186 1095.181, 1206.874 1087 C 1209.360 1083.425, 1219.292 1069.876, 1228.947 1056.892 C 1238.601 1043.907, 1253.700 1023.466, 1262.500 1011.468 C 1281.556 985.486, 1283.220 983.487, 1285.167 984.234 C 1285.981 984.546, 1291.303 991.484, 1296.993 999.651 C 1302.683 1007.818, 1312.004 1020.800, 1317.706 1028.500 C 1331.044 1046.512, 1347.071 1068.498, 1357.261 1082.763 C 1361.686 1088.958, 1366.700 1094.886, 1368.403 1095.937 C 1370.107 1096.988, 1376.450 1099.729, 1382.500 1102.027 C 1388.550 1104.325, 1398.900 1108.449, 1405.500 1111.191 C 1412.100 1113.934, 1420.650 1117.487, 1424.500 1119.087 C 1428.350 1120.688, 1444.100 1127.442, 1459.500 1134.097 C 1474.900 1140.752, 1490.425 1147.444, 1494 1148.969 C 1497.575 1150.493, 1505 1153.870, 1510.500 1156.473 C 1516 1159.075, 1524.942 1163.207, 1530.370 1165.654 C 1535.799 1168.100, 1544.678 1172.329, 1550.102 1175.051 C 1555.526 1177.773, 1560.197 1180, 1560.482 1180 C 1562.043 1180, 1560.411 1175.848, 1555.638 1167.678 C 1540.276 1141.385, 1522.989 1112.117, 1516.332 1101.131 C 1512.210 1094.329, 1503.094 1078.804, 1496.075 1066.631 C 1480.969 1040.434, 1468.407 1019.027, 1447 983 C 1438.339 968.425, 1429.768 953.800, 1427.952 950.500 C 1424.677 944.547, 1404.701 910.716, 1400.496 904 C 1399.291 902.075, 1396.483 897.350, 1394.256 893.500 C 1387.708 882.178, 1377.523 864.820, 1365.505 844.500 C 1359.324 834.050, 1348.288 815.375, 1340.980 803 C 1333.672 790.625, 1325.364 776.675, 1322.519 772 C 1319.673 767.325, 1315.761 760.575, 1313.824 757 C 1311.888 753.425, 1307.760 746.351, 1304.652 741.280 C 1301.543 736.209, 1299 731.826, 1299 731.540 C 1299 731.254, 1297.075 727.978, 1294.722 724.260 C 1292.369 720.542, 1289.332 715.362, 1287.973 712.750 C 1286.615 710.138, 1284.936 708, 1284.242 708 C 1283.549 708, 1281.839 709.688, 1280.443 711.750 M 1018.034 1004.966 C 1016.953 1006.047, 1014.851 1008.860, 1013.364 1011.216 C 1011.877 1013.572, 1006.349 1022.094, 1001.080 1030.154 C 979.436 1063.260, 961.604 1091.028, 955.902 1100.500 C 953.585 1104.350, 949.790 1110.425, 947.469 1114 C 945.148 1117.575, 936.877 1130.400, 929.090 1142.500 C 921.303 1154.600, 909.519 1172.825, 902.905 1183 C 881.488 1215.944, 873.016 1229.474, 873.008 1230.750 C 872.994 1232.927, 877.053 1232.106, 881.655 1229 C 884.100 1227.350, 886.483 1226, 886.950 1226 C 887.418 1226, 896.058 1221.814, 906.150 1216.699 C 916.243 1211.583, 927.546 1206.096, 931.269 1204.506 C 934.992 1202.917, 938.660 1200.915, 939.421 1200.058 C 940.656 1198.667, 946.583 1188.722, 953.760 1176 C 955.156 1173.525, 957.518 1169.700, 959.009 1167.500 C 960.500 1165.300, 967.258 1154.275, 974.027 1143 C 980.796 1131.725, 988.717 1118.818, 991.629 1114.318 C 994.541 1109.817, 997.739 1104.642, 998.736 1102.818 C 999.733 1100.993, 1001.270 1098.375, 1002.151 1097 C 1012.591 1080.708, 1014.209 1078.071, 1019.647 1068.500 C 1021.106 1065.932, 1021.439 1061.179, 1021.958 1035.500 C 1022.291 1019, 1022.389 1004.938, 1022.175 1004.250 C 1021.621 1002.471, 1020.300 1002.700, 1018.034 1004.966 M 1541.660 1003.750 C 1541.409 1004.163, 1541.279 1018, 1541.373 1034.500 C 1541.510 1058.631, 1541.832 1065.087, 1543.016 1067.500 C 1543.826 1069.150, 1548.284 1076.575, 1552.924 1084 C 1562.550 1099.408, 1581.704 1130.823, 1586.458 1139 C 1588.216 1142.025, 1593.107 1150.046, 1597.327 1156.825 C 1601.547 1163.604, 1605 1169.287, 1605 1169.454 C 1605 1169.620, 1607.093 1173.524, 1609.652 1178.128 C 1612.210 1182.733, 1615.657 1189.127, 1617.312 1192.339 C 1620.646 1198.809, 1622.912 1200.555, 1636.844 1207.391 C 1651.431 1214.548, 1681.444 1230.152, 1682.450 1231.102 C 1683.714 1232.297, 1686.730 1232.246, 1687.489 1231.018 C 1688.039 1230.128, 1672.644 1203.252, 1665.998 1193.500 C 1659.034 1183.281, 1653 1174.021, 1653 1173.553 C 1653 1172.895, 1647.103 1163.497, 1641.044 1154.500 C 1638.451 1150.650, 1630.380 1138.050, 1623.109 1126.500 C 1615.838 1114.950, 1606.109 1099.650, 1601.489 1092.500 C 1585.571 1067.864, 1580.827 1060.446, 1569.931 1043.152 C 1563.919 1033.610, 1559 1025.539, 1559 1025.216 C 1559 1024.893, 1558.179 1023.700, 1557.175 1022.564 C 1556.171 1021.429, 1553.160 1016.900, 1550.485 1012.500 C 1544.953 1003.405, 1543.033 1001.501, 1541.660 1003.750 M 1281.776 1077.713 C 1280.135 1079.544, 1271 1094.664, 1271 1095.549 C 1271 1095.819, 1269.911 1097.764, 1268.581 1099.872 C 1266.434 1103.273, 1263.404 1108.619, 1253.487 1126.500 C 1251.962 1129.250, 1249.935 1132.625, 1248.984 1134 C 1248.032 1135.375, 1245.785 1139.425, 1243.991 1143 C 1240.745 1149.466, 1229.197 1169.732, 1221.850 1181.852 C 1219.733 1185.346, 1218 1188.353, 1218 1188.535 C 1218 1188.717, 1215.750 1192.570, 1213 1197.098 C 1210.250 1201.626, 1208 1205.717, 1208 1206.190 C 1208 1206.662, 1206.200 1209.899, 1204 1213.383 C 1201.800 1216.866, 1200 1219.968, 1200 1220.275 C 1200 1220.583, 1197.975 1224.260, 1195.500 1228.446 C 1191.365 1235.440, 1189.883 1240.006, 1191.750 1239.996 C 1192.751 1239.991, 1196.774 1237.390, 1207 1230.137 C 1211.675 1226.820, 1218.200 1222.416, 1221.500 1220.350 C 1224.800 1218.283, 1230.717 1214.322, 1234.648 1211.546 C 1238.580 1208.771, 1243.305 1205.605, 1245.148 1204.511 C 1246.992 1203.416, 1249.997 1201.616, 1251.828 1200.511 C 1254.071 1199.155, 1257.981 1194.054, 1263.828 1184.854 C 1277.427 1163.453, 1283.185 1155, 1284.160 1155 C 1285.473 1155, 1291.067 1161.601, 1294.256 1166.911 C 1298.358 1173.742, 1299.116 1174.930, 1303.750 1181.798 C 1306.088 1185.262, 1308 1188.371, 1308 1188.707 C 1308 1189.043, 1309.762 1191.652, 1311.916 1194.505 C 1314.804 1198.330, 1319.710 1202.294, 1330.591 1209.596 C 1338.708 1215.043, 1348.983 1221.945, 1353.424 1224.932 C 1368.317 1234.950, 1373.136 1238, 1374.071 1238 C 1375.575 1238, 1375.131 1235.717, 1373 1232.500 C 1371.907 1230.850, 1371.010 1228.893, 1371.007 1228.151 C 1371.003 1227.409, 1369.467 1224.259, 1367.593 1221.151 C 1357.313 1204.098, 1348.932 1189.534, 1345.066 1182 C 1342.666 1177.325, 1339.946 1172.375, 1339.019 1171 C 1338.093 1169.625, 1335.151 1164.450, 1332.481 1159.500 C 1329.812 1154.550, 1324.899 1145.928, 1321.564 1140.341 C 1318.229 1134.753, 1313.705 1126.878, 1311.510 1122.841 C 1302.264 1105.829, 1298.696 1099.249, 1296.414 1095 C 1285.598 1074.861, 1284.983 1074.134, 1281.776 1077.713 M 815.816 1131.755 C 812.892 1136.020, 808.491 1142.658, 806.036 1146.505 C 803.581 1150.352, 797.844 1159.252, 793.286 1166.282 C 788.729 1173.313, 785 1179.219, 785 1179.407 C 785 1179.596, 780.837 1185.999, 775.750 1193.638 C 770.663 1201.276, 764.505 1210.669, 762.066 1214.513 C 759.627 1218.356, 751.190 1231.240, 743.316 1243.145 C 735.442 1255.050, 729 1265.737, 729 1266.895 C 729 1269.769, 732.280 1269.654, 738.554 1266.560 C 741.274 1265.219, 745.975 1263.158, 749 1261.980 C 752.025 1260.802, 756.075 1259.009, 758 1257.994 C 759.925 1256.980, 763.750 1255.365, 766.500 1254.405 C 772.435 1252.335, 774.023 1251.101, 779.248 1244.500 C 784.455 1237.921, 819.872 1201.139, 822.198 1199.894 C 823.718 1199.081, 826.378 1201.326, 838.866 1213.963 C 847.726 1222.929, 854.487 1228.991, 855.613 1228.977 C 857.026 1228.959, 859.077 1225.759, 863.785 1216.227 C 867.242 1209.227, 870.054 1202.233, 870.035 1200.684 C 869.996 1197.569, 869.218 1195.850, 864.518 1188.500 C 862.760 1185.750, 858.277 1178.325, 854.557 1172 C 850.837 1165.675, 846.109 1157.800, 844.050 1154.500 C 841.991 1151.200, 837.987 1144.555, 835.152 1139.734 C 823.738 1120.322, 823.671 1120.295, 815.816 1131.755 M 1732.292 1130.274 C 1729.977 1133.698, 1727.499 1137.625, 1726.784 1139 C 1725.210 1142.029, 1704.599 1176.291, 1700.766 1182.250 C 1699.263 1184.587, 1697.713 1187.175, 1697.323 1188 C 1696.933 1188.825, 1695.351 1191.501, 1693.807 1193.946 C 1692.263 1196.391, 1691 1199.194, 1691 1200.176 C 1691 1201.883, 1698.689 1220.782, 1701.507 1226 C 1702.250 1227.375, 1703.677 1228.620, 1704.679 1228.766 C 1705.870 1228.941, 1711.863 1223.840, 1722 1214.024 C 1730.525 1205.769, 1737.833 1199.012, 1738.239 1199.008 C 1739.289 1198.997, 1778.866 1239.371, 1784.367 1246.065 C 1787.417 1249.776, 1790.533 1252.329, 1793.720 1253.726 C 1796.349 1254.878, 1805.250 1258.794, 1813.500 1262.428 C 1821.750 1266.062, 1829.014 1269.027, 1829.643 1269.017 C 1831.807 1268.985, 1831.813 1266.304, 1829.659 1262.717 C 1824.313 1253.818, 1817.157 1242.499, 1809.292 1230.500 C 1787.359 1197.040, 1768.054 1167.424, 1763.540 1160.314 C 1746.437 1133.370, 1739.912 1124.002, 1738.263 1124.024 C 1737.233 1124.038, 1734.751 1126.635, 1732.292 1130.274 M 819.099 1131.366 C 816.896 1134.348, 812.079 1141.447, 808.393 1147.143 C 804.707 1152.840, 798.273 1162.784, 794.095 1169.241 C 770.316 1206, 759.027 1223.342, 746.250 1242.737 C 738.413 1254.634, 732 1264.735, 732 1265.184 C 732 1266.685, 735.162 1266.023, 739.853 1263.540 C 746.009 1260.280, 760.274 1254.150, 766.419 1252.123 C 770.305 1250.841, 772.379 1249.240, 776.294 1244.500 C 779.020 1241.200, 790.235 1229.162, 801.215 1217.750 C 815.088 1203.332, 821.839 1197, 823.338 1197 C 824.794 1197, 830.305 1201.875, 840.293 1212 C 848.432 1220.250, 855.319 1227, 855.597 1227 C 856.545 1227, 867.991 1202.508, 867.995 1200.470 C 867.998 1199.354, 861.873 1188.329, 854.384 1175.970 C 846.895 1163.612, 837.208 1147.557, 832.858 1140.293 C 828.508 1133.029, 824.533 1126.830, 824.026 1126.516 C 823.518 1126.202, 821.301 1128.385, 819.099 1131.366 M 1735.885 1129.250 C 1735.234 1130.487, 1734.375 1131.725, 1733.978 1132 C 1733.232 1132.516, 1719 1155.866, 1719 1156.574 C 1719 1156.792, 1713.575 1165.782, 1706.944 1176.550 C 1700.313 1187.319, 1694.516 1197.113, 1694.063 1198.315 C 1693.238 1200.500, 1694.407 1204.241, 1700.324 1218.353 C 1704.536 1228.400, 1703.520 1228.730, 1721.755 1211.376 C 1733.857 1199.857, 1738.390 1196.119, 1739.502 1196.741 C 1740.876 1197.510, 1777.623 1235.284, 1788 1246.595 C 1791.332 1250.227, 1794.057 1252.059, 1798.500 1253.653 C 1801.800 1254.837, 1809.552 1258.073, 1815.728 1260.843 C 1821.903 1263.614, 1827.214 1265.462, 1827.531 1264.950 C 1828.221 1263.834, 1828.684 1264.562, 1768.742 1172.500 C 1760.505 1159.850, 1750.563 1144.438, 1746.647 1138.250 C 1742.731 1132.063, 1738.974 1127, 1738.299 1127 C 1737.623 1127, 1736.537 1128.013, 1735.885 1129.250 M 560.306 1285.532 C 520.139 1292.878, 485.611 1318.122, 468.065 1352.968 C 456.935 1375.075, 451.844 1403.126, 455.133 1424.231 C 459.123 1449.841, 468.340 1470.128, 484.916 1489.785 C 493.776 1500.292, 512.259 1514.156, 527.707 1521.881 C 560.220 1538.141, 608.460 1538.143, 641.431 1521.888 C 662.459 1511.521, 680.128 1496.358, 692.265 1478.266 C 707.541 1455.496, 713.941 1435.080, 713.979 1409 C 714.022 1379.395, 705.147 1354.402, 686.111 1330.526 C 678.737 1321.276, 674.923 1317.552, 665.438 1310.342 C 649.035 1297.874, 631.699 1289.997, 611.944 1286.037 C 599.916 1283.626, 572.211 1283.355, 560.306 1285.532 M 564.500 1287.108 C 537.460 1291.003, 515.384 1301.565, 495.693 1320.029 C 468.603 1345.431, 453.836 1383.443, 457.009 1419.605 C 459.797 1451.372, 475.045 1480.228, 500.151 1501.248 C 518.217 1516.374, 535.275 1524.768, 558 1529.714 C 569.223 1532.157, 599.693 1532.117, 610.947 1529.644 C 629.860 1525.488, 643.285 1519.696, 659.216 1508.816 C 672.092 1500.023, 682.717 1489.068, 691.638 1475.385 C 701.230 1460.674, 705.688 1450.372, 709.761 1433.500 C 712.222 1423.306, 712.178 1394.304, 709.686 1384 C 702.585 1354.644, 688.602 1332.003, 666.500 1314.075 C 648.749 1299.676, 629.702 1291.098, 607.580 1287.538 C 597.272 1285.879, 574.602 1285.653, 564.500 1287.108 M 1215.864 1288.750 C 1179.547 1288.975, 1172.029 1289.260, 1171.044 1290.447 C 1169.400 1292.428, 1170.969 1295.039, 1176.233 1299.084 C 1185.326 1306.073, 1191.071 1314.480, 1200.046 1333.936 C 1203.741 1341.946, 1209.800 1354.800, 1213.510 1362.500 C 1217.221 1370.200, 1225.770 1388.200, 1232.509 1402.500 C 1239.247 1416.800, 1251.340 1442.366, 1259.380 1459.313 C 1267.421 1476.261, 1274 1490.328, 1274 1490.574 C 1274 1490.820, 1275.843 1494.729, 1278.095 1499.260 C 1280.347 1503.792, 1284.187 1512, 1286.627 1517.500 C 1289.068 1523, 1291.811 1528.063, 1292.724 1528.750 C 1293.923 1529.654, 1299.964 1530, 1314.536 1530 C 1332.470 1530, 1334.862 1529.807, 1336.249 1528.250 C 1337.941 1526.350, 1345.768 1510.790, 1354.987 1491 C 1360.268 1479.662, 1365.579 1468.572, 1382.999 1432.500 C 1386.187 1425.900, 1390.362 1417.125, 1392.277 1413 C 1394.193 1408.875, 1400.255 1396.275, 1405.749 1385 C 1411.243 1373.725, 1417.100 1361.575, 1418.765 1358 C 1439.206 1314.116, 1441.515 1310.097, 1452.208 1299.800 C 1463.609 1288.822, 1466.222 1289.500, 1412.500 1289.500 C 1368.831 1289.500, 1366.510 1289.591, 1366.177 1291.321 C 1365.984 1292.322, 1367.048 1294.905, 1368.542 1297.061 C 1372.069 1302.150, 1371.576 1305.419, 1365.125 1319.723 C 1362.453 1325.650, 1358.348 1335, 1356.005 1340.500 C 1349.868 1354.900, 1343.493 1369.444, 1338.251 1381 C 1336.879 1384.025, 1334.971 1388.300, 1334.011 1390.500 C 1333.051 1392.700, 1331.332 1396.525, 1330.191 1399 C 1329.050 1401.475, 1325.412 1409.568, 1322.106 1416.984 C 1316.692 1429.130, 1314 1433.427, 1314 1429.925 C 1314 1429.242, 1312.251 1424.817, 1310.113 1420.092 C 1303.339 1405.119, 1286.545 1367.210, 1277.733 1347 C 1258.836 1303.663, 1259.025 1304.346, 1263.632 1296.050 C 1266.439 1290.995, 1266.459 1290.854, 1264.559 1289.443 C 1263.491 1288.649, 1261.916 1288.108, 1261.059 1288.239 C 1260.201 1288.371, 1239.864 1288.600, 1215.864 1288.750 M 758.044 1290.917 C 757.190 1292.513, 757.742 1293.580, 761.331 1297.272 C 763.703 1299.713, 766.630 1303.809, 767.836 1306.374 L 770.029 1311.039 769.764 1410.269 L 769.500 1509.500 767.138 1514 C 765.838 1516.475, 763.251 1520.189, 761.388 1522.253 C 754.183 1530.235, 752.494 1529.999, 816.950 1530.007 C 852.363 1530.011, 876.490 1529.605, 881.500 1528.920 C 915.080 1524.330, 939.813 1514.245, 959.878 1496.960 C 982.737 1477.269, 995.921 1450.633, 998.962 1418 C 1001.167 1394.342, 996.134 1371.651, 983.824 1349.752 C 968.363 1322.246, 935.806 1300.061, 900.584 1293.029 C 880.857 1289.091, 879.015 1289, 818.670 1289 C 760.949 1289, 759.038 1289.060, 758.044 1290.917 M 1044.750 1290.074 C 1042.096 1291.629, 1042.540 1292.638, 1048.383 1298.343 C 1052.885 1302.738, 1053.960 1304.492, 1054.944 1309.050 C 1056.683 1317.102, 1055.986 1505.982, 1054.198 1511.208 C 1053.500 1513.248, 1050.695 1517.361, 1047.965 1520.348 C 1042.791 1526.010, 1041.909 1528.367, 1044.582 1529.393 C 1046.648 1530.186, 1128.352 1530.186, 1130.418 1529.393 C 1132.895 1528.442, 1132.277 1524.640, 1129.161 1521.654 C 1127.599 1520.158, 1125.237 1516.811, 1123.911 1514.217 L 1121.500 1509.500 1121.500 1410.500 C 1121.500 1327.004, 1121.724 1310.952, 1122.928 1308 C 1124.399 1304.398, 1129.420 1297.314, 1131.830 1295.444 C 1132.578 1294.863, 1133.035 1293.288, 1132.845 1291.944 L 1132.500 1289.500 1089.500 1289.274 C 1061.524 1289.128, 1045.889 1289.407, 1044.750 1290.074 M 1517.667 1289.667 C 1516.039 1291.294, 1517.349 1294.063, 1521.895 1298.609 C 1525.124 1301.838, 1527.172 1304.924, 1527.913 1307.679 C 1528.719 1310.671, 1528.962 1340.141, 1528.769 1411.677 C 1528.468 1523.387, 1529.081 1514.363, 1521.311 1521.482 C 1518.801 1523.781, 1517.915 1525.358, 1518.160 1527.090 L 1518.500 1529.500 1617.500 1529.758 C 1709.686 1529.999, 1716.586 1529.900, 1717.750 1528.317 C 1718.682 1527.051, 1719 1519.299, 1719 1497.891 C 1719 1482.091, 1718.727 1468.452, 1718.393 1467.582 C 1717.391 1464.970, 1714.384 1465.773, 1709.573 1469.937 C 1706.395 1472.687, 1703.740 1474.056, 1700.762 1474.479 C 1698.418 1474.812, 1673.325 1474.953, 1645 1474.792 L 1593.500 1474.500 1593.229 1454.865 L 1592.958 1435.230 1622.229 1434.508 C 1638.328 1434.111, 1660.062 1433.946, 1670.526 1434.143 C 1688.460 1434.479, 1689.716 1434.629, 1692.411 1436.750 C 1695.276 1439.005, 1698.462 1439.680, 1699.363 1438.222 C 1699.628 1437.793, 1699.956 1424.432, 1700.092 1408.530 C 1700.314 1382.731, 1700.165 1379.507, 1698.712 1378.590 C 1697.480 1377.813, 1696.324 1378.123, 1693.974 1379.861 L 1690.866 1382.159 1642.702 1382.048 C 1616.211 1381.987, 1594.146 1381.546, 1593.668 1381.068 C 1592.756 1380.156, 1593.106 1345.558, 1594.036 1344.629 C 1594.442 1344.225, 1684.837 1343.644, 1700.158 1343.947 C 1701.769 1343.979, 1704.994 1345.773, 1708.341 1348.500 C 1713.683 1352.852, 1716.316 1353.915, 1717.402 1352.159 C 1718.278 1350.741, 1718.554 1291.584, 1717.691 1290.250 C 1717.053 1289.264, 1695.929 1289, 1617.608 1289 C 1563.007 1289, 1518.033 1289.300, 1517.667 1289.667 M 1766.667 1289.667 C 1764.895 1291.438, 1766.397 1294.171, 1770.750 1297.097 C 1773.362 1298.853, 1777.013 1301.687, 1778.863 1303.395 C 1782.053 1306.341, 1799.802 1327.693, 1803 1332.433 C 1803.825 1333.655, 1809.321 1340.696, 1815.214 1348.078 C 1821.107 1355.460, 1830.301 1367.125, 1835.645 1374 C 1840.990 1380.875, 1847.643 1389.301, 1850.431 1392.724 C 1853.219 1396.147, 1856.561 1400.327, 1857.859 1402.013 L 1860.217 1405.079 1857.359 1409.289 C 1855.786 1411.605, 1851.350 1417.353, 1847.500 1422.062 C 1843.650 1426.771, 1836.900 1435.290, 1832.500 1440.993 C 1822.487 1453.972, 1811.772 1467.706, 1806.305 1474.570 C 1803.998 1477.467, 1797.936 1485.386, 1792.834 1492.168 C 1787.732 1498.951, 1778.634 1509.396, 1772.616 1515.380 C 1763.698 1524.248, 1761.863 1526.560, 1762.696 1527.880 C 1763.607 1529.325, 1768.285 1529.528, 1805.928 1529.761 C 1831.027 1529.916, 1848.820 1529.640, 1849.819 1529.079 C 1851.117 1528.351, 1851.500 1526.695, 1851.500 1521.803 C 1851.500 1514.736, 1850.078 1517.112, 1870.066 1490.783 C 1887.513 1467.803, 1893.556 1459.718, 1895.765 1456.401 C 1897.010 1454.530, 1898.585 1453.007, 1899.265 1453.015 C 1899.944 1453.024, 1902.202 1455.386, 1904.282 1458.265 C 1906.361 1461.144, 1910.781 1467.100, 1914.102 1471.500 C 1949.494 1518.386, 1949 1517.651, 1949 1523.430 C 1949 1527.527, 1949.396 1528.938, 1950.682 1529.432 C 1953.377 1530.466, 2033.235 1529.945, 2035.224 1528.880 C 2038.035 1527.376, 2037.368 1524.241, 2033.849 1522.422 C 2029.967 1520.415, 2027.396 1517.692, 2015.150 1502.629 C 2005.051 1490.205, 2003.074 1487.712, 1993.870 1475.792 C 1987.106 1467.032, 1972.604 1448.359, 1970.213 1445.331 C 1950.219 1420.007, 1940 1406.195, 1940 1404.494 C 1940 1403.807, 1940.746 1402.627, 1941.657 1401.872 C 1942.568 1401.118, 1948.182 1394.200, 1954.133 1386.500 C 1960.084 1378.800, 1968.001 1368.626, 1971.726 1363.892 C 1978.073 1355.827, 1986.409 1345.168, 2006.052 1320 C 2016.539 1306.562, 2020.076 1302.875, 2027.750 1297.377 C 2031.188 1294.914, 2033.993 1292.584, 2033.985 1292.199 C 2033.916 1289.076, 2032.413 1288.978, 1988.434 1289.239 L 1944.500 1289.500 1943.987 1295 C 1943.418 1301.107, 1941.854 1303.649, 1926.453 1323.500 C 1921.759 1329.550, 1915.124 1338.477, 1911.709 1343.339 C 1902.770 1356.062, 1902.002 1357, 1900.504 1357 C 1898.915 1357, 1889.381 1345.075, 1875.256 1325.421 C 1862.444 1307.594, 1858 1300.021, 1858 1296.016 C 1858 1294.285, 1857.534 1291.998, 1856.965 1290.934 C 1855.965 1289.067, 1854.404 1289, 1811.631 1289 C 1787.268 1289, 1767.033 1289.300, 1766.667 1289.667 M 761 1292.050 C 761 1292.703, 762.351 1294.774, 764.002 1296.655 C 765.653 1298.535, 768.240 1302.420, 769.752 1305.287 L 772.500 1310.500 772.808 1401.900 C 773.004 1460.178, 772.744 1496.337, 772.090 1501.683 C 770.917 1511.270, 768.676 1517.022, 764.067 1522.271 C 762.295 1524.289, 761.132 1526.404, 761.482 1526.970 C 762.564 1528.721, 865.590 1528.304, 882 1526.482 C 905.852 1523.835, 924.632 1517.793, 942.430 1507.042 C 968.075 1491.550, 986.126 1467.245, 993.705 1438 C 997.093 1424.926, 998.021 1400.239, 995.586 1387.921 C 993.138 1375.533, 990.453 1367.685, 984.862 1356.585 C 978.454 1343.860, 975.897 1340.259, 966.320 1330.465 C 947.872 1311.602, 924.427 1299.708, 893.014 1293.276 C 883.072 1291.241, 761 1290.107, 761 1292.050 M 1046.603 1291.833 C 1046.320 1292.292, 1048.085 1294.780, 1050.525 1297.364 C 1058.464 1305.768, 1058.083 1299.797, 1057.774 1411.088 C 1057.466 1521.786, 1058.093 1513.097, 1049.796 1521.657 C 1047.580 1523.943, 1046.018 1526.220, 1046.325 1526.717 C 1046.638 1527.224, 1064.680 1527.731, 1087.449 1527.873 C 1132.900 1528.156, 1132.095 1528.289, 1126.104 1521.465 C 1119.013 1513.390, 1119.500 1521.603, 1119.500 1410 L 1119.500 1309.500 1121.790 1304.898 C 1123.050 1302.368, 1125.413 1299.021, 1127.040 1297.461 C 1128.668 1295.902, 1130 1293.810, 1130 1292.813 C 1130 1291.092, 1127.908 1291, 1088.559 1291 C 1065.766 1291, 1046.886 1291.375, 1046.603 1291.833 M 1173.399 1292.164 C 1172.979 1292.842, 1173.893 1294.327, 1175.590 1295.725 C 1186.825 1304.982, 1193.442 1314.239, 1201.523 1332 C 1207.882 1345.977, 1213.828 1358.550, 1223.752 1379 C 1227.889 1387.525, 1232.284 1396.750, 1233.520 1399.500 C 1234.756 1402.250, 1242.633 1418.900, 1251.025 1436.500 C 1259.417 1454.100, 1268.417 1473.225, 1271.025 1479 C 1281.742 1502.733, 1292.223 1524.588, 1293.532 1525.927 C 1294.589 1527.009, 1298.907 1527.464, 1311.377 1527.805 C 1336.698 1528.498, 1333.342 1530.674, 1345.490 1505.687 C 1356.853 1482.315, 1382.804 1428.179, 1393.277 1406 C 1395.744 1400.775, 1401.370 1389.075, 1405.780 1380 C 1410.189 1370.925, 1418.753 1353.045, 1424.810 1340.268 C 1437.191 1314.149, 1442.727 1305.118, 1450.572 1298.238 C 1453.544 1295.632, 1455.980 1292.938, 1455.987 1292.250 C 1455.997 1291.269, 1446.640 1291, 1412.500 1291 C 1364.630 1291, 1366.520 1290.727, 1371.138 1296.972 C 1374.845 1301.987, 1374.003 1304.946, 1359.458 1338 C 1319.330 1429.194, 1317.106 1434, 1315.044 1434 C 1313.902 1434, 1312.506 1431.780, 1310.634 1426.986 C 1309.127 1423.129, 1306.155 1416.266, 1304.028 1411.736 C 1301.902 1407.206, 1299.044 1400.800, 1297.678 1397.500 C 1296.312 1394.200, 1292.852 1386.325, 1289.990 1380 C 1285.012 1368.999, 1269.545 1333.379, 1262.415 1316.500 C 1258.449 1307.108, 1258.017 1301.005, 1261 1296.500 C 1262.093 1294.850, 1262.990 1292.938, 1262.993 1292.250 C 1263.003 1290.501, 1174.479 1290.416, 1173.399 1292.164 M 1519.699 1291.635 C 1519.344 1291.989, 1521.222 1294.651, 1523.872 1297.551 C 1526.863 1300.822, 1529.143 1304.468, 1529.884 1307.161 C 1530.781 1310.423, 1531.006 1336.477, 1530.789 1412.087 L 1530.500 1512.674 1526.740 1518.337 C 1524.672 1521.452, 1522.534 1524, 1521.990 1524 C 1521.445 1524, 1521 1524.827, 1521 1525.838 C 1521 1527.607, 1524.586 1527.684, 1617.356 1527.910 C 1705.606 1528.124, 1713.851 1528.006, 1715.356 1526.501 C 1716.803 1525.054, 1717 1521.505, 1717 1496.929 C 1717 1465.502, 1717.126 1465.943, 1709.968 1472.410 C 1706.789 1475.282, 1705.191 1475.921, 1699.847 1476.459 C 1696.356 1476.811, 1670.550 1476.964, 1642.500 1476.799 L 1591.500 1476.500 1591.229 1455.627 C 1591.037 1440.773, 1591.297 1434.347, 1592.132 1433.341 C 1593.119 1432.152, 1600.933 1431.973, 1641.448 1432.214 C 1685.321 1432.475, 1689.827 1432.655, 1692.260 1434.250 C 1698.115 1438.088, 1698 1438.603, 1698 1408.500 C 1698 1393.375, 1697.650 1381, 1697.223 1381 C 1696.795 1381, 1695.332 1381.787, 1693.973 1382.750 C 1691.698 1384.360, 1687.544 1384.500, 1642.214 1384.500 C 1599.492 1384.500, 1592.801 1384.300, 1591.979 1383 C 1590.676 1380.940, 1590.726 1345.380, 1592.035 1342.934 C 1593.039 1341.059, 1594.699 1341, 1646.470 1341 C 1680.064 1341, 1700.857 1341.375, 1702.531 1342.012 C 1703.995 1342.568, 1707.194 1344.664, 1709.640 1346.668 C 1712.520 1349.028, 1714.430 1349.970, 1715.060 1349.340 C 1715.656 1348.744, 1715.929 1337.388, 1715.766 1319.934 L 1715.500 1291.500 1617.922 1291.245 C 1564.253 1291.105, 1520.053 1291.280, 1519.699 1291.635 M 1769.026 1292.250 C 1769.040 1292.938, 1771.177 1294.942, 1773.776 1296.704 C 1780.786 1301.459, 1784.691 1305.877, 1808.131 1335.573 C 1819.884 1350.464, 1836.700 1371.747, 1845.500 1382.870 C 1854.300 1393.992, 1861.655 1403.794, 1861.844 1404.652 C 1862.241 1406.456, 1858.451 1411.993, 1848.538 1424.087 C 1841.465 1432.717, 1836.435 1439.119, 1825.822 1453 C 1822.668 1457.125, 1816.912 1464.550, 1813.032 1469.500 C 1809.151 1474.450, 1801.482 1484.426, 1795.990 1491.668 C 1790.497 1498.910, 1781.287 1509.656, 1775.523 1515.547 C 1769.758 1521.439, 1765.284 1526.651, 1765.580 1527.130 C 1766.186 1528.110, 1832.940 1528.113, 1843 1527.133 L 1849.500 1526.500 1849.159 1521.743 C 1848.771 1516.326, 1851.285 1511.150, 1858.505 1502.500 C 1860.800 1499.750, 1866.483 1492.325, 1871.134 1486 C 1891.917 1457.735, 1897.977 1450, 1899.339 1450 C 1900.032 1450, 1910.470 1463.162, 1922.534 1479.250 C 1951.022 1517.238, 1951 1517.205, 1951 1522.504 L 1951 1526.808 1961.466 1527.521 C 1976.806 1528.566, 2031.705 1527.695, 2033.015 1526.385 C 2033.774 1525.626, 2033.036 1524.617, 2030.475 1522.908 C 2026.968 1520.569, 2000.760 1488.805, 1982.281 1464.500 C 1977.264 1457.900, 1969.437 1447.775, 1964.888 1442 C 1948.017 1420.581, 1938 1406.786, 1938 1404.971 C 1938 1403.944, 1940.151 1400.493, 1942.780 1397.302 C 1945.408 1394.111, 1950.658 1387.450, 1954.446 1382.500 C 1958.234 1377.550, 1966.851 1366.525, 1973.595 1358 C 1980.339 1349.475, 1992.700 1333.790, 2001.063 1323.144 C 2011.320 1310.089, 2018.505 1301.963, 2023.135 1298.180 C 2026.911 1295.095, 2030 1292.213, 2030 1291.775 C 2030 1291.337, 2011.213 1291.095, 1988.250 1291.239 L 1946.500 1291.500 1946.185 1295.899 C 1945.819 1301.019, 1942.937 1305.832, 1931.395 1320.606 C 1927.053 1326.164, 1921.565 1333.364, 1919.200 1336.606 C 1904.715 1356.462, 1901.827 1360, 1900.103 1360 C 1898.946 1360, 1895.697 1356.588, 1891.380 1350.839 C 1887.596 1345.801, 1882.950 1339.613, 1881.055 1337.089 C 1873.418 1326.916, 1860.719 1308.473, 1857.840 1303.370 C 1855.875 1299.889, 1854.983 1297.171, 1855.348 1295.776 C 1856.595 1291.009, 1856.517 1291, 1811.378 1291 C 1778.128 1291, 1769.006 1291.269, 1769.026 1292.250 M 568.166 1342.022 C 547.152 1348.221, 532.835 1360.276, 524.118 1379.111 C 518.792 1390.618, 517.541 1396.552, 517.606 1410 C 517.669 1422.893, 519.105 1429.127, 524.632 1440.500 C 533.316 1458.366, 549.410 1471.504, 568.644 1476.427 C 576.860 1478.530, 593.921 1478.509, 601.068 1476.388 C 630.108 1467.767, 649.713 1443.439, 651.670 1413.596 C 653.130 1391.337, 645.516 1371.935, 629.632 1357.438 C 621.680 1350.180, 610.259 1344.084, 599.936 1341.587 C 591.012 1339.429, 576.270 1339.631, 568.166 1342.022 M 834.205 1342.253 C 833.267 1343.383, 833.045 1359.047, 833.243 1410.111 L 833.500 1476.500 851.500 1476.785 C 861.400 1476.941, 873.310 1476.608, 877.968 1476.044 C 915.799 1471.465, 938.764 1443.877, 936.674 1405.520 C 935.814 1389.740, 933.296 1381.793, 925.357 1369.809 C 919.271 1360.622, 912.273 1354.653, 901.568 1349.518 C 888.063 1343.040, 881.094 1341.761, 856.462 1341.234 C 838.790 1340.856, 835.229 1341.019, 834.205 1342.253 M 568 1344.349 C 553.216 1349.007, 544.306 1354.578, 535.902 1364.421 C 508.461 1396.558, 516.318 1446.762, 552 1467.273 C 564.370 1474.384, 581.642 1477.964, 593.724 1475.922 C 601.374 1474.629, 613.922 1469.494, 620.858 1464.818 C 631.728 1457.490, 641.833 1443.802, 646.703 1429.807 C 648.917 1423.445, 649.256 1420.753, 649.325 1409 C 649.396 1396.870, 649.129 1394.675, 646.696 1387.369 C 640.114 1367.604, 625.001 1352.387, 604.906 1345.293 C 594.035 1341.456, 578.449 1341.057, 568 1344.349 M 835.459 1345.250 C 835.197 1345.938, 835.098 1375.300, 835.241 1410.500 L 835.500 1474.500 851.500 1474.804 C 879.721 1475.340, 897.537 1471.621, 909 1462.802 C 913.825 1459.089, 922.269 1450.469, 924.964 1446.505 C 935.383 1431.176, 937.921 1404.598, 930.838 1385 C 923.320 1364.199, 907.670 1350.938, 884.188 1345.470 C 875.818 1343.521, 836.189 1343.342, 835.459 1345.250" stroke="none" fill="#3d3c44" fill-rule="evenodd"/><path d="M 1280.443 711.750 C 1278.173 715.103, 1261.545 743.034, 1241.003 778 C 1236.964 784.875, 1229.981 796.575, 1225.485 804 C 1214.832 821.594, 1171.486 894.470, 1138.943 949.500 C 1136.341 953.900, 1127.267 969.200, 1118.779 983.500 C 1110.291 997.800, 1100.708 1014, 1097.484 1019.500 C 1094.260 1025, 1085.708 1039.400, 1078.480 1051.500 C 1071.252 1063.600, 1060.822 1081.375, 1055.303 1091 C 1049.783 1100.625, 1039.967 1117.275, 1033.488 1128 C 1027.010 1138.725, 1020.042 1150.425, 1018.005 1154 C 1010.637 1166.931, 1007.349 1172.551, 1005.556 1175.281 C 1004.551 1176.811, 1004.001 1178.334, 1004.332 1178.666 C 1005.118 1179.451, 1007.267 1178.547, 1034 1166.177 C 1046.375 1160.452, 1060.550 1153.995, 1065.500 1151.829 C 1070.450 1149.663, 1081.475 1144.802, 1090 1141.026 C 1098.525 1137.250, 1112.862 1131.171, 1121.860 1127.517 C 1130.857 1123.862, 1140.532 1119.817, 1143.360 1118.527 C 1150.360 1115.332, 1168.925 1107.907, 1183.753 1102.371 C 1198.846 1096.736, 1201.186 1095.181, 1206.874 1087 C 1209.360 1083.425, 1219.292 1069.876, 1228.947 1056.892 C 1238.601 1043.907, 1253.700 1023.466, 1262.500 1011.468 C 1281.556 985.486, 1283.220 983.487, 1285.167 984.234 C 1285.981 984.546, 1291.303 991.484, 1296.993 999.651 C 1302.683 1007.818, 1312.004 1020.800, 1317.706 1028.500 C 1331.044 1046.512, 1347.071 1068.498, 1357.261 1082.763 C 1361.686 1088.958, 1366.700 1094.886, 1368.403 1095.937 C 1370.107 1096.988, 1376.450 1099.729, 1382.500 1102.027 C 1388.550 1104.325, 1398.900 1108.449, 1405.500 1111.191 C 1412.100 1113.934, 1420.650 1117.487, 1424.500 1119.087 C 1428.350 1120.688, 1444.100 1127.442, 1459.500 1134.097 C 1474.900 1140.752, 1490.425 1147.444, 1494 1148.969 C 1497.575 1150.493, 1505 1153.870, 1510.500 1156.473 C 1516 1159.075, 1524.942 1163.207, 1530.370 1165.654 C 1535.799 1168.100, 1544.678 1172.329, 1550.102 1175.051 C 1555.526 1177.773, 1560.197 1180, 1560.482 1180 C 1562.043 1180, 1560.411 1175.848, 1555.638 1167.678 C 1540.276 1141.385, 1522.989 1112.117, 1516.332 1101.131 C 1512.210 1094.329, 1503.094 1078.804, 1496.075 1066.631 C 1480.969 1040.434, 1468.407 1019.027, 1447 983 C 1438.339 968.425, 1429.768 953.800, 1427.952 950.500 C 1424.677 944.547, 1404.701 910.716, 1400.496 904 C 1399.291 902.075, 1396.483 897.350, 1394.256 893.500 C 1387.708 882.178, 1377.523 864.820, 1365.505 844.500 C 1359.324 834.050, 1348.288 815.375, 1340.980 803 C 1333.672 790.625, 1325.364 776.675, 1322.519 772 C 1319.673 767.325, 1315.761 760.575, 1313.824 757 C 1311.888 753.425, 1307.760 746.351, 1304.652 741.280 C 1301.543 736.209, 1299 731.826, 1299 731.540 C 1299 731.254, 1297.075 727.978, 1294.722 724.260 C 1292.369 720.542, 1289.332 715.362, 1287.973 712.750 C 1286.615 710.138, 1284.936 708, 1284.242 708 C 1283.549 708, 1281.839 709.688, 1280.443 711.750 M 819.099 1131.366 C 816.896 1134.348, 812.079 1141.447, 808.393 1147.143 C 804.707 1152.840, 798.273 1162.784, 794.095 1169.241 C 770.316 1206, 759.027 1223.342, 746.250 1242.737 C 738.413 1254.634, 732 1264.735, 732 1265.184 C 732 1266.685, 735.162 1266.023, 739.853 1263.540 C 746.009 1260.280, 760.274 1254.150, 766.419 1252.123 C 770.305 1250.841, 772.379 1249.240, 776.294 1244.500 C 779.020 1241.200, 790.235 1229.162, 801.215 1217.750 C 815.088 1203.332, 821.839 1197, 823.338 1197 C 824.794 1197, 830.305 1201.875, 840.293 1212 C 848.432 1220.250, 855.319 1227, 855.597 1227 C 856.545 1227, 867.991 1202.508, 867.995 1200.470 C 867.998 1199.354, 861.873 1188.329, 854.384 1175.970 C 846.895 1163.612, 837.208 1147.557, 832.858 1140.293 C 828.508 1133.029, 824.533 1126.830, 824.026 1126.516 C 823.518 1126.202, 821.301 1128.385, 819.099 1131.366 M 1735.885 1129.250 C 1735.234 1130.487, 1734.375 1131.725, 1733.978 1132 C 1733.232 1132.516, 1719 1155.866, 1719 1156.574 C 1719 1156.792, 1713.575 1165.782, 1706.944 1176.550 C 1700.313 1187.319, 1694.516 1197.113, 1694.063 1198.315 C 1693.238 1200.500, 1694.407 1204.241, 1700.324 1218.353 C 1704.536 1228.400, 1703.520 1228.730, 1721.755 1211.376 C 1733.857 1199.857, 1738.390 1196.119, 1739.502 1196.741 C 1740.876 1197.510, 1777.623 1235.284, 1788 1246.595 C 1791.332 1250.227, 1794.057 1252.059, 1798.500 1253.653 C 1801.800 1254.837, 1809.552 1258.073, 1815.728 1260.843 C 1821.903 1263.614, 1827.214 1265.462, 1827.531 1264.950 C 1828.221 1263.834, 1828.684 1264.562, 1768.742 1172.500 C 1760.505 1159.850, 1750.563 1144.438, 1746.647 1138.250 C 1742.731 1132.063, 1738.974 1127, 1738.299 1127 C 1737.623 1127, 1736.537 1128.013, 1735.885 1129.250 M 564.500 1287.108 C 537.460 1291.003, 515.384 1301.565, 495.693 1320.029 C 468.603 1345.431, 453.836 1383.443, 457.009 1419.605 C 459.797 1451.372, 475.045 1480.228, 500.151 1501.248 C 518.217 1516.374, 535.275 1524.768, 558 1529.714 C 569.223 1532.157, 599.693 1532.117, 610.947 1529.644 C 629.860 1525.488, 643.285 1519.696, 659.216 1508.816 C 672.092 1500.023, 682.717 1489.068, 691.638 1475.385 C 701.230 1460.674, 705.688 1450.372, 709.761 1433.500 C 712.222 1423.306, 712.178 1394.304, 709.686 1384 C 702.585 1354.644, 688.602 1332.003, 666.500 1314.075 C 648.749 1299.676, 629.702 1291.098, 607.580 1287.538 C 597.272 1285.879, 574.602 1285.653, 564.500 1287.108 M 761 1292.050 C 761 1292.703, 762.351 1294.774, 764.002 1296.655 C 765.653 1298.535, 768.240 1302.420, 769.752 1305.287 L 772.500 1310.500 772.808 1401.900 C 773.004 1460.178, 772.744 1496.337, 772.090 1501.683 C 770.917 1511.270, 768.676 1517.022, 764.067 1522.271 C 762.295 1524.289, 761.132 1526.404, 761.482 1526.970 C 762.564 1528.721, 865.590 1528.304, 882 1526.482 C 905.852 1523.835, 924.632 1517.793, 942.430 1507.042 C 968.075 1491.550, 986.126 1467.245, 993.705 1438 C 997.093 1424.926, 998.021 1400.239, 995.586 1387.921 C 993.138 1375.533, 990.453 1367.685, 984.862 1356.585 C 978.454 1343.860, 975.897 1340.259, 966.320 1330.465 C 947.872 1311.602, 924.427 1299.708, 893.014 1293.276 C 883.072 1291.241, 761 1290.107, 761 1292.050 M 1046.603 1291.833 C 1046.320 1292.292, 1048.085 1294.780, 1050.525 1297.364 C 1058.464 1305.768, 1058.083 1299.797, 1057.774 1411.088 C 1057.466 1521.786, 1058.093 1513.097, 1049.796 1521.657 C 1047.580 1523.943, 1046.018 1526.220, 1046.325 1526.717 C 1046.638 1527.224, 1064.680 1527.731, 1087.449 1527.873 C 1132.900 1528.156, 1132.095 1528.289, 1126.104 1521.465 C 1119.013 1513.390, 1119.500 1521.603, 1119.500 1410 L 1119.500 1309.500 1121.790 1304.898 C 1123.050 1302.368, 1125.413 1299.021, 1127.040 1297.461 C 1128.668 1295.902, 1130 1293.810, 1130 1292.813 C 1130 1291.092, 1127.908 1291, 1088.559 1291 C 1065.766 1291, 1046.886 1291.375, 1046.603 1291.833 M 1173.399 1292.164 C 1172.979 1292.842, 1173.893 1294.327, 1175.590 1295.725 C 1186.825 1304.982, 1193.442 1314.239, 1201.523 1332 C 1207.882 1345.977, 1213.828 1358.550, 1223.752 1379 C 1227.889 1387.525, 1232.284 1396.750, 1233.520 1399.500 C 1234.756 1402.250, 1242.633 1418.900, 1251.025 1436.500 C 1259.417 1454.100, 1268.417 1473.225, 1271.025 1479 C 1281.742 1502.733, 1292.223 1524.588, 1293.532 1525.927 C 1294.589 1527.009, 1298.907 1527.464, 1311.377 1527.805 C 1336.698 1528.498, 1333.342 1530.674, 1345.490 1505.687 C 1356.853 1482.315, 1382.804 1428.179, 1393.277 1406 C 1395.744 1400.775, 1401.370 1389.075, 1405.780 1380 C 1410.189 1370.925, 1418.753 1353.045, 1424.810 1340.268 C 1437.191 1314.149, 1442.727 1305.118, 1450.572 1298.238 C 1453.544 1295.632, 1455.980 1292.938, 1455.987 1292.250 C 1455.997 1291.269, 1446.640 1291, 1412.500 1291 C 1364.630 1291, 1366.520 1290.727, 1371.138 1296.972 C 1374.845 1301.987, 1374.003 1304.946, 1359.458 1338 C 1319.330 1429.194, 1317.106 1434, 1315.044 1434 C 1313.902 1434, 1312.506 1431.780, 1310.634 1426.986 C 1309.127 1423.129, 1306.155 1416.266, 1304.028 1411.736 C 1301.902 1407.206, 1299.044 1400.800, 1297.678 1397.500 C 1296.312 1394.200, 1292.852 1386.325, 1289.990 1380 C 1285.012 1368.999, 1269.545 1333.379, 1262.415 1316.500 C 1258.449 1307.108, 1258.017 1301.005, 1261 1296.500 C 1262.093 1294.850, 1262.990 1292.938, 1262.993 1292.250 C 1263.003 1290.501, 1174.479 1290.416, 1173.399 1292.164 M 1519.699 1291.635 C 1519.344 1291.989, 1521.222 1294.651, 1523.872 1297.551 C 1526.863 1300.822, 1529.143 1304.468, 1529.884 1307.161 C 1530.781 1310.423, 1531.006 1336.477, 1530.789 1412.087 L 1530.500 1512.674 1526.740 1518.337 C 1524.672 1521.452, 1522.534 1524, 1521.990 1524 C 1521.445 1524, 1521 1524.827, 1521 1525.838 C 1521 1527.607, 1524.586 1527.684, 1617.356 1527.910 C 1705.606 1528.124, 1713.851 1528.006, 1715.356 1526.501 C 1716.803 1525.054, 1717 1521.505, 1717 1496.929 C 1717 1465.502, 1717.126 1465.943, 1709.968 1472.410 C 1706.789 1475.282, 1705.191 1475.921, 1699.847 1476.459 C 1696.356 1476.811, 1670.550 1476.964, 1642.500 1476.799 L 1591.500 1476.500 1591.229 1455.627 C 1591.037 1440.773, 1591.297 1434.347, 1592.132 1433.341 C 1593.119 1432.152, 1600.933 1431.973, 1641.448 1432.214 C 1685.321 1432.475, 1689.827 1432.655, 1692.260 1434.250 C 1698.115 1438.088, 1698 1438.603, 1698 1408.500 C 1698 1393.375, 1697.650 1381, 1697.223 1381 C 1696.795 1381, 1695.332 1381.787, 1693.973 1382.750 C 1691.698 1384.360, 1687.544 1384.500, 1642.214 1384.500 C 1599.492 1384.500, 1592.801 1384.300, 1591.979 1383 C 1590.676 1380.940, 1590.726 1345.380, 1592.035 1342.934 C 1593.039 1341.059, 1594.699 1341, 1646.470 1341 C 1680.064 1341, 1700.857 1341.375, 1702.531 1342.012 C 1703.995 1342.568, 1707.194 1344.664, 1709.640 1346.668 C 1712.520 1349.028, 1714.430 1349.970, 1715.060 1349.340 C 1715.656 1348.744, 1715.929 1337.388, 1715.766 1319.934 L 1715.500 1291.500 1617.922 1291.245 C 1564.253 1291.105, 1520.053 1291.280, 1519.699 1291.635 M 1769.026 1292.250 C 1769.040 1292.938, 1771.177 1294.942, 1773.776 1296.704 C 1780.786 1301.459, 1784.691 1305.877, 1808.131 1335.573 C 1819.884 1350.464, 1836.700 1371.747, 1845.500 1382.870 C 1854.300 1393.992, 1861.655 1403.794, 1861.844 1404.652 C 1862.241 1406.456, 1858.451 1411.993, 1848.538 1424.087 C 1841.465 1432.717, 1836.435 1439.119, 1825.822 1453 C 1822.668 1457.125, 1816.912 1464.550, 1813.032 1469.500 C 1809.151 1474.450, 1801.482 1484.426, 1795.990 1491.668 C 1790.497 1498.910, 1781.287 1509.656, 1775.523 1515.547 C 1769.758 1521.439, 1765.284 1526.651, 1765.580 1527.130 C 1766.186 1528.110, 1832.940 1528.113, 1843 1527.133 L 1849.500 1526.500 1849.159 1521.743 C 1848.771 1516.326, 1851.285 1511.150, 1858.505 1502.500 C 1860.800 1499.750, 1866.483 1492.325, 1871.134 1486 C 1891.917 1457.735, 1897.977 1450, 1899.339 1450 C 1900.032 1450, 1910.470 1463.162, 1922.534 1479.250 C 1951.022 1517.238, 1951 1517.205, 1951 1522.504 L 1951 1526.808 1961.466 1527.521 C 1976.806 1528.566, 2031.705 1527.695, 2033.015 1526.385 C 2033.774 1525.626, 2033.036 1524.617, 2030.475 1522.908 C 2026.968 1520.569, 2000.760 1488.805, 1982.281 1464.500 C 1977.264 1457.900, 1969.437 1447.775, 1964.888 1442 C 1948.017 1420.581, 1938 1406.786, 1938 1404.971 C 1938 1403.944, 1940.151 1400.493, 1942.780 1397.302 C 1945.408 1394.111, 1950.658 1387.450, 1954.446 1382.500 C 1958.234 1377.550, 1966.851 1366.525, 1973.595 1358 C 1980.339 1349.475, 1992.700 1333.790, 2001.063 1323.144 C 2011.320 1310.089, 2018.505 1301.963, 2023.135 1298.180 C 2026.911 1295.095, 2030 1292.213, 2030 1291.775 C 2030 1291.337, 2011.213 1291.095, 1988.250 1291.239 L 1946.500 1291.500 1946.185 1295.899 C 1945.819 1301.019, 1942.937 1305.832, 1931.395 1320.606 C 1927.053 1326.164, 1921.565 1333.364, 1919.200 1336.606 C 1904.715 1356.462, 1901.827 1360, 1900.103 1360 C 1898.946 1360, 1895.697 1356.588, 1891.380 1350.839 C 1887.596 1345.801, 1882.950 1339.613, 1881.055 1337.089 C 1873.418 1326.916, 1860.719 1308.473, 1857.840 1303.370 C 1855.875 1299.889, 1854.983 1297.171, 1855.348 1295.776 C 1856.595 1291.009, 1856.517 1291, 1811.378 1291 C 1778.128 1291, 1769.006 1291.269, 1769.026 1292.250 M 568.166 1342.022 C 547.152 1348.221, 532.835 1360.276, 524.118 1379.111 C 518.792 1390.618, 517.541 1396.552, 517.606 1410 C 517.669 1422.893, 519.105 1429.127, 524.632 1440.500 C 533.316 1458.366, 549.410 1471.504, 568.644 1476.427 C 576.860 1478.530, 593.921 1478.509, 601.068 1476.388 C 630.108 1467.767, 649.713 1443.439, 651.670 1413.596 C 653.130 1391.337, 645.516 1371.935, 629.632 1357.438 C 621.680 1350.180, 610.259 1344.084, 599.936 1341.587 C 591.012 1339.429, 576.270 1339.631, 568.166 1342.022 M 834.205 1342.253 C 833.267 1343.383, 833.045 1359.047, 833.243 1410.111 L 833.500 1476.500 851.500 1476.785 C 861.400 1476.941, 873.310 1476.608, 877.968 1476.044 C 915.799 1471.465, 938.764 1443.877, 936.674 1405.520 C 935.814 1389.740, 933.296 1381.793, 925.357 1369.809 C 919.271 1360.622, 912.273 1354.653, 901.568 1349.518 C 888.063 1343.040, 881.094 1341.761, 856.462 1341.234 C 838.790 1340.856, 835.229 1341.019, 834.205 1342.253" stroke="none" fill="#eceeed" fill-rule="evenodd"/><path d="M 218 148.454 C 188.963 155.278, 165.720 174.286, 154.142 200.675 C 152.410 204.621, 149.870 212.605, 148.497 218.417 L 146 228.984 146.009 1279.742 L 146.018 2330.500 148.426 2341.114 C 154.749 2368.985, 172.044 2391.064, 197.279 2403.478 C 202.350 2405.973, 210.325 2409.024, 215 2410.257 L 223.500 2412.500 1279.500 2412.500 L 2335.500 2412.500 2344.500 2410.151 C 2376.723 2401.741, 2402.470 2375.456, 2410.409 2342.864 L 2413 2332.228 2412.994 1279.364 L 2412.987 226.500 2410.051 215.336 C 2400.947 180.716, 2375.744 156.299, 2341.024 148.462 L 2330.119 146 1278.810 146.110 L 227.500 146.221 218 148.454 M 1281.221 706.250 C 1279.897 707.867, 1259 743.031, 1259 743.642 C 1259 743.898, 1257.043 747.120, 1254.651 750.803 C 1252.259 754.486, 1249.061 759.750, 1247.544 762.500 C 1243.637 769.583, 1231.275 790.563, 1227.511 796.500 C 1222.876 803.812, 1215.374 816.371, 1205.110 834 C 1203.349 837.025, 1200.204 842.200, 1198.121 845.500 C 1196.038 848.800, 1192.836 854.200, 1191.006 857.500 C 1189.176 860.800, 1185.694 866.650, 1183.270 870.500 C 1180.845 874.350, 1173.913 886.050, 1167.864 896.500 C 1157.604 914.226, 1150.820 925.610, 1145.518 934 C 1144.301 935.925, 1137.545 947.400, 1130.504 959.500 C 1123.463 971.600, 1116.035 984.200, 1113.998 987.500 C 1109.599 994.624, 1105.406 1001.604, 1102.084 1007.333 C 1100.755 1009.625, 1096.480 1016.855, 1092.584 1023.399 C 1088.688 1029.944, 1084.819 1036.469, 1083.988 1037.899 C 1083.156 1039.330, 1079.511 1045.450, 1075.887 1051.500 C 1067.855 1064.911, 1057.274 1082.997, 1049.386 1096.800 C 1042.062 1109.616, 1042.742 1108.461, 1028.019 1133.053 C 1021.285 1144.299, 1013.960 1156.650, 1011.740 1160.500 C 1009.520 1164.350, 1006.195 1169.856, 1004.352 1172.735 C 998.499 1181.875, 1000.503 1183.886, 1010.799 1179.204 C 1014.484 1177.528, 1024.700 1172.948, 1033.500 1169.027 C 1042.300 1165.106, 1052.200 1160.505, 1055.500 1158.802 C 1058.800 1157.099, 1065.550 1154.015, 1070.500 1151.948 C 1075.450 1149.882, 1084.675 1145.867, 1091 1143.026 C 1097.325 1140.185, 1113.525 1133.338, 1127 1127.809 C 1140.475 1122.280, 1153.300 1116.944, 1155.500 1115.950 C 1160.750 1113.578, 1172.198 1108.989, 1184 1104.524 C 1201.754 1097.807, 1203.619 1096.550, 1209.254 1087.500 C 1210.623 1085.300, 1219.564 1073.021, 1229.122 1060.214 C 1238.680 1047.406, 1248.678 1033.906, 1251.339 1030.214 C 1264.750 1011.609, 1283.090 987.470, 1284.061 987.146 C 1284.664 986.945, 1285.910 987.808, 1286.829 989.063 C 1290.916 994.647, 1294.819 1000.159, 1298.888 1006.097 C 1301.302 1009.619, 1305.452 1015.425, 1308.111 1019 C 1314.890 1028.115, 1348.724 1074.635, 1356.584 1085.646 C 1360.174 1090.676, 1363.919 1095.522, 1364.905 1096.414 C 1365.891 1097.306, 1371.828 1100.076, 1378.099 1102.569 C 1409.564 1115.080, 1465.286 1138.494, 1481 1145.808 C 1484.575 1147.472, 1492.225 1150.856, 1498 1153.329 C 1509.731 1158.352, 1540.637 1172.745, 1551.725 1178.349 C 1559.595 1182.326, 1562.730 1182.867, 1563.673 1180.409 C 1564.517 1178.210, 1561.966 1173.391, 1544.867 1144.890 C 1540.118 1136.975, 1533.818 1126.350, 1530.867 1121.278 C 1523.639 1108.857, 1513.197 1091.298, 1510.484 1087 C 1509.269 1085.075, 1504.982 1077.650, 1500.959 1070.500 C 1493.813 1057.801, 1476.906 1028.976, 1472.513 1022 C 1471.300 1020.075, 1468.487 1015.125, 1466.260 1011 C 1462.701 1004.404, 1452.430 987.195, 1445.970 977 C 1444.750 975.075, 1437.675 962.925, 1430.247 950 C 1422.820 937.075, 1416.224 925.825, 1415.590 925 C 1414.955 924.175, 1413.353 921.475, 1412.028 919 C 1410.703 916.525, 1408.467 912.608, 1407.060 910.296 C 1405.652 907.984, 1400.941 900.109, 1396.592 892.796 C 1392.243 885.483, 1386.802 876.350, 1384.501 872.500 C 1382.201 868.650, 1374.101 854.925, 1366.502 842 C 1358.903 829.075, 1350.844 815.483, 1348.593 811.795 C 1346.342 808.108, 1342.700 801.898, 1340.500 797.996 C 1338.300 794.094, 1334.377 787.436, 1331.781 783.201 C 1329.186 778.965, 1324.497 771, 1321.362 765.500 C 1315.860 755.850, 1307.549 741.665, 1298.220 726 C 1295.763 721.875, 1292.394 716.025, 1290.732 713 C 1286.795 705.830, 1286.096 705, 1284 705 C 1283.035 705, 1281.784 705.563, 1281.221 706.250 M 1018.034 1004.966 C 1016.953 1006.047, 1014.851 1008.860, 1013.364 1011.216 C 1011.877 1013.572, 1006.349 1022.094, 1001.080 1030.154 C 979.436 1063.260, 961.604 1091.028, 955.902 1100.500 C 953.585 1104.350, 949.790 1110.425, 947.469 1114 C 945.148 1117.575, 936.877 1130.400, 929.090 1142.500 C 921.303 1154.600, 909.519 1172.825, 902.905 1183 C 881.488 1215.944, 873.016 1229.474, 873.008 1230.750 C 872.994 1232.927, 877.053 1232.106, 881.655 1229 C 884.100 1227.350, 886.483 1226, 886.950 1226 C 887.418 1226, 896.058 1221.814, 906.150 1216.699 C 916.243 1211.583, 927.546 1206.096, 931.269 1204.506 C 934.992 1202.917, 938.660 1200.915, 939.421 1200.058 C 940.656 1198.667, 946.583 1188.722, 953.760 1176 C 955.156 1173.525, 957.518 1169.700, 959.009 1167.500 C 960.500 1165.300, 967.258 1154.275, 974.027 1143 C 980.796 1131.725, 988.717 1118.818, 991.629 1114.318 C 994.541 1109.817, 997.739 1104.642, 998.736 1102.818 C 999.733 1100.993, 1001.270 1098.375, 1002.151 1097 C 1012.591 1080.708, 1014.209 1078.071, 1019.647 1068.500 C 1021.106 1065.932, 1021.439 1061.179, 1021.958 1035.500 C 1022.291 1019, 1022.389 1004.938, 1022.175 1004.250 C 1021.621 1002.471, 1020.300 1002.700, 1018.034 1004.966 M 1541.660 1003.750 C 1541.409 1004.163, 1541.279 1018, 1541.373 1034.500 C 1541.510 1058.631, 1541.832 1065.087, 1543.016 1067.500 C 1543.826 1069.150, 1548.284 1076.575, 1552.924 1084 C 1562.550 1099.408, 1581.704 1130.823, 1586.458 1139 C 1588.216 1142.025, 1593.107 1150.046, 1597.327 1156.825 C 1601.547 1163.604, 1605 1169.287, 1605 1169.454 C 1605 1169.620, 1607.093 1173.524, 1609.652 1178.128 C 1612.210 1182.733, 1615.657 1189.127, 1617.312 1192.339 C 1620.646 1198.809, 1622.912 1200.555, 1636.844 1207.391 C 1651.431 1214.548, 1681.444 1230.152, 1682.450 1231.102 C 1683.714 1232.297, 1686.730 1232.246, 1687.489 1231.018 C 1688.039 1230.128, 1672.644 1203.252, 1665.998 1193.500 C 1659.034 1183.281, 1653 1174.021, 1653 1173.553 C 1653 1172.895, 1647.103 1163.497, 1641.044 1154.500 C 1638.451 1150.650, 1630.380 1138.050, 1623.109 1126.500 C 1615.838 1114.950, 1606.109 1099.650, 1601.489 1092.500 C 1585.571 1067.864, 1580.827 1060.446, 1569.931 1043.152 C 1563.919 1033.610, 1559 1025.539, 1559 1025.216 C 1559 1024.893, 1558.179 1023.700, 1557.175 1022.564 C 1556.171 1021.429, 1553.160 1016.900, 1550.485 1012.500 C 1544.953 1003.405, 1543.033 1001.501, 1541.660 1003.750 M 1281.776 1077.713 C 1280.135 1079.544, 1271 1094.664, 1271 1095.549 C 1271 1095.819, 1269.911 1097.764, 1268.581 1099.872 C 1266.434 1103.273, 1263.404 1108.619, 1253.487 1126.500 C 1251.962 1129.250, 1249.935 1132.625, 1248.984 1134 C 1248.032 1135.375, 1245.785 1139.425, 1243.991 1143 C 1240.745 1149.466, 1229.197 1169.732, 1221.850 1181.852 C 1219.733 1185.346, 1218 1188.353, 1218 1188.535 C 1218 1188.717, 1215.750 1192.570, 1213 1197.098 C 1210.250 1201.626, 1208 1205.717, 1208 1206.190 C 1208 1206.662, 1206.200 1209.899, 1204 1213.383 C 1201.800 1216.866, 1200 1219.968, 1200 1220.275 C 1200 1220.583, 1197.975 1224.260, 1195.500 1228.446 C 1191.365 1235.440, 1189.883 1240.006, 1191.750 1239.996 C 1192.751 1239.991, 1196.774 1237.390, 1207 1230.137 C 1211.675 1226.820, 1218.200 1222.416, 1221.500 1220.350 C 1224.800 1218.283, 1230.717 1214.322, 1234.648 1211.546 C 1238.580 1208.771, 1243.305 1205.605, 1245.148 1204.511 C 1246.992 1203.416, 1249.997 1201.616, 1251.828 1200.511 C 1254.071 1199.155, 1257.981 1194.054, 1263.828 1184.854 C 1277.427 1163.453, 1283.185 1155, 1284.160 1155 C 1285.473 1155, 1291.067 1161.601, 1294.256 1166.911 C 1298.358 1173.742, 1299.116 1174.930, 1303.750 1181.798 C 1306.088 1185.262, 1308 1188.371, 1308 1188.707 C 1308 1189.043, 1309.762 1191.652, 1311.916 1194.505 C 1314.804 1198.330, 1319.710 1202.294, 1330.591 1209.596 C 1338.708 1215.043, 1348.983 1221.945, 1353.424 1224.932 C 1368.317 1234.950, 1373.136 1238, 1374.071 1238 C 1375.575 1238, 1375.131 1235.717, 1373 1232.500 C 1371.907 1230.850, 1371.010 1228.893, 1371.007 1228.151 C 1371.003 1227.409, 1369.467 1224.259, 1367.593 1221.151 C 1357.313 1204.098, 1348.932 1189.534, 1345.066 1182 C 1342.666 1177.325, 1339.946 1172.375, 1339.019 1171 C 1338.093 1169.625, 1335.151 1164.450, 1332.481 1159.500 C 1329.812 1154.550, 1324.899 1145.928, 1321.564 1140.341 C 1318.229 1134.753, 1313.705 1126.878, 1311.510 1122.841 C 1302.264 1105.829, 1298.696 1099.249, 1296.414 1095 C 1285.598 1074.861, 1284.983 1074.134, 1281.776 1077.713 M 815.816 1131.755 C 812.892 1136.020, 808.491 1142.658, 806.036 1146.505 C 803.581 1150.352, 797.844 1159.252, 793.286 1166.282 C 788.729 1173.313, 785 1179.219, 785 1179.407 C 785 1179.596, 780.837 1185.999, 775.750 1193.638 C 770.663 1201.276, 764.505 1210.669, 762.066 1214.513 C 759.627 1218.356, 751.190 1231.240, 743.316 1243.145 C 735.442 1255.050, 729 1265.737, 729 1266.895 C 729 1269.769, 732.280 1269.654, 738.554 1266.560 C 741.274 1265.219, 745.975 1263.158, 749 1261.980 C 752.025 1260.802, 756.075 1259.009, 758 1257.994 C 759.925 1256.980, 763.750 1255.365, 766.500 1254.405 C 772.435 1252.335, 774.023 1251.101, 779.248 1244.500 C 784.455 1237.921, 819.872 1201.139, 822.198 1199.894 C 823.718 1199.081, 826.378 1201.326, 838.866 1213.963 C 847.726 1222.929, 854.487 1228.991, 855.613 1228.977 C 857.026 1228.959, 859.077 1225.759, 863.785 1216.227 C 867.242 1209.227, 870.054 1202.233, 870.035 1200.684 C 869.996 1197.569, 869.218 1195.850, 864.518 1188.500 C 862.760 1185.750, 858.277 1178.325, 854.557 1172 C 850.837 1165.675, 846.109 1157.800, 844.050 1154.500 C 841.991 1151.200, 837.987 1144.555, 835.152 1139.734 C 823.738 1120.322, 823.671 1120.295, 815.816 1131.755 M 1732.292 1130.274 C 1729.977 1133.698, 1727.499 1137.625, 1726.784 1139 C 1725.210 1142.029, 1704.599 1176.291, 1700.766 1182.250 C 1699.263 1184.587, 1697.713 1187.175, 1697.323 1188 C 1696.933 1188.825, 1695.351 1191.501, 1693.807 1193.946 C 1692.263 1196.391, 1691 1199.194, 1691 1200.176 C 1691 1201.883, 1698.689 1220.782, 1701.507 1226 C 1702.250 1227.375, 1703.677 1228.620, 1704.679 1228.766 C 1705.870 1228.941, 1711.863 1223.840, 1722 1214.024 C 1730.525 1205.769, 1737.833 1199.012, 1738.239 1199.008 C 1739.289 1198.997, 1778.866 1239.371, 1784.367 1246.065 C 1787.417 1249.776, 1790.533 1252.329, 1793.720 1253.726 C 1796.349 1254.878, 1805.250 1258.794, 1813.500 1262.428 C 1821.750 1266.062, 1829.014 1269.027, 1829.643 1269.017 C 1831.807 1268.985, 1831.813 1266.304, 1829.659 1262.717 C 1824.313 1253.818, 1817.157 1242.499, 1809.292 1230.500 C 1787.359 1197.040, 1768.054 1167.424, 1763.540 1160.314 C 1746.437 1133.370, 1739.912 1124.002, 1738.263 1124.024 C 1737.233 1124.038, 1734.751 1126.635, 1732.292 1130.274 M 560.306 1285.532 C 520.139 1292.878, 485.611 1318.122, 468.065 1352.968 C 456.935 1375.075, 451.844 1403.126, 455.133 1424.231 C 459.123 1449.841, 468.340 1470.128, 484.916 1489.785 C 493.776 1500.292, 512.259 1514.156, 527.707 1521.881 C 560.220 1538.141, 608.460 1538.143, 641.431 1521.888 C 662.459 1511.521, 680.128 1496.358, 692.265 1478.266 C 707.541 1455.496, 713.941 1435.080, 713.979 1409 C 714.022 1379.395, 705.147 1354.402, 686.111 1330.526 C 678.737 1321.276, 674.923 1317.552, 665.438 1310.342 C 649.035 1297.874, 631.699 1289.997, 611.944 1286.037 C 599.916 1283.626, 572.211 1283.355, 560.306 1285.532 M 1215.864 1288.750 C 1179.547 1288.975, 1172.029 1289.260, 1171.044 1290.447 C 1169.400 1292.428, 1170.969 1295.039, 1176.233 1299.084 C 1185.326 1306.073, 1191.071 1314.480, 1200.046 1333.936 C 1203.741 1341.946, 1209.800 1354.800, 1213.510 1362.500 C 1217.221 1370.200, 1225.770 1388.200, 1232.509 1402.500 C 1239.247 1416.800, 1251.340 1442.366, 1259.380 1459.313 C 1267.421 1476.261, 1274 1490.328, 1274 1490.574 C 1274 1490.820, 1275.843 1494.729, 1278.095 1499.260 C 1280.347 1503.792, 1284.187 1512, 1286.627 1517.500 C 1289.068 1523, 1291.811 1528.063, 1292.724 1528.750 C 1293.923 1529.654, 1299.964 1530, 1314.536 1530 C 1332.470 1530, 1334.862 1529.807, 1336.249 1528.250 C 1337.941 1526.350, 1345.768 1510.790, 1354.987 1491 C 1360.268 1479.662, 1365.579 1468.572, 1382.999 1432.500 C 1386.187 1425.900, 1390.362 1417.125, 1392.277 1413 C 1394.193 1408.875, 1400.255 1396.275, 1405.749 1385 C 1411.243 1373.725, 1417.100 1361.575, 1418.765 1358 C 1439.206 1314.116, 1441.515 1310.097, 1452.208 1299.800 C 1463.609 1288.822, 1466.222 1289.500, 1412.500 1289.500 C 1368.831 1289.500, 1366.510 1289.591, 1366.177 1291.321 C 1365.984 1292.322, 1367.048 1294.905, 1368.542 1297.061 C 1372.069 1302.150, 1371.576 1305.419, 1365.125 1319.723 C 1362.453 1325.650, 1358.348 1335, 1356.005 1340.500 C 1349.868 1354.900, 1343.493 1369.444, 1338.251 1381 C 1336.879 1384.025, 1334.971 1388.300, 1334.011 1390.500 C 1333.051 1392.700, 1331.332 1396.525, 1330.191 1399 C 1329.050 1401.475, 1325.412 1409.568, 1322.106 1416.984 C 1316.692 1429.130, 1314 1433.427, 1314 1429.925 C 1314 1429.242, 1312.251 1424.817, 1310.113 1420.092 C 1303.339 1405.119, 1286.545 1367.210, 1277.733 1347 C 1258.836 1303.663, 1259.025 1304.346, 1263.632 1296.050 C 1266.439 1290.995, 1266.459 1290.854, 1264.559 1289.443 C 1263.491 1288.649, 1261.916 1288.108, 1261.059 1288.239 C 1260.201 1288.371, 1239.864 1288.600, 1215.864 1288.750 M 758.044 1290.917 C 757.190 1292.513, 757.742 1293.580, 761.331 1297.272 C 763.703 1299.713, 766.630 1303.809, 767.836 1306.374 L 770.029 1311.039 769.764 1410.269 L 769.500 1509.500 767.138 1514 C 765.838 1516.475, 763.251 1520.189, 761.388 1522.253 C 754.183 1530.235, 752.494 1529.999, 816.950 1530.007 C 852.363 1530.011, 876.490 1529.605, 881.500 1528.920 C 915.080 1524.330, 939.813 1514.245, 959.878 1496.960 C 982.737 1477.269, 995.921 1450.633, 998.962 1418 C 1001.167 1394.342, 996.134 1371.651, 983.824 1349.752 C 968.363 1322.246, 935.806 1300.061, 900.584 1293.029 C 880.857 1289.091, 879.015 1289, 818.670 1289 C 760.949 1289, 759.038 1289.060, 758.044 1290.917 M 1044.750 1290.074 C 1042.096 1291.629, 1042.540 1292.638, 1048.383 1298.343 C 1052.885 1302.738, 1053.960 1304.492, 1054.944 1309.050 C 1056.683 1317.102, 1055.986 1505.982, 1054.198 1511.208 C 1053.500 1513.248, 1050.695 1517.361, 1047.965 1520.348 C 1042.791 1526.010, 1041.909 1528.367, 1044.582 1529.393 C 1046.648 1530.186, 1128.352 1530.186, 1130.418 1529.393 C 1132.895 1528.442, 1132.277 1524.640, 1129.161 1521.654 C 1127.599 1520.158, 1125.237 1516.811, 1123.911 1514.217 L 1121.500 1509.500 1121.500 1410.500 C 1121.500 1327.004, 1121.724 1310.952, 1122.928 1308 C 1124.399 1304.398, 1129.420 1297.314, 1131.830 1295.444 C 1132.578 1294.863, 1133.035 1293.288, 1132.845 1291.944 L 1132.500 1289.500 1089.500 1289.274 C 1061.524 1289.128, 1045.889 1289.407, 1044.750 1290.074 M 1517.667 1289.667 C 1516.039 1291.294, 1517.349 1294.063, 1521.895 1298.609 C 1525.124 1301.838, 1527.172 1304.924, 1527.913 1307.679 C 1528.719 1310.671, 1528.962 1340.141, 1528.769 1411.677 C 1528.468 1523.387, 1529.081 1514.363, 1521.311 1521.482 C 1518.801 1523.781, 1517.915 1525.358, 1518.160 1527.090 L 1518.500 1529.500 1617.500 1529.758 C 1709.686 1529.999, 1716.586 1529.900, 1717.750 1528.317 C 1718.682 1527.051, 1719 1519.299, 1719 1497.891 C 1719 1482.091, 1718.727 1468.452, 1718.393 1467.582 C 1717.391 1464.970, 1714.384 1465.773, 1709.573 1469.937 C 1706.395 1472.687, 1703.740 1474.056, 1700.762 1474.479 C 1698.418 1474.812, 1673.325 1474.953, 1645 1474.792 L 1593.500 1474.500 1593.229 1454.865 L 1592.958 1435.230 1622.229 1434.508 C 1638.328 1434.111, 1660.062 1433.946, 1670.526 1434.143 C 1688.460 1434.479, 1689.716 1434.629, 1692.411 1436.750 C 1695.276 1439.005, 1698.462 1439.680, 1699.363 1438.222 C 1699.628 1437.793, 1699.956 1424.432, 1700.092 1408.530 C 1700.314 1382.731, 1700.165 1379.507, 1698.712 1378.590 C 1697.480 1377.813, 1696.324 1378.123, 1693.974 1379.861 L 1690.866 1382.159 1642.702 1382.048 C 1616.211 1381.987, 1594.146 1381.546, 1593.668 1381.068 C 1592.756 1380.156, 1593.106 1345.558, 1594.036 1344.629 C 1594.442 1344.225, 1684.837 1343.644, 1700.158 1343.947 C 1701.769 1343.979, 1704.994 1345.773, 1708.341 1348.500 C 1713.683 1352.852, 1716.316 1353.915, 1717.402 1352.159 C 1718.278 1350.741, 1718.554 1291.584, 1717.691 1290.250 C 1717.053 1289.264, 1695.929 1289, 1617.608 1289 C 1563.007 1289, 1518.033 1289.300, 1517.667 1289.667 M 1766.667 1289.667 C 1764.895 1291.438, 1766.397 1294.171, 1770.750 1297.097 C 1773.362 1298.853, 1777.013 1301.687, 1778.863 1303.395 C 1782.053 1306.341, 1799.802 1327.693, 1803 1332.433 C 1803.825 1333.655, 1809.321 1340.696, 1815.214 1348.078 C 1821.107 1355.460, 1830.301 1367.125, 1835.645 1374 C 1840.990 1380.875, 1847.643 1389.301, 1850.431 1392.724 C 1853.219 1396.147, 1856.561 1400.327, 1857.859 1402.013 L 1860.217 1405.079 1857.359 1409.289 C 1855.786 1411.605, 1851.350 1417.353, 1847.500 1422.062 C 1843.650 1426.771, 1836.900 1435.290, 1832.500 1440.993 C 1822.487 1453.972, 1811.772 1467.706, 1806.305 1474.570 C 1803.998 1477.467, 1797.936 1485.386, 1792.834 1492.168 C 1787.732 1498.951, 1778.634 1509.396, 1772.616 1515.380 C 1763.698 1524.248, 1761.863 1526.560, 1762.696 1527.880 C 1763.607 1529.325, 1768.285 1529.528, 1805.928 1529.761 C 1831.027 1529.916, 1848.820 1529.640, 1849.819 1529.079 C 1851.117 1528.351, 1851.500 1526.695, 1851.500 1521.803 C 1851.500 1514.736, 1850.078 1517.112, 1870.066 1490.783 C 1887.513 1467.803, 1893.556 1459.718, 1895.765 1456.401 C 1897.010 1454.530, 1898.585 1453.007, 1899.265 1453.015 C 1899.944 1453.024, 1902.202 1455.386, 1904.282 1458.265 C 1906.361 1461.144, 1910.781 1467.100, 1914.102 1471.500 C 1949.494 1518.386, 1949 1517.651, 1949 1523.430 C 1949 1527.527, 1949.396 1528.938, 1950.682 1529.432 C 1953.377 1530.466, 2033.235 1529.945, 2035.224 1528.880 C 2038.035 1527.376, 2037.368 1524.241, 2033.849 1522.422 C 2029.967 1520.415, 2027.396 1517.692, 2015.150 1502.629 C 2005.051 1490.205, 2003.074 1487.712, 1993.870 1475.792 C 1987.106 1467.032, 1972.604 1448.359, 1970.213 1445.331 C 1950.219 1420.007, 1940 1406.195, 1940 1404.494 C 1940 1403.807, 1940.746 1402.627, 1941.657 1401.872 C 1942.568 1401.118, 1948.182 1394.200, 1954.133 1386.500 C 1960.084 1378.800, 1968.001 1368.626, 1971.726 1363.892 C 1978.073 1355.827, 1986.409 1345.168, 2006.052 1320 C 2016.539 1306.562, 2020.076 1302.875, 2027.750 1297.377 C 2031.188 1294.914, 2033.993 1292.584, 2033.985 1292.199 C 2033.916 1289.076, 2032.413 1288.978, 1988.434 1289.239 L 1944.500 1289.500 1943.987 1295 C 1943.418 1301.107, 1941.854 1303.649, 1926.453 1323.500 C 1921.759 1329.550, 1915.124 1338.477, 1911.709 1343.339 C 1902.770 1356.062, 1902.002 1357, 1900.504 1357 C 1898.915 1357, 1889.381 1345.075, 1875.256 1325.421 C 1862.444 1307.594, 1858 1300.021, 1858 1296.016 C 1858 1294.285, 1857.534 1291.998, 1856.965 1290.934 C 1855.965 1289.067, 1854.404 1289, 1811.631 1289 C 1787.268 1289, 1767.033 1289.300, 1766.667 1289.667 M 568 1344.349 C 553.216 1349.007, 544.306 1354.578, 535.902 1364.421 C 508.461 1396.558, 516.318 1446.762, 552 1467.273 C 564.370 1474.384, 581.642 1477.964, 593.724 1475.922 C 601.374 1474.629, 613.922 1469.494, 620.858 1464.818 C 631.728 1457.490, 641.833 1443.802, 646.703 1429.807 C 648.917 1423.445, 649.256 1420.753, 649.325 1409 C 649.396 1396.870, 649.129 1394.675, 646.696 1387.369 C 640.114 1367.604, 625.001 1352.387, 604.906 1345.293 C 594.035 1341.456, 578.449 1341.057, 568 1344.349 M 835.459 1345.250 C 835.197 1345.938, 835.098 1375.300, 835.241 1410.500 L 835.500 1474.500 851.500 1474.804 C 879.721 1475.340, 897.537 1471.621, 909 1462.802 C 913.825 1459.089, 922.269 1450.469, 924.964 1446.505 C 935.383 1431.176, 937.921 1404.598, 930.838 1385 C 923.320 1364.199, 907.670 1350.938, 884.188 1345.470 C 875.818 1343.521, 836.189 1343.342, 835.459 1345.250" stroke="none" fill="#040404" fill-rule="evenodd"/></svg>